<?xml version="1.0" encoding="utf-8" standalone="no"?>
<!DOCTYPE svg PUBLIC "-//W3C//DTD SVG 1.1//EN"
  "http://www.w3.org/Graphics/SVG/1.1/DTD/svg11.dtd">
<svg xmlns:xlink="http://www.w3.org/1999/xlink" width="1080pt" height="720pt" viewBox="0 0 1080 720" xmlns="http://www.w3.org/2000/svg" version="1.1">
 <metadata>
  <rdf:RDF xmlns:dc="http://purl.org/dc/elements/1.1/" xmlns:cc="http://creativecommons.org/ns#" xmlns:rdf="http://www.w3.org/1999/02/22-rdf-syntax-ns#">
   <cc:Work>
    <dc:type rdf:resource="http://purl.org/dc/dcmitype/StillImage"/>
    <dc:date>2024-03-05T23:23:41.515560</dc:date>
    <dc:format>image/svg+xml</dc:format>
    <dc:creator>
     <cc:Agent>
      <dc:title>Matplotlib v3.6.0, https://matplotlib.org/</dc:title>
     </cc:Agent>
    </dc:creator>
   </cc:Work>
  </rdf:RDF>
 </metadata>
 <defs>
  <style type="text/css">*{stroke-linejoin: round; stroke-linecap: butt}</style>
 </defs>
 <g id="figure_1">
  <g id="patch_1">
   <path d="M 0 720 
L 1080 720 
L 1080 0 
L 0 0 
z
" style="fill: #ffffff"/>
  </g>
  <g id="axes_1">
   <g id="patch_2">
    <path d="M 49.5 594 
L 1067.04 594 
L 1067.04 27.6 
L 49.5 27.6 
z
" style="fill: #ffffff"/>
   </g>
   <g id="matplotlib.axis_1">
    <g id="xtick_1">
     <g id="line2d_1">
      <defs>
       <path id="me0394166c5" d="M 0 0 
L 0 6 
" style="stroke: #262626; stroke-width: 1.25"/>
      </defs>
      <g>
       <use xlink:href="#me0394166c5" x="91.8975" y="594" style="fill: #262626; stroke: #262626; stroke-width: 1.25"/>
      </g>
     </g>
     <g id="text_1">
      <!-- Bacteroidota -->
      <g style="fill: #262626" transform="translate(94.741172 665.258125) rotate(-90) scale(0.11 -0.11)">
       <defs>
        <path id="ArialMT-42" d="M 469 0 
L 469 4581 
L 2188 4581 
Q 2713 4581 3030 4442 
Q 3347 4303 3526 4014 
Q 3706 3725 3706 3409 
Q 3706 3116 3547 2856 
Q 3388 2597 3066 2438 
Q 3481 2316 3704 2022 
Q 3928 1728 3928 1328 
Q 3928 1006 3792 729 
Q 3656 453 3456 303 
Q 3256 153 2954 76 
Q 2653 0 2216 0 
L 469 0 
z
M 1075 2656 
L 2066 2656 
Q 2469 2656 2644 2709 
Q 2875 2778 2992 2937 
Q 3109 3097 3109 3338 
Q 3109 3566 3000 3739 
Q 2891 3913 2687 3977 
Q 2484 4041 1991 4041 
L 1075 4041 
L 1075 2656 
z
M 1075 541 
L 2216 541 
Q 2509 541 2628 563 
Q 2838 600 2978 687 
Q 3119 775 3209 942 
Q 3300 1109 3300 1328 
Q 3300 1584 3169 1773 
Q 3038 1963 2805 2039 
Q 2572 2116 2134 2116 
L 1075 2116 
L 1075 541 
z
" transform="scale(0.015625)"/>
        <path id="ArialMT-61" d="M 2588 409 
Q 2275 144 1986 34 
Q 1697 -75 1366 -75 
Q 819 -75 525 192 
Q 231 459 231 875 
Q 231 1119 342 1320 
Q 453 1522 633 1644 
Q 813 1766 1038 1828 
Q 1203 1872 1538 1913 
Q 2219 1994 2541 2106 
Q 2544 2222 2544 2253 
Q 2544 2597 2384 2738 
Q 2169 2928 1744 2928 
Q 1347 2928 1158 2789 
Q 969 2650 878 2297 
L 328 2372 
Q 403 2725 575 2942 
Q 747 3159 1072 3276 
Q 1397 3394 1825 3394 
Q 2250 3394 2515 3294 
Q 2781 3194 2906 3042 
Q 3031 2891 3081 2659 
Q 3109 2516 3109 2141 
L 3109 1391 
Q 3109 606 3145 398 
Q 3181 191 3288 0 
L 2700 0 
Q 2613 175 2588 409 
z
M 2541 1666 
Q 2234 1541 1622 1453 
Q 1275 1403 1131 1340 
Q 988 1278 909 1158 
Q 831 1038 831 891 
Q 831 666 1001 516 
Q 1172 366 1500 366 
Q 1825 366 2078 508 
Q 2331 650 2450 897 
Q 2541 1088 2541 1459 
L 2541 1666 
z
" transform="scale(0.015625)"/>
        <path id="ArialMT-63" d="M 2588 1216 
L 3141 1144 
Q 3050 572 2676 248 
Q 2303 -75 1759 -75 
Q 1078 -75 664 370 
Q 250 816 250 1647 
Q 250 2184 428 2587 
Q 606 2991 970 3192 
Q 1334 3394 1763 3394 
Q 2303 3394 2647 3120 
Q 2991 2847 3088 2344 
L 2541 2259 
Q 2463 2594 2264 2762 
Q 2066 2931 1784 2931 
Q 1359 2931 1093 2626 
Q 828 2322 828 1663 
Q 828 994 1084 691 
Q 1341 388 1753 388 
Q 2084 388 2306 591 
Q 2528 794 2588 1216 
z
" transform="scale(0.015625)"/>
        <path id="ArialMT-74" d="M 1650 503 
L 1731 6 
Q 1494 -44 1306 -44 
Q 1000 -44 831 53 
Q 663 150 594 308 
Q 525 466 525 972 
L 525 2881 
L 113 2881 
L 113 3319 
L 525 3319 
L 525 4141 
L 1084 4478 
L 1084 3319 
L 1650 3319 
L 1650 2881 
L 1084 2881 
L 1084 941 
Q 1084 700 1114 631 
Q 1144 563 1211 522 
Q 1278 481 1403 481 
Q 1497 481 1650 503 
z
" transform="scale(0.015625)"/>
        <path id="ArialMT-65" d="M 2694 1069 
L 3275 997 
Q 3138 488 2766 206 
Q 2394 -75 1816 -75 
Q 1088 -75 661 373 
Q 234 822 234 1631 
Q 234 2469 665 2931 
Q 1097 3394 1784 3394 
Q 2450 3394 2872 2941 
Q 3294 2488 3294 1666 
Q 3294 1616 3291 1516 
L 816 1516 
Q 847 969 1125 678 
Q 1403 388 1819 388 
Q 2128 388 2347 550 
Q 2566 713 2694 1069 
z
M 847 1978 
L 2700 1978 
Q 2663 2397 2488 2606 
Q 2219 2931 1791 2931 
Q 1403 2931 1139 2672 
Q 875 2413 847 1978 
z
" transform="scale(0.015625)"/>
        <path id="ArialMT-72" d="M 416 0 
L 416 3319 
L 922 3319 
L 922 2816 
Q 1116 3169 1280 3281 
Q 1444 3394 1641 3394 
Q 1925 3394 2219 3213 
L 2025 2691 
Q 1819 2813 1613 2813 
Q 1428 2813 1281 2702 
Q 1134 2591 1072 2394 
Q 978 2094 978 1738 
L 978 0 
L 416 0 
z
" transform="scale(0.015625)"/>
        <path id="ArialMT-6f" d="M 213 1659 
Q 213 2581 725 3025 
Q 1153 3394 1769 3394 
Q 2453 3394 2887 2945 
Q 3322 2497 3322 1706 
Q 3322 1066 3130 698 
Q 2938 331 2570 128 
Q 2203 -75 1769 -75 
Q 1072 -75 642 372 
Q 213 819 213 1659 
z
M 791 1659 
Q 791 1022 1069 705 
Q 1347 388 1769 388 
Q 2188 388 2466 706 
Q 2744 1025 2744 1678 
Q 2744 2294 2464 2611 
Q 2184 2928 1769 2928 
Q 1347 2928 1069 2612 
Q 791 2297 791 1659 
z
" transform="scale(0.015625)"/>
        <path id="ArialMT-69" d="M 425 3934 
L 425 4581 
L 988 4581 
L 988 3934 
L 425 3934 
z
M 425 0 
L 425 3319 
L 988 3319 
L 988 0 
L 425 0 
z
" transform="scale(0.015625)"/>
        <path id="ArialMT-64" d="M 2575 0 
L 2575 419 
Q 2259 -75 1647 -75 
Q 1250 -75 917 144 
Q 584 363 401 755 
Q 219 1147 219 1656 
Q 219 2153 384 2558 
Q 550 2963 881 3178 
Q 1213 3394 1622 3394 
Q 1922 3394 2156 3267 
Q 2391 3141 2538 2938 
L 2538 4581 
L 3097 4581 
L 3097 0 
L 2575 0 
z
M 797 1656 
Q 797 1019 1065 703 
Q 1334 388 1700 388 
Q 2069 388 2326 689 
Q 2584 991 2584 1609 
Q 2584 2291 2321 2609 
Q 2059 2928 1675 2928 
Q 1300 2928 1048 2622 
Q 797 2316 797 1656 
z
" transform="scale(0.015625)"/>
       </defs>
       <use xlink:href="#ArialMT-42"/>
       <use xlink:href="#ArialMT-61" x="66.699219"/>
       <use xlink:href="#ArialMT-63" x="122.314453"/>
       <use xlink:href="#ArialMT-74" x="172.314453"/>
       <use xlink:href="#ArialMT-65" x="200.097656"/>
       <use xlink:href="#ArialMT-72" x="255.712891"/>
       <use xlink:href="#ArialMT-6f" x="289.013672"/>
       <use xlink:href="#ArialMT-69" x="344.628906"/>
       <use xlink:href="#ArialMT-64" x="366.845703"/>
       <use xlink:href="#ArialMT-6f" x="422.460938"/>
       <use xlink:href="#ArialMT-74" x="478.076172"/>
       <use xlink:href="#ArialMT-61" x="505.859375"/>
      </g>
     </g>
    </g>
    <g id="xtick_2">
     <g id="line2d_2">
      <g>
       <use xlink:href="#me0394166c5" x="176.6925" y="594" style="fill: #262626; stroke: #262626; stroke-width: 1.25"/>
      </g>
     </g>
     <g id="text_2">
      <!-- Firmicutes -->
      <g style="fill: #262626" transform="translate(179.536172 654.222031) rotate(-90) scale(0.11 -0.11)">
       <defs>
        <path id="ArialMT-46" d="M 525 0 
L 525 4581 
L 3616 4581 
L 3616 4041 
L 1131 4041 
L 1131 2622 
L 3281 2622 
L 3281 2081 
L 1131 2081 
L 1131 0 
L 525 0 
z
" transform="scale(0.015625)"/>
        <path id="ArialMT-6d" d="M 422 0 
L 422 3319 
L 925 3319 
L 925 2853 
Q 1081 3097 1340 3245 
Q 1600 3394 1931 3394 
Q 2300 3394 2536 3241 
Q 2772 3088 2869 2813 
Q 3263 3394 3894 3394 
Q 4388 3394 4653 3120 
Q 4919 2847 4919 2278 
L 4919 0 
L 4359 0 
L 4359 2091 
Q 4359 2428 4304 2576 
Q 4250 2725 4106 2815 
Q 3963 2906 3769 2906 
Q 3419 2906 3187 2673 
Q 2956 2441 2956 1928 
L 2956 0 
L 2394 0 
L 2394 2156 
Q 2394 2531 2256 2718 
Q 2119 2906 1806 2906 
Q 1569 2906 1367 2781 
Q 1166 2656 1075 2415 
Q 984 2175 984 1722 
L 984 0 
L 422 0 
z
" transform="scale(0.015625)"/>
        <path id="ArialMT-75" d="M 2597 0 
L 2597 488 
Q 2209 -75 1544 -75 
Q 1250 -75 995 37 
Q 741 150 617 320 
Q 494 491 444 738 
Q 409 903 409 1263 
L 409 3319 
L 972 3319 
L 972 1478 
Q 972 1038 1006 884 
Q 1059 663 1231 536 
Q 1403 409 1656 409 
Q 1909 409 2131 539 
Q 2353 669 2445 892 
Q 2538 1116 2538 1541 
L 2538 3319 
L 3100 3319 
L 3100 0 
L 2597 0 
z
" transform="scale(0.015625)"/>
        <path id="ArialMT-73" d="M 197 991 
L 753 1078 
Q 800 744 1014 566 
Q 1228 388 1613 388 
Q 2000 388 2187 545 
Q 2375 703 2375 916 
Q 2375 1106 2209 1216 
Q 2094 1291 1634 1406 
Q 1016 1563 777 1677 
Q 538 1791 414 1992 
Q 291 2194 291 2438 
Q 291 2659 392 2848 
Q 494 3038 669 3163 
Q 800 3259 1026 3326 
Q 1253 3394 1513 3394 
Q 1903 3394 2198 3281 
Q 2494 3169 2634 2976 
Q 2775 2784 2828 2463 
L 2278 2388 
Q 2241 2644 2061 2787 
Q 1881 2931 1553 2931 
Q 1166 2931 1000 2803 
Q 834 2675 834 2503 
Q 834 2394 903 2306 
Q 972 2216 1119 2156 
Q 1203 2125 1616 2013 
Q 2213 1853 2448 1751 
Q 2684 1650 2818 1456 
Q 2953 1263 2953 975 
Q 2953 694 2789 445 
Q 2625 197 2315 61 
Q 2006 -75 1616 -75 
Q 969 -75 630 194 
Q 291 463 197 991 
z
" transform="scale(0.015625)"/>
       </defs>
       <use xlink:href="#ArialMT-46"/>
       <use xlink:href="#ArialMT-69" x="61.083984"/>
       <use xlink:href="#ArialMT-72" x="83.300781"/>
       <use xlink:href="#ArialMT-6d" x="116.601562"/>
       <use xlink:href="#ArialMT-69" x="199.902344"/>
       <use xlink:href="#ArialMT-63" x="222.119141"/>
       <use xlink:href="#ArialMT-75" x="272.119141"/>
       <use xlink:href="#ArialMT-74" x="327.734375"/>
       <use xlink:href="#ArialMT-65" x="355.517578"/>
       <use xlink:href="#ArialMT-73" x="411.132812"/>
      </g>
     </g>
    </g>
    <g id="xtick_3">
     <g id="line2d_3">
      <g>
       <use xlink:href="#me0394166c5" x="261.4875" y="594" style="fill: #262626; stroke: #262626; stroke-width: 1.25"/>
      </g>
     </g>
     <g id="text_3">
      <!-- Verrucomicrobiota -->
      <g style="fill: #262626" transform="translate(264.331172 692.14625) rotate(-90) scale(0.11 -0.11)">
       <defs>
        <path id="ArialMT-56" d="M 1803 0 
L 28 4581 
L 684 4581 
L 1875 1253 
Q 2019 853 2116 503 
Q 2222 878 2363 1253 
L 3600 4581 
L 4219 4581 
L 2425 0 
L 1803 0 
z
" transform="scale(0.015625)"/>
        <path id="ArialMT-62" d="M 941 0 
L 419 0 
L 419 4581 
L 981 4581 
L 981 2947 
Q 1338 3394 1891 3394 
Q 2197 3394 2470 3270 
Q 2744 3147 2920 2923 
Q 3097 2700 3197 2384 
Q 3297 2069 3297 1709 
Q 3297 856 2875 390 
Q 2453 -75 1863 -75 
Q 1275 -75 941 416 
L 941 0 
z
M 934 1684 
Q 934 1088 1097 822 
Q 1363 388 1816 388 
Q 2184 388 2453 708 
Q 2722 1028 2722 1663 
Q 2722 2313 2464 2622 
Q 2206 2931 1841 2931 
Q 1472 2931 1203 2611 
Q 934 2291 934 1684 
z
" transform="scale(0.015625)"/>
       </defs>
       <use xlink:href="#ArialMT-56"/>
       <use xlink:href="#ArialMT-65" x="61.199219"/>
       <use xlink:href="#ArialMT-72" x="116.814453"/>
       <use xlink:href="#ArialMT-72" x="150.115234"/>
       <use xlink:href="#ArialMT-75" x="183.416016"/>
       <use xlink:href="#ArialMT-63" x="239.03125"/>
       <use xlink:href="#ArialMT-6f" x="289.03125"/>
       <use xlink:href="#ArialMT-6d" x="344.646484"/>
       <use xlink:href="#ArialMT-69" x="427.947266"/>
       <use xlink:href="#ArialMT-63" x="450.164062"/>
       <use xlink:href="#ArialMT-72" x="500.164062"/>
       <use xlink:href="#ArialMT-6f" x="533.464844"/>
       <use xlink:href="#ArialMT-62" x="589.080078"/>
       <use xlink:href="#ArialMT-69" x="644.695312"/>
       <use xlink:href="#ArialMT-6f" x="666.912109"/>
       <use xlink:href="#ArialMT-74" x="722.527344"/>
       <use xlink:href="#ArialMT-61" x="750.310547"/>
      </g>
     </g>
    </g>
    <g id="xtick_4">
     <g id="line2d_4">
      <g>
       <use xlink:href="#me0394166c5" x="346.2825" y="594" style="fill: #262626; stroke: #262626; stroke-width: 1.25"/>
      </g>
     </g>
     <g id="text_4">
      <!-- Actinobacteriota -->
      <g style="fill: #262626" transform="translate(349.126172 682.375156) rotate(-90) scale(0.11 -0.11)">
       <defs>
        <path id="ArialMT-41" d="M -9 0 
L 1750 4581 
L 2403 4581 
L 4278 0 
L 3588 0 
L 3053 1388 
L 1138 1388 
L 634 0 
L -9 0 
z
M 1313 1881 
L 2866 1881 
L 2388 3150 
Q 2169 3728 2063 4100 
Q 1975 3659 1816 3225 
L 1313 1881 
z
" transform="scale(0.015625)"/>
        <path id="ArialMT-6e" d="M 422 0 
L 422 3319 
L 928 3319 
L 928 2847 
Q 1294 3394 1984 3394 
Q 2284 3394 2536 3286 
Q 2788 3178 2913 3003 
Q 3038 2828 3088 2588 
Q 3119 2431 3119 2041 
L 3119 0 
L 2556 0 
L 2556 2019 
Q 2556 2363 2490 2533 
Q 2425 2703 2258 2804 
Q 2091 2906 1866 2906 
Q 1506 2906 1245 2678 
Q 984 2450 984 1813 
L 984 0 
L 422 0 
z
" transform="scale(0.015625)"/>
       </defs>
       <use xlink:href="#ArialMT-41"/>
       <use xlink:href="#ArialMT-63" x="66.699219"/>
       <use xlink:href="#ArialMT-74" x="116.699219"/>
       <use xlink:href="#ArialMT-69" x="144.482422"/>
       <use xlink:href="#ArialMT-6e" x="166.699219"/>
       <use xlink:href="#ArialMT-6f" x="222.314453"/>
       <use xlink:href="#ArialMT-62" x="277.929688"/>
       <use xlink:href="#ArialMT-61" x="333.544922"/>
       <use xlink:href="#ArialMT-63" x="389.160156"/>
       <use xlink:href="#ArialMT-74" x="439.160156"/>
       <use xlink:href="#ArialMT-65" x="466.943359"/>
       <use xlink:href="#ArialMT-72" x="522.558594"/>
       <use xlink:href="#ArialMT-69" x="555.859375"/>
       <use xlink:href="#ArialMT-6f" x="578.076172"/>
       <use xlink:href="#ArialMT-74" x="633.691406"/>
       <use xlink:href="#ArialMT-61" x="661.474609"/>
      </g>
     </g>
    </g>
    <g id="xtick_5">
     <g id="line2d_5">
      <g>
       <use xlink:href="#me0394166c5" x="431.0775" y="594" style="fill: #262626; stroke: #262626; stroke-width: 1.25"/>
      </g>
     </g>
     <g id="text_5">
      <!-- Proteobacteria -->
      <g style="fill: #262626" transform="translate(433.921172 675.037813) rotate(-90) scale(0.11 -0.11)">
       <defs>
        <path id="ArialMT-50" d="M 494 0 
L 494 4581 
L 2222 4581 
Q 2678 4581 2919 4538 
Q 3256 4481 3484 4323 
Q 3713 4166 3852 3881 
Q 3991 3597 3991 3256 
Q 3991 2672 3619 2267 
Q 3247 1863 2275 1863 
L 1100 1863 
L 1100 0 
L 494 0 
z
M 1100 2403 
L 2284 2403 
Q 2872 2403 3119 2622 
Q 3366 2841 3366 3238 
Q 3366 3525 3220 3729 
Q 3075 3934 2838 4000 
Q 2684 4041 2272 4041 
L 1100 4041 
L 1100 2403 
z
" transform="scale(0.015625)"/>
       </defs>
       <use xlink:href="#ArialMT-50"/>
       <use xlink:href="#ArialMT-72" x="66.699219"/>
       <use xlink:href="#ArialMT-6f" x="100"/>
       <use xlink:href="#ArialMT-74" x="155.615234"/>
       <use xlink:href="#ArialMT-65" x="183.398438"/>
       <use xlink:href="#ArialMT-6f" x="239.013672"/>
       <use xlink:href="#ArialMT-62" x="294.628906"/>
       <use xlink:href="#ArialMT-61" x="350.244141"/>
       <use xlink:href="#ArialMT-63" x="405.859375"/>
       <use xlink:href="#ArialMT-74" x="455.859375"/>
       <use xlink:href="#ArialMT-65" x="483.642578"/>
       <use xlink:href="#ArialMT-72" x="539.257812"/>
       <use xlink:href="#ArialMT-69" x="572.558594"/>
       <use xlink:href="#ArialMT-61" x="594.775391"/>
      </g>
     </g>
    </g>
    <g id="xtick_6">
     <g id="line2d_6">
      <g>
       <use xlink:href="#me0394166c5" x="515.8725" y="594" style="fill: #262626; stroke: #262626; stroke-width: 1.25"/>
      </g>
     </g>
     <g id="text_6">
      <!-- Patescibacteria -->
      <g style="fill: #262626" transform="translate(518.716172 678.702188) rotate(-90) scale(0.11 -0.11)">
       <use xlink:href="#ArialMT-50"/>
       <use xlink:href="#ArialMT-61" x="66.699219"/>
       <use xlink:href="#ArialMT-74" x="122.314453"/>
       <use xlink:href="#ArialMT-65" x="150.097656"/>
       <use xlink:href="#ArialMT-73" x="205.712891"/>
       <use xlink:href="#ArialMT-63" x="255.712891"/>
       <use xlink:href="#ArialMT-69" x="305.712891"/>
       <use xlink:href="#ArialMT-62" x="327.929688"/>
       <use xlink:href="#ArialMT-61" x="383.544922"/>
       <use xlink:href="#ArialMT-63" x="439.160156"/>
       <use xlink:href="#ArialMT-74" x="489.160156"/>
       <use xlink:href="#ArialMT-65" x="516.943359"/>
       <use xlink:href="#ArialMT-72" x="572.558594"/>
       <use xlink:href="#ArialMT-69" x="605.859375"/>
       <use xlink:href="#ArialMT-61" x="628.076172"/>
      </g>
     </g>
    </g>
    <g id="xtick_7">
     <g id="line2d_7">
      <g>
       <use xlink:href="#me0394166c5" x="600.6675" y="594" style="fill: #262626; stroke: #262626; stroke-width: 1.25"/>
      </g>
     </g>
     <g id="text_7">
      <!-- Cyanobacteria -->
      <g style="fill: #262626" transform="translate(603.51375 674.425938) rotate(-90) scale(0.11 -0.11)">
       <defs>
        <path id="ArialMT-43" d="M 3763 1606 
L 4369 1453 
Q 4178 706 3683 314 
Q 3188 -78 2472 -78 
Q 1731 -78 1267 223 
Q 803 525 561 1097 
Q 319 1669 319 2325 
Q 319 3041 592 3573 
Q 866 4106 1370 4382 
Q 1875 4659 2481 4659 
Q 3169 4659 3637 4309 
Q 4106 3959 4291 3325 
L 3694 3184 
Q 3534 3684 3231 3912 
Q 2928 4141 2469 4141 
Q 1941 4141 1586 3887 
Q 1231 3634 1087 3207 
Q 944 2781 944 2328 
Q 944 1744 1114 1308 
Q 1284 872 1643 656 
Q 2003 441 2422 441 
Q 2931 441 3284 734 
Q 3638 1028 3763 1606 
z
" transform="scale(0.015625)"/>
        <path id="ArialMT-79" d="M 397 -1278 
L 334 -750 
Q 519 -800 656 -800 
Q 844 -800 956 -737 
Q 1069 -675 1141 -563 
Q 1194 -478 1313 -144 
Q 1328 -97 1363 -6 
L 103 3319 
L 709 3319 
L 1400 1397 
Q 1534 1031 1641 628 
Q 1738 1016 1872 1384 
L 2581 3319 
L 3144 3319 
L 1881 -56 
Q 1678 -603 1566 -809 
Q 1416 -1088 1222 -1217 
Q 1028 -1347 759 -1347 
Q 597 -1347 397 -1278 
z
" transform="scale(0.015625)"/>
       </defs>
       <use xlink:href="#ArialMT-43"/>
       <use xlink:href="#ArialMT-79" x="72.216797"/>
       <use xlink:href="#ArialMT-61" x="122.216797"/>
       <use xlink:href="#ArialMT-6e" x="177.832031"/>
       <use xlink:href="#ArialMT-6f" x="233.447266"/>
       <use xlink:href="#ArialMT-62" x="289.0625"/>
       <use xlink:href="#ArialMT-61" x="344.677734"/>
       <use xlink:href="#ArialMT-63" x="400.292969"/>
       <use xlink:href="#ArialMT-74" x="450.292969"/>
       <use xlink:href="#ArialMT-65" x="478.076172"/>
       <use xlink:href="#ArialMT-72" x="533.691406"/>
       <use xlink:href="#ArialMT-69" x="566.992188"/>
       <use xlink:href="#ArialMT-61" x="589.208984"/>
      </g>
     </g>
    </g>
    <g id="xtick_8">
     <g id="line2d_8">
      <g>
       <use xlink:href="#me0394166c5" x="685.4625" y="594" style="fill: #262626; stroke: #262626; stroke-width: 1.25"/>
      </g>
     </g>
     <g id="text_8">
      <!-- Campilobacterota -->
      <g style="fill: #262626" transform="translate(688.373203 689.705625) rotate(-90) scale(0.11 -0.11)">
       <defs>
        <path id="ArialMT-70" d="M 422 -1272 
L 422 3319 
L 934 3319 
L 934 2888 
Q 1116 3141 1344 3267 
Q 1572 3394 1897 3394 
Q 2322 3394 2647 3175 
Q 2972 2956 3137 2557 
Q 3303 2159 3303 1684 
Q 3303 1175 3120 767 
Q 2938 359 2589 142 
Q 2241 -75 1856 -75 
Q 1575 -75 1351 44 
Q 1128 163 984 344 
L 984 -1272 
L 422 -1272 
z
M 931 1641 
Q 931 1000 1190 694 
Q 1450 388 1819 388 
Q 2194 388 2461 705 
Q 2728 1022 2728 1688 
Q 2728 2322 2467 2637 
Q 2206 2953 1844 2953 
Q 1484 2953 1207 2617 
Q 931 2281 931 1641 
z
" transform="scale(0.015625)"/>
        <path id="ArialMT-6c" d="M 409 0 
L 409 4581 
L 972 4581 
L 972 0 
L 409 0 
z
" transform="scale(0.015625)"/>
       </defs>
       <use xlink:href="#ArialMT-43"/>
       <use xlink:href="#ArialMT-61" x="72.216797"/>
       <use xlink:href="#ArialMT-6d" x="127.832031"/>
       <use xlink:href="#ArialMT-70" x="211.132812"/>
       <use xlink:href="#ArialMT-69" x="266.748047"/>
       <use xlink:href="#ArialMT-6c" x="288.964844"/>
       <use xlink:href="#ArialMT-6f" x="311.181641"/>
       <use xlink:href="#ArialMT-62" x="366.796875"/>
       <use xlink:href="#ArialMT-61" x="422.412109"/>
       <use xlink:href="#ArialMT-63" x="478.027344"/>
       <use xlink:href="#ArialMT-74" x="528.027344"/>
       <use xlink:href="#ArialMT-65" x="555.810547"/>
       <use xlink:href="#ArialMT-72" x="611.425781"/>
       <use xlink:href="#ArialMT-6f" x="644.726562"/>
       <use xlink:href="#ArialMT-74" x="700.341797"/>
       <use xlink:href="#ArialMT-61" x="728.125"/>
      </g>
     </g>
    </g>
    <g id="xtick_9">
     <g id="line2d_9">
      <g>
       <use xlink:href="#me0394166c5" x="770.2575" y="594" style="fill: #262626; stroke: #262626; stroke-width: 1.25"/>
      </g>
     </g>
     <g id="text_9">
      <!-- Deferribacterota -->
      <g style="fill: #262626" transform="translate(773.101172 682.363125) rotate(-90) scale(0.11 -0.11)">
       <defs>
        <path id="ArialMT-44" d="M 494 0 
L 494 4581 
L 2072 4581 
Q 2606 4581 2888 4516 
Q 3281 4425 3559 4188 
Q 3922 3881 4101 3404 
Q 4281 2928 4281 2316 
Q 4281 1794 4159 1391 
Q 4038 988 3847 723 
Q 3656 459 3429 307 
Q 3203 156 2883 78 
Q 2563 0 2147 0 
L 494 0 
z
M 1100 541 
L 2078 541 
Q 2531 541 2789 625 
Q 3047 709 3200 863 
Q 3416 1078 3536 1442 
Q 3656 1806 3656 2325 
Q 3656 3044 3420 3430 
Q 3184 3816 2847 3947 
Q 2603 4041 2063 4041 
L 1100 4041 
L 1100 541 
z
" transform="scale(0.015625)"/>
        <path id="ArialMT-66" d="M 556 0 
L 556 2881 
L 59 2881 
L 59 3319 
L 556 3319 
L 556 3672 
Q 556 4006 616 4169 
Q 697 4388 901 4523 
Q 1106 4659 1475 4659 
Q 1713 4659 2000 4603 
L 1916 4113 
Q 1741 4144 1584 4144 
Q 1328 4144 1222 4034 
Q 1116 3925 1116 3625 
L 1116 3319 
L 1763 3319 
L 1763 2881 
L 1116 2881 
L 1116 0 
L 556 0 
z
" transform="scale(0.015625)"/>
       </defs>
       <use xlink:href="#ArialMT-44"/>
       <use xlink:href="#ArialMT-65" x="72.216797"/>
       <use xlink:href="#ArialMT-66" x="127.832031"/>
       <use xlink:href="#ArialMT-65" x="155.615234"/>
       <use xlink:href="#ArialMT-72" x="211.230469"/>
       <use xlink:href="#ArialMT-72" x="244.53125"/>
       <use xlink:href="#ArialMT-69" x="277.832031"/>
       <use xlink:href="#ArialMT-62" x="300.048828"/>
       <use xlink:href="#ArialMT-61" x="355.664062"/>
       <use xlink:href="#ArialMT-63" x="411.279297"/>
       <use xlink:href="#ArialMT-74" x="461.279297"/>
       <use xlink:href="#ArialMT-65" x="489.0625"/>
       <use xlink:href="#ArialMT-72" x="544.677734"/>
       <use xlink:href="#ArialMT-6f" x="577.978516"/>
       <use xlink:href="#ArialMT-74" x="633.59375"/>
       <use xlink:href="#ArialMT-61" x="661.376953"/>
      </g>
     </g>
    </g>
    <g id="xtick_10">
     <g id="line2d_10">
      <g>
       <use xlink:href="#me0394166c5" x="855.0525" y="594" style="fill: #262626; stroke: #262626; stroke-width: 1.25"/>
      </g>
     </g>
     <g id="text_10">
      <!-- Desulfobacterota -->
      <g style="fill: #262626" transform="translate(857.896172 686.654844) rotate(-90) scale(0.11 -0.11)">
       <use xlink:href="#ArialMT-44"/>
       <use xlink:href="#ArialMT-65" x="72.216797"/>
       <use xlink:href="#ArialMT-73" x="127.832031"/>
       <use xlink:href="#ArialMT-75" x="177.832031"/>
       <use xlink:href="#ArialMT-6c" x="233.447266"/>
       <use xlink:href="#ArialMT-66" x="255.664062"/>
       <use xlink:href="#ArialMT-6f" x="283.447266"/>
       <use xlink:href="#ArialMT-62" x="339.0625"/>
       <use xlink:href="#ArialMT-61" x="394.677734"/>
       <use xlink:href="#ArialMT-63" x="450.292969"/>
       <use xlink:href="#ArialMT-74" x="500.292969"/>
       <use xlink:href="#ArialMT-65" x="528.076172"/>
       <use xlink:href="#ArialMT-72" x="583.691406"/>
       <use xlink:href="#ArialMT-6f" x="616.992188"/>
       <use xlink:href="#ArialMT-74" x="672.607422"/>
       <use xlink:href="#ArialMT-61" x="700.390625"/>
      </g>
     </g>
    </g>
    <g id="xtick_11">
     <g id="line2d_11">
      <g>
       <use xlink:href="#me0394166c5" x="939.8475" y="594" style="fill: #262626; stroke: #262626; stroke-width: 1.25"/>
      </g>
     </g>
     <g id="text_11">
      <!-- Acidobacteriota -->
      <g style="fill: #262626" transform="translate(942.691172 679.319219) rotate(-90) scale(0.11 -0.11)">
       <use xlink:href="#ArialMT-41"/>
       <use xlink:href="#ArialMT-63" x="66.699219"/>
       <use xlink:href="#ArialMT-69" x="116.699219"/>
       <use xlink:href="#ArialMT-64" x="138.916016"/>
       <use xlink:href="#ArialMT-6f" x="194.53125"/>
       <use xlink:href="#ArialMT-62" x="250.146484"/>
       <use xlink:href="#ArialMT-61" x="305.761719"/>
       <use xlink:href="#ArialMT-63" x="361.376953"/>
       <use xlink:href="#ArialMT-74" x="411.376953"/>
       <use xlink:href="#ArialMT-65" x="439.160156"/>
       <use xlink:href="#ArialMT-72" x="494.775391"/>
       <use xlink:href="#ArialMT-69" x="528.076172"/>
       <use xlink:href="#ArialMT-6f" x="550.292969"/>
       <use xlink:href="#ArialMT-74" x="605.908203"/>
       <use xlink:href="#ArialMT-61" x="633.691406"/>
      </g>
     </g>
    </g>
    <g id="xtick_12">
     <g id="line2d_12">
      <g>
       <use xlink:href="#me0394166c5" x="1024.6425" y="594" style="fill: #262626; stroke: #262626; stroke-width: 1.25"/>
      </g>
     </g>
     <g id="text_12">
      <!-- Chloroflexi -->
      <g style="fill: #262626" transform="translate(1027.486172 655.462969) rotate(-90) scale(0.11 -0.11)">
       <defs>
        <path id="ArialMT-68" d="M 422 0 
L 422 4581 
L 984 4581 
L 984 2938 
Q 1378 3394 1978 3394 
Q 2347 3394 2619 3248 
Q 2891 3103 3008 2847 
Q 3125 2591 3125 2103 
L 3125 0 
L 2563 0 
L 2563 2103 
Q 2563 2525 2380 2717 
Q 2197 2909 1863 2909 
Q 1613 2909 1392 2779 
Q 1172 2650 1078 2428 
Q 984 2206 984 1816 
L 984 0 
L 422 0 
z
" transform="scale(0.015625)"/>
        <path id="ArialMT-78" d="M 47 0 
L 1259 1725 
L 138 3319 
L 841 3319 
L 1350 2541 
Q 1494 2319 1581 2169 
Q 1719 2375 1834 2534 
L 2394 3319 
L 3066 3319 
L 1919 1756 
L 3153 0 
L 2463 0 
L 1781 1031 
L 1600 1309 
L 728 0 
L 47 0 
z
" transform="scale(0.015625)"/>
       </defs>
       <use xlink:href="#ArialMT-43"/>
       <use xlink:href="#ArialMT-68" x="72.216797"/>
       <use xlink:href="#ArialMT-6c" x="127.832031"/>
       <use xlink:href="#ArialMT-6f" x="150.048828"/>
       <use xlink:href="#ArialMT-72" x="205.664062"/>
       <use xlink:href="#ArialMT-6f" x="238.964844"/>
       <use xlink:href="#ArialMT-66" x="294.580078"/>
       <use xlink:href="#ArialMT-6c" x="322.363281"/>
       <use xlink:href="#ArialMT-65" x="344.580078"/>
       <use xlink:href="#ArialMT-78" x="400.195312"/>
       <use xlink:href="#ArialMT-69" x="450.195312"/>
      </g>
     </g>
    </g>
    <g id="text_13">
     <!-- Taxonomy -->
     <g style="fill: #262626" transform="translate(530.92875 704.735625) scale(0.12 -0.12)">
      <defs>
       <path id="ArialMT-54" d="M 1659 0 
L 1659 4041 
L 150 4041 
L 150 4581 
L 3781 4581 
L 3781 4041 
L 2266 4041 
L 2266 0 
L 1659 0 
z
" transform="scale(0.015625)"/>
      </defs>
      <use xlink:href="#ArialMT-54"/>
      <use xlink:href="#ArialMT-61" x="49.958984"/>
      <use xlink:href="#ArialMT-78" x="105.574219"/>
      <use xlink:href="#ArialMT-6f" x="155.574219"/>
      <use xlink:href="#ArialMT-6e" x="211.189453"/>
      <use xlink:href="#ArialMT-6f" x="266.804688"/>
      <use xlink:href="#ArialMT-6d" x="322.419922"/>
      <use xlink:href="#ArialMT-79" x="405.720703"/>
     </g>
    </g>
   </g>
   <g id="matplotlib.axis_2">
    <g id="ytick_1">
     <g id="line2d_13">
      <defs>
       <path id="m2600332958" d="M 0 0 
L -6 0 
" style="stroke: #262626; stroke-width: 1.25"/>
      </defs>
      <g>
       <use xlink:href="#m2600332958" x="49.5" y="568.254545" style="fill: #262626; stroke: #262626; stroke-width: 1.25"/>
      </g>
     </g>
     <g id="text_14">
      <!-- 0 -->
      <g style="fill: #262626" transform="translate(33.882969 572.191342) scale(0.11 -0.11)">
       <defs>
        <path id="ArialMT-30" d="M 266 2259 
Q 266 3072 433 3567 
Q 600 4063 929 4331 
Q 1259 4600 1759 4600 
Q 2128 4600 2406 4451 
Q 2684 4303 2865 4023 
Q 3047 3744 3150 3342 
Q 3253 2941 3253 2259 
Q 3253 1453 3087 958 
Q 2922 463 2592 192 
Q 2263 -78 1759 -78 
Q 1097 -78 719 397 
Q 266 969 266 2259 
z
M 844 2259 
Q 844 1131 1108 757 
Q 1372 384 1759 384 
Q 2147 384 2411 759 
Q 2675 1134 2675 2259 
Q 2675 3391 2411 3762 
Q 2147 4134 1753 4134 
Q 1366 4134 1134 3806 
Q 844 3388 844 2259 
z
" transform="scale(0.015625)"/>
       </defs>
       <use xlink:href="#ArialMT-30"/>
      </g>
     </g>
    </g>
    <g id="ytick_2">
     <g id="line2d_14">
      <g>
       <use xlink:href="#m2600332958" x="49.5" y="483.700697" style="fill: #262626; stroke: #262626; stroke-width: 1.25"/>
      </g>
     </g>
     <g id="text_15">
      <!-- 2 -->
      <g style="fill: #262626" transform="translate(33.882969 487.637494) scale(0.11 -0.11)">
       <defs>
        <path id="ArialMT-32" d="M 3222 541 
L 3222 0 
L 194 0 
Q 188 203 259 391 
Q 375 700 629 1000 
Q 884 1300 1366 1694 
Q 2113 2306 2375 2664 
Q 2638 3022 2638 3341 
Q 2638 3675 2398 3904 
Q 2159 4134 1775 4134 
Q 1369 4134 1125 3890 
Q 881 3647 878 3216 
L 300 3275 
Q 359 3922 746 4261 
Q 1134 4600 1788 4600 
Q 2447 4600 2831 4234 
Q 3216 3869 3216 3328 
Q 3216 3053 3103 2787 
Q 2991 2522 2730 2228 
Q 2469 1934 1863 1422 
Q 1356 997 1212 845 
Q 1069 694 975 541 
L 3222 541 
z
" transform="scale(0.015625)"/>
       </defs>
       <use xlink:href="#ArialMT-32"/>
      </g>
     </g>
    </g>
    <g id="ytick_3">
     <g id="line2d_15">
      <g>
       <use xlink:href="#m2600332958" x="49.5" y="399.146849" style="fill: #262626; stroke: #262626; stroke-width: 1.25"/>
      </g>
     </g>
     <g id="text_16">
      <!-- 4 -->
      <g style="fill: #262626" transform="translate(33.882969 403.083646) scale(0.11 -0.11)">
       <defs>
        <path id="ArialMT-34" d="M 2069 0 
L 2069 1097 
L 81 1097 
L 81 1613 
L 2172 4581 
L 2631 4581 
L 2631 1613 
L 3250 1613 
L 3250 1097 
L 2631 1097 
L 2631 0 
L 2069 0 
z
M 2069 1613 
L 2069 3678 
L 634 1613 
L 2069 1613 
z
" transform="scale(0.015625)"/>
       </defs>
       <use xlink:href="#ArialMT-34"/>
      </g>
     </g>
    </g>
    <g id="ytick_4">
     <g id="line2d_16">
      <g>
       <use xlink:href="#m2600332958" x="49.5" y="314.593001" style="fill: #262626; stroke: #262626; stroke-width: 1.25"/>
      </g>
     </g>
     <g id="text_17">
      <!-- 6 -->
      <g style="fill: #262626" transform="translate(33.882969 318.529798) scale(0.11 -0.11)">
       <defs>
        <path id="ArialMT-36" d="M 3184 3459 
L 2625 3416 
Q 2550 3747 2413 3897 
Q 2184 4138 1850 4138 
Q 1581 4138 1378 3988 
Q 1113 3794 959 3422 
Q 806 3050 800 2363 
Q 1003 2672 1297 2822 
Q 1591 2972 1913 2972 
Q 2475 2972 2870 2558 
Q 3266 2144 3266 1488 
Q 3266 1056 3080 686 
Q 2894 316 2569 119 
Q 2244 -78 1831 -78 
Q 1128 -78 684 439 
Q 241 956 241 2144 
Q 241 3472 731 4075 
Q 1159 4600 1884 4600 
Q 2425 4600 2770 4297 
Q 3116 3994 3184 3459 
z
M 888 1484 
Q 888 1194 1011 928 
Q 1134 663 1356 523 
Q 1578 384 1822 384 
Q 2178 384 2434 671 
Q 2691 959 2691 1453 
Q 2691 1928 2437 2201 
Q 2184 2475 1800 2475 
Q 1419 2475 1153 2201 
Q 888 1928 888 1484 
z
" transform="scale(0.015625)"/>
       </defs>
       <use xlink:href="#ArialMT-36"/>
      </g>
     </g>
    </g>
    <g id="ytick_5">
     <g id="line2d_17">
      <g>
       <use xlink:href="#m2600332958" x="49.5" y="230.039153" style="fill: #262626; stroke: #262626; stroke-width: 1.25"/>
      </g>
     </g>
     <g id="text_18">
      <!-- 8 -->
      <g style="fill: #262626" transform="translate(33.882969 233.97595) scale(0.11 -0.11)">
       <defs>
        <path id="ArialMT-38" d="M 1131 2484 
Q 781 2613 612 2850 
Q 444 3088 444 3419 
Q 444 3919 803 4259 
Q 1163 4600 1759 4600 
Q 2359 4600 2725 4251 
Q 3091 3903 3091 3403 
Q 3091 3084 2923 2848 
Q 2756 2613 2416 2484 
Q 2838 2347 3058 2040 
Q 3278 1734 3278 1309 
Q 3278 722 2862 322 
Q 2447 -78 1769 -78 
Q 1091 -78 675 323 
Q 259 725 259 1325 
Q 259 1772 486 2073 
Q 713 2375 1131 2484 
z
M 1019 3438 
Q 1019 3113 1228 2906 
Q 1438 2700 1772 2700 
Q 2097 2700 2305 2904 
Q 2513 3109 2513 3406 
Q 2513 3716 2298 3927 
Q 2084 4138 1766 4138 
Q 1444 4138 1231 3931 
Q 1019 3725 1019 3438 
z
M 838 1322 
Q 838 1081 952 856 
Q 1066 631 1291 507 
Q 1516 384 1775 384 
Q 2178 384 2440 643 
Q 2703 903 2703 1303 
Q 2703 1709 2433 1975 
Q 2163 2241 1756 2241 
Q 1359 2241 1098 1978 
Q 838 1716 838 1322 
z
" transform="scale(0.015625)"/>
       </defs>
       <use xlink:href="#ArialMT-38"/>
      </g>
     </g>
    </g>
    <g id="ytick_6">
     <g id="line2d_18">
      <g>
       <use xlink:href="#m2600332958" x="49.5" y="145.485305" style="fill: #262626; stroke: #262626; stroke-width: 1.25"/>
      </g>
     </g>
     <g id="text_19">
      <!-- 10 -->
      <g style="fill: #262626" transform="translate(27.765938 149.422102) scale(0.11 -0.11)">
       <defs>
        <path id="ArialMT-31" d="M 2384 0 
L 1822 0 
L 1822 3584 
Q 1619 3391 1289 3197 
Q 959 3003 697 2906 
L 697 3450 
Q 1169 3672 1522 3987 
Q 1875 4303 2022 4600 
L 2384 4600 
L 2384 0 
z
" transform="scale(0.015625)"/>
       </defs>
       <use xlink:href="#ArialMT-31"/>
       <use xlink:href="#ArialMT-30" x="55.615234"/>
      </g>
     </g>
    </g>
    <g id="ytick_7">
     <g id="line2d_19">
      <g>
       <use xlink:href="#m2600332958" x="49.5" y="60.931458" style="fill: #262626; stroke: #262626; stroke-width: 1.25"/>
      </g>
     </g>
     <g id="text_20">
      <!-- 12 -->
      <g style="fill: #262626" transform="translate(27.765938 64.868254) scale(0.11 -0.11)">
       <use xlink:href="#ArialMT-31"/>
       <use xlink:href="#ArialMT-32" x="55.615234"/>
      </g>
     </g>
    </g>
    <g id="text_21">
     <!-- log(# of reads) -->
     <g style="fill: #262626" transform="translate(21.240313 349.483125) rotate(-90) scale(0.12 -0.12)">
      <defs>
       <path id="ArialMT-67" d="M 319 -275 
L 866 -356 
Q 900 -609 1056 -725 
Q 1266 -881 1628 -881 
Q 2019 -881 2231 -725 
Q 2444 -569 2519 -288 
Q 2563 -116 2559 434 
Q 2191 0 1641 0 
Q 956 0 581 494 
Q 206 988 206 1678 
Q 206 2153 378 2554 
Q 550 2956 876 3175 
Q 1203 3394 1644 3394 
Q 2231 3394 2613 2919 
L 2613 3319 
L 3131 3319 
L 3131 450 
Q 3131 -325 2973 -648 
Q 2816 -972 2473 -1159 
Q 2131 -1347 1631 -1347 
Q 1038 -1347 672 -1080 
Q 306 -813 319 -275 
z
M 784 1719 
Q 784 1066 1043 766 
Q 1303 466 1694 466 
Q 2081 466 2343 764 
Q 2606 1063 2606 1700 
Q 2606 2309 2336 2618 
Q 2066 2928 1684 2928 
Q 1309 2928 1046 2623 
Q 784 2319 784 1719 
z
" transform="scale(0.015625)"/>
       <path id="ArialMT-28" d="M 1497 -1347 
Q 1031 -759 709 28 
Q 388 816 388 1659 
Q 388 2403 628 3084 
Q 909 3875 1497 4659 
L 1900 4659 
Q 1522 4009 1400 3731 
Q 1209 3300 1100 2831 
Q 966 2247 966 1656 
Q 966 153 1900 -1347 
L 1497 -1347 
z
" transform="scale(0.015625)"/>
       <path id="ArialMT-23" d="M 322 -78 
L 594 1253 
L 66 1253 
L 66 1719 
L 688 1719 
L 919 2853 
L 66 2853 
L 66 3319 
L 1013 3319 
L 1284 4659 
L 1753 4659 
L 1481 3319 
L 2466 3319 
L 2738 4659 
L 3209 4659 
L 2938 3319 
L 3478 3319 
L 3478 2853 
L 2844 2853 
L 2609 1719 
L 3478 1719 
L 3478 1253 
L 2516 1253 
L 2244 -78 
L 1775 -78 
L 2044 1253 
L 1063 1253 
L 791 -78 
L 322 -78 
z
M 1156 1719 
L 2138 1719 
L 2372 2853 
L 1388 2853 
L 1156 1719 
z
" transform="scale(0.015625)"/>
       <path id="ArialMT-20" transform="scale(0.015625)"/>
       <path id="ArialMT-29" d="M 791 -1347 
L 388 -1347 
Q 1322 153 1322 1656 
Q 1322 2244 1188 2822 
Q 1081 3291 891 3722 
Q 769 4003 388 4659 
L 791 4659 
Q 1378 3875 1659 3084 
Q 1900 2403 1900 1659 
Q 1900 816 1576 28 
Q 1253 -759 791 -1347 
z
" transform="scale(0.015625)"/>
      </defs>
      <use xlink:href="#ArialMT-6c"/>
      <use xlink:href="#ArialMT-6f" x="22.216797"/>
      <use xlink:href="#ArialMT-67" x="77.832031"/>
      <use xlink:href="#ArialMT-28" x="133.447266"/>
      <use xlink:href="#ArialMT-23" x="166.748047"/>
      <use xlink:href="#ArialMT-20" x="222.363281"/>
      <use xlink:href="#ArialMT-6f" x="250.146484"/>
      <use xlink:href="#ArialMT-66" x="305.761719"/>
      <use xlink:href="#ArialMT-20" x="333.544922"/>
      <use xlink:href="#ArialMT-72" x="361.328125"/>
      <use xlink:href="#ArialMT-65" x="394.628906"/>
      <use xlink:href="#ArialMT-61" x="450.244141"/>
      <use xlink:href="#ArialMT-64" x="505.859375"/>
      <use xlink:href="#ArialMT-73" x="561.474609"/>
      <use xlink:href="#ArialMT-29" x="611.474609"/>
     </g>
    </g>
   </g>
   <g id="patch_3">
    <path d="M 58.31868 77.820454 
L 91.55832 77.820454 
L 91.55832 55.224946 
L 58.31868 55.224946 
L 58.31868 77.820454 
z
" clip-path="url(#p706e6b6ba7)" style="fill: #abc9ea; stroke: #737373; stroke-width: 1.5; stroke-linejoin: miter"/>
   </g>
   <g id="patch_4">
    <path d="M 92.23668 268.862421 
L 125.47632 268.862421 
L 125.47632 196.217504 
L 92.23668 196.217504 
L 92.23668 268.862421 
z
" clip-path="url(#p706e6b6ba7)" style="fill: #efb792; stroke: #737373; stroke-width: 1.5; stroke-linejoin: miter"/>
   </g>
   <g id="patch_5">
    <path d="M 143.11368 165.032984 
L 176.35332 165.032984 
L 176.35332 130.742577 
L 143.11368 130.742577 
L 143.11368 165.032984 
z
" clip-path="url(#p706e6b6ba7)" style="fill: #abc9ea; stroke: #737373; stroke-width: 1.5; stroke-linejoin: miter"/>
   </g>
   <g id="patch_6">
    <path d="M 177.03168 177.212242 
L 210.27132 177.212242 
L 210.27132 94.94738 
L 177.03168 94.94738 
L 177.03168 177.212242 
z
" clip-path="url(#p706e6b6ba7)" style="fill: #efb792; stroke: #737373; stroke-width: 1.5; stroke-linejoin: miter"/>
   </g>
   <g id="patch_7">
    <path d="M 227.90868 568.254545 
L 261.14832 568.254545 
L 261.14832 402.866246 
L 227.90868 402.866246 
L 227.90868 568.254545 
z
" clip-path="url(#p706e6b6ba7)" style="fill: #abc9ea; stroke: #737373; stroke-width: 1.5; stroke-linejoin: miter"/>
   </g>
   <g id="patch_8">
    <path d="M 261.82668 361.137209 
L 295.06632 361.137209 
L 295.06632 278.408327 
L 261.82668 278.408327 
L 261.82668 361.137209 
z
" clip-path="url(#p706e6b6ba7)" style="fill: #efb792; stroke: #737373; stroke-width: 1.5; stroke-linejoin: miter"/>
   </g>
   <g id="patch_9">
    <path d="M 312.70368 432.170377 
L 345.94332 432.170377 
L 345.94332 320.720115 
L 312.70368 320.720115 
L 312.70368 432.170377 
z
" clip-path="url(#p706e6b6ba7)" style="fill: #abc9ea; stroke: #737373; stroke-width: 1.5; stroke-linejoin: miter"/>
   </g>
   <g id="patch_10">
    <path d="M 346.62168 294.983664 
L 379.86132 294.983664 
L 379.86132 247.103736 
L 346.62168 247.103736 
L 346.62168 294.983664 
z
" clip-path="url(#p706e6b6ba7)" style="fill: #efb792; stroke: #737373; stroke-width: 1.5; stroke-linejoin: miter"/>
   </g>
   <g id="patch_11">
    <path d="M 397.49868 310.162666 
L 430.73832 310.162666 
L 430.73832 273.712605 
L 397.49868 273.712605 
L 397.49868 310.162666 
z
" clip-path="url(#p706e6b6ba7)" style="fill: #abc9ea; stroke: #737373; stroke-width: 1.5; stroke-linejoin: miter"/>
   </g>
   <g id="patch_12">
    <path d="M 431.41668 299.847021 
L 464.65632 299.847021 
L 464.65632 292.095116 
L 431.41668 292.095116 
L 431.41668 299.847021 
z
" clip-path="url(#p706e6b6ba7)" style="fill: #efb792; stroke: #737373; stroke-width: 1.5; stroke-linejoin: miter"/>
   </g>
   <g id="patch_13">
    <path d="M 482.29368 568.254545 
L 515.53332 568.254545 
L 515.53332 568.254545 
L 482.29368 568.254545 
L 482.29368 568.254545 
z
" clip-path="url(#p706e6b6ba7)" style="fill: #abc9ea; stroke: #737373; stroke-width: 1.5; stroke-linejoin: miter"/>
   </g>
   <g id="patch_14">
    <path d="M 516.21168 416.048637 
L 549.45132 416.048637 
L 549.45132 310.165299 
L 516.21168 310.165299 
L 516.21168 416.048637 
z
" clip-path="url(#p706e6b6ba7)" style="fill: #efb792; stroke: #737373; stroke-width: 1.5; stroke-linejoin: miter"/>
   </g>
   <g id="patch_15">
    <path d="M 567.08868 568.254545 
L 600.32832 568.254545 
L 600.32832 398.075058 
L 567.08868 398.075058 
L 567.08868 568.254545 
z
" clip-path="url(#p706e6b6ba7)" style="fill: #abc9ea; stroke: #737373; stroke-width: 1.5; stroke-linejoin: miter"/>
   </g>
   <g id="patch_16">
    <path d="M 601.00668 568.254545 
L 634.24632 568.254545 
L 634.24632 475.362649 
L 601.00668 475.362649 
L 601.00668 568.254545 
z
" clip-path="url(#p706e6b6ba7)" style="fill: #efb792; stroke: #737373; stroke-width: 1.5; stroke-linejoin: miter"/>
   </g>
   <g id="patch_17">
    <path d="M 651.88368 568.254545 
L 685.12332 568.254545 
L 685.12332 568.254545 
L 651.88368 568.254545 
L 651.88368 568.254545 
z
" clip-path="url(#p706e6b6ba7)" style="fill: #abc9ea; stroke: #737373; stroke-width: 1.5; stroke-linejoin: miter"/>
   </g>
   <g id="patch_18">
    <path d="M 685.80168 568.254545 
L 719.04132 568.254545 
L 719.04132 568.254545 
L 685.80168 568.254545 
L 685.80168 568.254545 
z
" clip-path="url(#p706e6b6ba7)" style="fill: #efb792; stroke: #737373; stroke-width: 1.5; stroke-linejoin: miter"/>
   </g>
   <g id="patch_19">
    <path d="M 736.67868 568.254545 
L 769.91832 568.254545 
L 769.91832 568.254545 
L 736.67868 568.254545 
L 736.67868 568.254545 
z
" clip-path="url(#p706e6b6ba7)" style="fill: #abc9ea; stroke: #737373; stroke-width: 1.5; stroke-linejoin: miter"/>
   </g>
   <g id="patch_20">
    <path d="M 770.59668 568.254545 
L 803.83632 568.254545 
L 803.83632 568.254545 
L 770.59668 568.254545 
L 770.59668 568.254545 
z
" clip-path="url(#p706e6b6ba7)" style="fill: #efb792; stroke: #737373; stroke-width: 1.5; stroke-linejoin: miter"/>
   </g>
   <g id="patch_21">
    <path d="M 855.39168 568.254545 
L 888.63132 568.254545 
L 888.63132 451.203815 
L 855.39168 451.203815 
L 855.39168 568.254545 
z
" clip-path="url(#p706e6b6ba7)" style="fill: #efb792; stroke: #737373; stroke-width: 1.5; stroke-linejoin: miter"/>
   </g>
   <g id="patch_22">
    <path d="M 940.18668 568.254545 
L 973.42632 568.254545 
L 973.42632 568.254545 
L 940.18668 568.254545 
L 940.18668 568.254545 
z
" clip-path="url(#p706e6b6ba7)" style="fill: #efb792; stroke: #737373; stroke-width: 1.5; stroke-linejoin: miter"/>
   </g>
   <g id="patch_23">
    <path d="M 1024.98168 568.254545 
L 1058.22132 568.254545 
L 1058.22132 568.254545 
L 1024.98168 568.254545 
L 1024.98168 568.254545 
z
" clip-path="url(#p706e6b6ba7)" style="fill: #efb792; stroke: #737373; stroke-width: 1.5; stroke-linejoin: miter"/>
   </g>
   <g id="patch_24">
    <path d="M 91.8975 568.254545 
L 91.8975 568.254545 
L 91.8975 568.254545 
L 91.8975 568.254545 
z
" clip-path="url(#p706e6b6ba7)" style="fill: #abc9ea; stroke: #737373; stroke-width: 0.75; stroke-linejoin: miter"/>
   </g>
   <g id="patch_25">
    <path d="M 91.8975 568.254545 
L 91.8975 568.254545 
L 91.8975 568.254545 
L 91.8975 568.254545 
z
" clip-path="url(#p706e6b6ba7)" style="fill: #efb792; stroke: #737373; stroke-width: 0.75; stroke-linejoin: miter"/>
   </g>
   <g id="line2d_20">
    <path d="M 74.9385 77.820454 
L 74.9385 108.099375 
" clip-path="url(#p706e6b6ba7)" style="fill: none; stroke: #737373; stroke-width: 1.5; stroke-linecap: round"/>
   </g>
   <g id="line2d_21">
    <path d="M 74.9385 55.224946 
L 74.9385 53.345455 
" clip-path="url(#p706e6b6ba7)" style="fill: none; stroke: #737373; stroke-width: 1.5; stroke-linecap: round"/>
   </g>
   <g id="line2d_22">
    <path d="M 66.62859 108.099375 
L 83.24841 108.099375 
" clip-path="url(#p706e6b6ba7)" style="fill: none; stroke: #737373; stroke-width: 1.5; stroke-linecap: round"/>
   </g>
   <g id="line2d_23">
    <path d="M 66.62859 53.345455 
L 83.24841 53.345455 
" clip-path="url(#p706e6b6ba7)" style="fill: none; stroke: #737373; stroke-width: 1.5; stroke-linecap: round"/>
   </g>
   <g id="line2d_24"/>
   <g id="line2d_25">
    <path d="M 108.8565 268.862421 
L 108.8565 334.487292 
" clip-path="url(#p706e6b6ba7)" style="fill: none; stroke: #737373; stroke-width: 1.5; stroke-linecap: round"/>
   </g>
   <g id="line2d_26">
    <path d="M 108.8565 196.217504 
L 108.8565 119.761299 
" clip-path="url(#p706e6b6ba7)" style="fill: none; stroke: #737373; stroke-width: 1.5; stroke-linecap: round"/>
   </g>
   <g id="line2d_27">
    <path d="M 100.54659 334.487292 
L 117.16641 334.487292 
" clip-path="url(#p706e6b6ba7)" style="fill: none; stroke: #737373; stroke-width: 1.5; stroke-linecap: round"/>
   </g>
   <g id="line2d_28">
    <path d="M 100.54659 119.761299 
L 117.16641 119.761299 
" clip-path="url(#p706e6b6ba7)" style="fill: none; stroke: #737373; stroke-width: 1.5; stroke-linecap: round"/>
   </g>
   <g id="line2d_29"/>
   <g id="line2d_30">
    <path d="M 159.7335 165.032984 
L 159.7335 178.240241 
" clip-path="url(#p706e6b6ba7)" style="fill: none; stroke: #737373; stroke-width: 1.5; stroke-linecap: round"/>
   </g>
   <g id="line2d_31">
    <path d="M 159.7335 130.742577 
L 159.7335 96.442242 
" clip-path="url(#p706e6b6ba7)" style="fill: none; stroke: #737373; stroke-width: 1.5; stroke-linecap: round"/>
   </g>
   <g id="line2d_32">
    <path d="M 151.42359 178.240241 
L 168.04341 178.240241 
" clip-path="url(#p706e6b6ba7)" style="fill: none; stroke: #737373; stroke-width: 1.5; stroke-linecap: round"/>
   </g>
   <g id="line2d_33">
    <path d="M 151.42359 96.442242 
L 168.04341 96.442242 
" clip-path="url(#p706e6b6ba7)" style="fill: none; stroke: #737373; stroke-width: 1.5; stroke-linecap: round"/>
   </g>
   <g id="line2d_34"/>
   <g id="line2d_35">
    <path d="M 193.6515 177.212242 
L 193.6515 248.946997 
" clip-path="url(#p706e6b6ba7)" style="fill: none; stroke: #737373; stroke-width: 1.5; stroke-linecap: round"/>
   </g>
   <g id="line2d_36">
    <path d="M 193.6515 94.94738 
L 193.6515 76.696061 
" clip-path="url(#p706e6b6ba7)" style="fill: none; stroke: #737373; stroke-width: 1.5; stroke-linecap: round"/>
   </g>
   <g id="line2d_37">
    <path d="M 185.34159 248.946997 
L 201.96141 248.946997 
" clip-path="url(#p706e6b6ba7)" style="fill: none; stroke: #737373; stroke-width: 1.5; stroke-linecap: round"/>
   </g>
   <g id="line2d_38">
    <path d="M 185.34159 76.696061 
L 201.96141 76.696061 
" clip-path="url(#p706e6b6ba7)" style="fill: none; stroke: #737373; stroke-width: 1.5; stroke-linecap: round"/>
   </g>
   <g id="line2d_39"/>
   <g id="line2d_40">
    <path d="M 244.5285 568.254545 
L 244.5285 568.254545 
" clip-path="url(#p706e6b6ba7)" style="fill: none; stroke: #737373; stroke-width: 1.5; stroke-linecap: round"/>
   </g>
   <g id="line2d_41">
    <path d="M 244.5285 402.866246 
L 244.5285 402.866246 
" clip-path="url(#p706e6b6ba7)" style="fill: none; stroke: #737373; stroke-width: 1.5; stroke-linecap: round"/>
   </g>
   <g id="line2d_42">
    <path d="M 236.21859 568.254545 
L 252.83841 568.254545 
" clip-path="url(#p706e6b6ba7)" style="fill: none; stroke: #737373; stroke-width: 1.5; stroke-linecap: round"/>
   </g>
   <g id="line2d_43">
    <path d="M 236.21859 402.866246 
L 252.83841 402.866246 
" clip-path="url(#p706e6b6ba7)" style="fill: none; stroke: #737373; stroke-width: 1.5; stroke-linecap: round"/>
   </g>
   <g id="line2d_44">
    <defs>
     <path id="m10fdfcb983" d="M -0 3.535534 
L 2.12132 0 
L -0 -3.535534 
L -2.12132 -0 
z
" style="stroke: #737373; stroke-linejoin: miter"/>
    </defs>
    <g clip-path="url(#p706e6b6ba7)">
     <use xlink:href="#m10fdfcb983" x="244.5285" y="129.815643" style="fill: #737373; stroke: #737373; stroke-linejoin: miter"/>
    </g>
   </g>
   <g id="line2d_45">
    <path d="M 278.4465 361.137209 
L 278.4465 448.475 
" clip-path="url(#p706e6b6ba7)" style="fill: none; stroke: #737373; stroke-width: 1.5; stroke-linecap: round"/>
   </g>
   <g id="line2d_46">
    <path d="M 278.4465 278.408327 
L 278.4465 165.458743 
" clip-path="url(#p706e6b6ba7)" style="fill: none; stroke: #737373; stroke-width: 1.5; stroke-linecap: round"/>
   </g>
   <g id="line2d_47">
    <path d="M 270.13659 448.475 
L 286.75641 448.475 
" clip-path="url(#p706e6b6ba7)" style="fill: none; stroke: #737373; stroke-width: 1.5; stroke-linecap: round"/>
   </g>
   <g id="line2d_48">
    <path d="M 270.13659 165.458743 
L 286.75641 165.458743 
" clip-path="url(#p706e6b6ba7)" style="fill: none; stroke: #737373; stroke-width: 1.5; stroke-linecap: round"/>
   </g>
   <g id="line2d_49"/>
   <g id="line2d_50">
    <path d="M 329.3235 432.170377 
L 329.3235 456.683319 
" clip-path="url(#p706e6b6ba7)" style="fill: none; stroke: #737373; stroke-width: 1.5; stroke-linecap: round"/>
   </g>
   <g id="line2d_51">
    <path d="M 329.3235 320.720115 
L 329.3235 254.408907 
" clip-path="url(#p706e6b6ba7)" style="fill: none; stroke: #737373; stroke-width: 1.5; stroke-linecap: round"/>
   </g>
   <g id="line2d_52">
    <path d="M 321.01359 456.683319 
L 337.63341 456.683319 
" clip-path="url(#p706e6b6ba7)" style="fill: none; stroke: #737373; stroke-width: 1.5; stroke-linecap: round"/>
   </g>
   <g id="line2d_53">
    <path d="M 321.01359 254.408907 
L 337.63341 254.408907 
" clip-path="url(#p706e6b6ba7)" style="fill: none; stroke: #737373; stroke-width: 1.5; stroke-linecap: round"/>
   </g>
   <g id="line2d_54"/>
   <g id="line2d_55">
    <path d="M 363.2415 294.983664 
L 363.2415 317.122377 
" clip-path="url(#p706e6b6ba7)" style="fill: none; stroke: #737373; stroke-width: 1.5; stroke-linecap: round"/>
   </g>
   <g id="line2d_56">
    <path d="M 363.2415 247.103736 
L 363.2415 240.637029 
" clip-path="url(#p706e6b6ba7)" style="fill: none; stroke: #737373; stroke-width: 1.5; stroke-linecap: round"/>
   </g>
   <g id="line2d_57">
    <path d="M 354.93159 317.122377 
L 371.55141 317.122377 
" clip-path="url(#p706e6b6ba7)" style="fill: none; stroke: #737373; stroke-width: 1.5; stroke-linecap: round"/>
   </g>
   <g id="line2d_58">
    <path d="M 354.93159 240.637029 
L 371.55141 240.637029 
" clip-path="url(#p706e6b6ba7)" style="fill: none; stroke: #737373; stroke-width: 1.5; stroke-linecap: round"/>
   </g>
   <g id="line2d_59">
    <g clip-path="url(#p706e6b6ba7)">
     <use xlink:href="#m10fdfcb983" x="363.2415" y="369.918788" style="fill: #737373; stroke: #737373; stroke-linejoin: miter"/>
    </g>
   </g>
   <g id="line2d_60">
    <path d="M 414.1185 310.162666 
L 414.1185 348.94783 
" clip-path="url(#p706e6b6ba7)" style="fill: none; stroke: #737373; stroke-width: 1.5; stroke-linecap: round"/>
   </g>
   <g id="line2d_61">
    <path d="M 414.1185 273.712605 
L 414.1185 225.702115 
" clip-path="url(#p706e6b6ba7)" style="fill: none; stroke: #737373; stroke-width: 1.5; stroke-linecap: round"/>
   </g>
   <g id="line2d_62">
    <path d="M 405.80859 348.94783 
L 422.42841 348.94783 
" clip-path="url(#p706e6b6ba7)" style="fill: none; stroke: #737373; stroke-width: 1.5; stroke-linecap: round"/>
   </g>
   <g id="line2d_63">
    <path d="M 405.80859 225.702115 
L 422.42841 225.702115 
" clip-path="url(#p706e6b6ba7)" style="fill: none; stroke: #737373; stroke-width: 1.5; stroke-linecap: round"/>
   </g>
   <g id="line2d_64"/>
   <g id="line2d_65">
    <path d="M 448.0365 299.847021 
L 448.0365 300.955935 
" clip-path="url(#p706e6b6ba7)" style="fill: none; stroke: #737373; stroke-width: 1.5; stroke-linecap: round"/>
   </g>
   <g id="line2d_66">
    <path d="M 448.0365 292.095116 
L 448.0365 291.29502 
" clip-path="url(#p706e6b6ba7)" style="fill: none; stroke: #737373; stroke-width: 1.5; stroke-linecap: round"/>
   </g>
   <g id="line2d_67">
    <path d="M 439.72659 300.955935 
L 456.34641 300.955935 
" clip-path="url(#p706e6b6ba7)" style="fill: none; stroke: #737373; stroke-width: 1.5; stroke-linecap: round"/>
   </g>
   <g id="line2d_68">
    <path d="M 439.72659 291.29502 
L 456.34641 291.29502 
" clip-path="url(#p706e6b6ba7)" style="fill: none; stroke: #737373; stroke-width: 1.5; stroke-linecap: round"/>
   </g>
   <g id="line2d_69">
    <g clip-path="url(#p706e6b6ba7)">
     <use xlink:href="#m10fdfcb983" x="448.0365" y="348.013495" style="fill: #737373; stroke: #737373; stroke-linejoin: miter"/>
     <use xlink:href="#m10fdfcb983" x="448.0365" y="269.977621" style="fill: #737373; stroke: #737373; stroke-linejoin: miter"/>
    </g>
   </g>
   <g id="line2d_70">
    <path d="M 498.9135 568.254545 
L 498.9135 568.254545 
" clip-path="url(#p706e6b6ba7)" style="fill: none; stroke: #737373; stroke-width: 1.5; stroke-linecap: round"/>
   </g>
   <g id="line2d_71">
    <path d="M 498.9135 568.254545 
L 498.9135 568.254545 
" clip-path="url(#p706e6b6ba7)" style="fill: none; stroke: #737373; stroke-width: 1.5; stroke-linecap: round"/>
   </g>
   <g id="line2d_72">
    <path d="M 490.60359 568.254545 
L 507.22341 568.254545 
" clip-path="url(#p706e6b6ba7)" style="fill: none; stroke: #737373; stroke-width: 1.5; stroke-linecap: round"/>
   </g>
   <g id="line2d_73">
    <path d="M 490.60359 568.254545 
L 507.22341 568.254545 
" clip-path="url(#p706e6b6ba7)" style="fill: none; stroke: #737373; stroke-width: 1.5; stroke-linecap: round"/>
   </g>
   <g id="line2d_74">
    <g clip-path="url(#p706e6b6ba7)">
     <use xlink:href="#m10fdfcb983" x="498.9135" y="350.145557" style="fill: #737373; stroke: #737373; stroke-linejoin: miter"/>
    </g>
   </g>
   <g id="line2d_75">
    <path d="M 532.8315 416.048637 
L 532.8315 568.254545 
" clip-path="url(#p706e6b6ba7)" style="fill: none; stroke: #737373; stroke-width: 1.5; stroke-linecap: round"/>
   </g>
   <g id="line2d_76">
    <path d="M 532.8315 310.165299 
L 532.8315 305.60467 
" clip-path="url(#p706e6b6ba7)" style="fill: none; stroke: #737373; stroke-width: 1.5; stroke-linecap: round"/>
   </g>
   <g id="line2d_77">
    <path d="M 524.52159 568.254545 
L 541.14141 568.254545 
" clip-path="url(#p706e6b6ba7)" style="fill: none; stroke: #737373; stroke-width: 1.5; stroke-linecap: round"/>
   </g>
   <g id="line2d_78">
    <path d="M 524.52159 305.60467 
L 541.14141 305.60467 
" clip-path="url(#p706e6b6ba7)" style="fill: none; stroke: #737373; stroke-width: 1.5; stroke-linecap: round"/>
   </g>
   <g id="line2d_79"/>
   <g id="line2d_80">
    <path d="M 583.7085 568.254545 
L 583.7085 568.254545 
" clip-path="url(#p706e6b6ba7)" style="fill: none; stroke: #737373; stroke-width: 1.5; stroke-linecap: round"/>
   </g>
   <g id="line2d_81">
    <path d="M 583.7085 398.075058 
L 583.7085 391.12883 
" clip-path="url(#p706e6b6ba7)" style="fill: none; stroke: #737373; stroke-width: 1.5; stroke-linecap: round"/>
   </g>
   <g id="line2d_82">
    <path d="M 575.39859 568.254545 
L 592.01841 568.254545 
" clip-path="url(#p706e6b6ba7)" style="fill: none; stroke: #737373; stroke-width: 1.5; stroke-linecap: round"/>
   </g>
   <g id="line2d_83">
    <path d="M 575.39859 391.12883 
L 592.01841 391.12883 
" clip-path="url(#p706e6b6ba7)" style="fill: none; stroke: #737373; stroke-width: 1.5; stroke-linecap: round"/>
   </g>
   <g id="line2d_84"/>
   <g id="line2d_85">
    <path d="M 617.6265 568.254545 
L 617.6265 568.254545 
" clip-path="url(#p706e6b6ba7)" style="fill: none; stroke: #737373; stroke-width: 1.5; stroke-linecap: round"/>
   </g>
   <g id="line2d_86">
    <path d="M 617.6265 475.362649 
L 617.6265 386.291913 
" clip-path="url(#p706e6b6ba7)" style="fill: none; stroke: #737373; stroke-width: 1.5; stroke-linecap: round"/>
   </g>
   <g id="line2d_87">
    <path d="M 609.31659 568.254545 
L 625.93641 568.254545 
" clip-path="url(#p706e6b6ba7)" style="fill: none; stroke: #737373; stroke-width: 1.5; stroke-linecap: round"/>
   </g>
   <g id="line2d_88">
    <path d="M 609.31659 386.291913 
L 625.93641 386.291913 
" clip-path="url(#p706e6b6ba7)" style="fill: none; stroke: #737373; stroke-width: 1.5; stroke-linecap: round"/>
   </g>
   <g id="line2d_89"/>
   <g id="line2d_90">
    <path d="M 668.5035 568.254545 
L 668.5035 568.254545 
" clip-path="url(#p706e6b6ba7)" style="fill: none; stroke: #737373; stroke-width: 1.5; stroke-linecap: round"/>
   </g>
   <g id="line2d_91">
    <path d="M 668.5035 568.254545 
L 668.5035 568.254545 
" clip-path="url(#p706e6b6ba7)" style="fill: none; stroke: #737373; stroke-width: 1.5; stroke-linecap: round"/>
   </g>
   <g id="line2d_92">
    <path d="M 660.19359 568.254545 
L 676.81341 568.254545 
" clip-path="url(#p706e6b6ba7)" style="fill: none; stroke: #737373; stroke-width: 1.5; stroke-linecap: round"/>
   </g>
   <g id="line2d_93">
    <path d="M 660.19359 568.254545 
L 676.81341 568.254545 
" clip-path="url(#p706e6b6ba7)" style="fill: none; stroke: #737373; stroke-width: 1.5; stroke-linecap: round"/>
   </g>
   <g id="line2d_94">
    <g clip-path="url(#p706e6b6ba7)">
     <use xlink:href="#m10fdfcb983" x="668.5035" y="480.342153" style="fill: #737373; stroke: #737373; stroke-linejoin: miter"/>
    </g>
   </g>
   <g id="line2d_95">
    <path d="M 702.4215 568.254545 
L 702.4215 568.254545 
" clip-path="url(#p706e6b6ba7)" style="fill: none; stroke: #737373; stroke-width: 1.5; stroke-linecap: round"/>
   </g>
   <g id="line2d_96">
    <path d="M 702.4215 568.254545 
L 702.4215 568.254545 
" clip-path="url(#p706e6b6ba7)" style="fill: none; stroke: #737373; stroke-width: 1.5; stroke-linecap: round"/>
   </g>
   <g id="line2d_97">
    <path d="M 694.11159 568.254545 
L 710.73141 568.254545 
" clip-path="url(#p706e6b6ba7)" style="fill: none; stroke: #737373; stroke-width: 1.5; stroke-linecap: round"/>
   </g>
   <g id="line2d_98">
    <path d="M 694.11159 568.254545 
L 710.73141 568.254545 
" clip-path="url(#p706e6b6ba7)" style="fill: none; stroke: #737373; stroke-width: 1.5; stroke-linecap: round"/>
   </g>
   <g id="line2d_99">
    <g clip-path="url(#p706e6b6ba7)">
     <use xlink:href="#m10fdfcb983" x="702.4215" y="363.125631" style="fill: #737373; stroke: #737373; stroke-linejoin: miter"/>
    </g>
   </g>
   <g id="line2d_100">
    <path d="M 753.2985 568.254545 
L 753.2985 568.254545 
" clip-path="url(#p706e6b6ba7)" style="fill: none; stroke: #737373; stroke-width: 1.5; stroke-linecap: round"/>
   </g>
   <g id="line2d_101">
    <path d="M 753.2985 568.254545 
L 753.2985 568.254545 
" clip-path="url(#p706e6b6ba7)" style="fill: none; stroke: #737373; stroke-width: 1.5; stroke-linecap: round"/>
   </g>
   <g id="line2d_102">
    <path d="M 744.98859 568.254545 
L 761.60841 568.254545 
" clip-path="url(#p706e6b6ba7)" style="fill: none; stroke: #737373; stroke-width: 1.5; stroke-linecap: round"/>
   </g>
   <g id="line2d_103">
    <path d="M 744.98859 568.254545 
L 761.60841 568.254545 
" clip-path="url(#p706e6b6ba7)" style="fill: none; stroke: #737373; stroke-width: 1.5; stroke-linecap: round"/>
   </g>
   <g id="line2d_104">
    <g clip-path="url(#p706e6b6ba7)">
     <use xlink:href="#m10fdfcb983" x="753.2985" y="448.475" style="fill: #737373; stroke: #737373; stroke-linejoin: miter"/>
    </g>
   </g>
   <g id="line2d_105">
    <path d="M 787.2165 568.254545 
L 787.2165 568.254545 
" clip-path="url(#p706e6b6ba7)" style="fill: none; stroke: #737373; stroke-width: 1.5; stroke-linecap: round"/>
   </g>
   <g id="line2d_106">
    <path d="M 787.2165 568.254545 
L 787.2165 568.254545 
" clip-path="url(#p706e6b6ba7)" style="fill: none; stroke: #737373; stroke-width: 1.5; stroke-linecap: round"/>
   </g>
   <g id="line2d_107">
    <path d="M 778.90659 568.254545 
L 795.52641 568.254545 
" clip-path="url(#p706e6b6ba7)" style="fill: none; stroke: #737373; stroke-width: 1.5; stroke-linecap: round"/>
   </g>
   <g id="line2d_108">
    <path d="M 778.90659 568.254545 
L 795.52641 568.254545 
" clip-path="url(#p706e6b6ba7)" style="fill: none; stroke: #737373; stroke-width: 1.5; stroke-linecap: round"/>
   </g>
   <g id="line2d_109">
    <g clip-path="url(#p706e6b6ba7)">
     <use xlink:href="#m10fdfcb983" x="787.2165" y="433.896205" style="fill: #737373; stroke: #737373; stroke-linejoin: miter"/>
    </g>
   </g>
   <g id="line2d_110">
    <path d="M 872.0115 568.254545 
L 872.0115 568.254545 
" clip-path="url(#p706e6b6ba7)" style="fill: none; stroke: #737373; stroke-width: 1.5; stroke-linecap: round"/>
   </g>
   <g id="line2d_111">
    <path d="M 872.0115 451.203815 
L 872.0115 293.527165 
" clip-path="url(#p706e6b6ba7)" style="fill: none; stroke: #737373; stroke-width: 1.5; stroke-linecap: round"/>
   </g>
   <g id="line2d_112">
    <path d="M 863.70159 568.254545 
L 880.32141 568.254545 
" clip-path="url(#p706e6b6ba7)" style="fill: none; stroke: #737373; stroke-width: 1.5; stroke-linecap: round"/>
   </g>
   <g id="line2d_113">
    <path d="M 863.70159 293.527165 
L 880.32141 293.527165 
" clip-path="url(#p706e6b6ba7)" style="fill: none; stroke: #737373; stroke-width: 1.5; stroke-linecap: round"/>
   </g>
   <g id="line2d_114"/>
   <g id="line2d_115">
    <path d="M 956.8065 568.254545 
L 956.8065 568.254545 
" clip-path="url(#p706e6b6ba7)" style="fill: none; stroke: #737373; stroke-width: 1.5; stroke-linecap: round"/>
   </g>
   <g id="line2d_116">
    <path d="M 956.8065 568.254545 
L 956.8065 568.254545 
" clip-path="url(#p706e6b6ba7)" style="fill: none; stroke: #737373; stroke-width: 1.5; stroke-linecap: round"/>
   </g>
   <g id="line2d_117">
    <path d="M 948.49659 568.254545 
L 965.11641 568.254545 
" clip-path="url(#p706e6b6ba7)" style="fill: none; stroke: #737373; stroke-width: 1.5; stroke-linecap: round"/>
   </g>
   <g id="line2d_118">
    <path d="M 948.49659 568.254545 
L 965.11641 568.254545 
" clip-path="url(#p706e6b6ba7)" style="fill: none; stroke: #737373; stroke-width: 1.5; stroke-linecap: round"/>
   </g>
   <g id="line2d_119">
    <g clip-path="url(#p706e6b6ba7)">
     <use xlink:href="#m10fdfcb983" x="956.8065" y="459.816376" style="fill: #737373; stroke: #737373; stroke-linejoin: miter"/>
    </g>
   </g>
   <g id="line2d_120">
    <path d="M 1041.6015 568.254545 
L 1041.6015 568.254545 
" clip-path="url(#p706e6b6ba7)" style="fill: none; stroke: #737373; stroke-width: 1.5; stroke-linecap: round"/>
   </g>
   <g id="line2d_121">
    <path d="M 1041.6015 568.254545 
L 1041.6015 568.254545 
" clip-path="url(#p706e6b6ba7)" style="fill: none; stroke: #737373; stroke-width: 1.5; stroke-linecap: round"/>
   </g>
   <g id="line2d_122">
    <path d="M 1033.29159 568.254545 
L 1049.91141 568.254545 
" clip-path="url(#p706e6b6ba7)" style="fill: none; stroke: #737373; stroke-width: 1.5; stroke-linecap: round"/>
   </g>
   <g id="line2d_123">
    <path d="M 1033.29159 568.254545 
L 1049.91141 568.254545 
" clip-path="url(#p706e6b6ba7)" style="fill: none; stroke: #737373; stroke-width: 1.5; stroke-linecap: round"/>
   </g>
   <g id="line2d_124">
    <g clip-path="url(#p706e6b6ba7)">
     <use xlink:href="#m10fdfcb983" x="1041.6015" y="475.362649" style="fill: #737373; stroke: #737373; stroke-linejoin: miter"/>
    </g>
   </g>
   <g id="line2d_125">
    <path d="M 58.31868 70.188312 
L 91.55832 70.188312 
" clip-path="url(#p706e6b6ba7)" style="fill: none; stroke: #737373; stroke-width: 1.5; stroke-linecap: round"/>
   </g>
   <g id="line2d_126">
    <path d="M 92.23668 235.950099 
L 125.47632 235.950099 
" clip-path="url(#p706e6b6ba7)" style="fill: none; stroke: #737373; stroke-width: 1.5; stroke-linecap: round"/>
   </g>
   <g id="line2d_127">
    <path d="M 143.11368 158.717592 
L 176.35332 158.717592 
" clip-path="url(#p706e6b6ba7)" style="fill: none; stroke: #737373; stroke-width: 1.5; stroke-linecap: round"/>
   </g>
   <g id="line2d_128">
    <path d="M 177.03168 113.308792 
L 210.27132 113.308792 
" clip-path="url(#p706e6b6ba7)" style="fill: none; stroke: #737373; stroke-width: 1.5; stroke-linecap: round"/>
   </g>
   <g id="line2d_129">
    <path d="M 227.90868 485.98745 
L 261.14832 485.98745 
" clip-path="url(#p706e6b6ba7)" style="fill: none; stroke: #737373; stroke-width: 1.5; stroke-linecap: round"/>
   </g>
   <g id="line2d_130">
    <path d="M 261.82668 314.11666 
L 295.06632 314.11666 
" clip-path="url(#p706e6b6ba7)" style="fill: none; stroke: #737373; stroke-width: 1.5; stroke-linecap: round"/>
   </g>
   <g id="line2d_131">
    <path d="M 312.70368 389.866739 
L 345.94332 389.866739 
" clip-path="url(#p706e6b6ba7)" style="fill: none; stroke: #737373; stroke-width: 1.5; stroke-linecap: round"/>
   </g>
   <g id="line2d_132">
    <path d="M 346.62168 267.189897 
L 379.86132 267.189897 
" clip-path="url(#p706e6b6ba7)" style="fill: none; stroke: #737373; stroke-width: 1.5; stroke-linecap: round"/>
   </g>
   <g id="line2d_133">
    <path d="M 397.49868 287.485792 
L 430.73832 287.485792 
" clip-path="url(#p706e6b6ba7)" style="fill: none; stroke: #737373; stroke-width: 1.5; stroke-linecap: round"/>
   </g>
   <g id="line2d_134">
    <path d="M 431.41668 293.84672 
L 464.65632 293.84672 
" clip-path="url(#p706e6b6ba7)" style="fill: none; stroke: #737373; stroke-width: 1.5; stroke-linecap: round"/>
   </g>
   <g id="line2d_135">
    <path d="M 482.29368 568.254545 
L 515.53332 568.254545 
" clip-path="url(#p706e6b6ba7)" style="fill: none; stroke: #737373; stroke-width: 1.5; stroke-linecap: round"/>
   </g>
   <g id="line2d_136">
    <path d="M 516.21168 361.188944 
L 549.45132 361.188944 
" clip-path="url(#p706e6b6ba7)" style="fill: none; stroke: #737373; stroke-width: 1.5; stroke-linecap: round"/>
   </g>
   <g id="line2d_137">
    <path d="M 567.08868 423.076129 
L 600.32832 423.076129 
" clip-path="url(#p706e6b6ba7)" style="fill: none; stroke: #737373; stroke-width: 1.5; stroke-linecap: round"/>
   </g>
   <g id="line2d_138">
    <path d="M 601.00668 568.254545 
L 634.24632 568.254545 
" clip-path="url(#p706e6b6ba7)" style="fill: none; stroke: #737373; stroke-width: 1.5; stroke-linecap: round"/>
   </g>
   <g id="line2d_139">
    <path d="M 651.88368 568.254545 
L 685.12332 568.254545 
" clip-path="url(#p706e6b6ba7)" style="fill: none; stroke: #737373; stroke-width: 1.5; stroke-linecap: round"/>
   </g>
   <g id="line2d_140">
    <path d="M 685.80168 568.254545 
L 719.04132 568.254545 
" clip-path="url(#p706e6b6ba7)" style="fill: none; stroke: #737373; stroke-width: 1.5; stroke-linecap: round"/>
   </g>
   <g id="line2d_141">
    <path d="M 736.67868 568.254545 
L 769.91832 568.254545 
" clip-path="url(#p706e6b6ba7)" style="fill: none; stroke: #737373; stroke-width: 1.5; stroke-linecap: round"/>
   </g>
   <g id="line2d_142">
    <path d="M 770.59668 568.254545 
L 803.83632 568.254545 
" clip-path="url(#p706e6b6ba7)" style="fill: none; stroke: #737373; stroke-width: 1.5; stroke-linecap: round"/>
   </g>
   <g id="line2d_143">
    <path d="M 855.39168 568.254545 
L 888.63132 568.254545 
" clip-path="url(#p706e6b6ba7)" style="fill: none; stroke: #737373; stroke-width: 1.5; stroke-linecap: round"/>
   </g>
   <g id="line2d_144">
    <path d="M 940.18668 568.254545 
L 973.42632 568.254545 
" clip-path="url(#p706e6b6ba7)" style="fill: none; stroke: #737373; stroke-width: 1.5; stroke-linecap: round"/>
   </g>
   <g id="line2d_145">
    <path d="M 1024.98168 568.254545 
L 1058.22132 568.254545 
" clip-path="url(#p706e6b6ba7)" style="fill: none; stroke: #737373; stroke-width: 1.5; stroke-linecap: round"/>
   </g>
   <g id="patch_26">
    <path d="M 49.5 594 
L 49.5 27.6 
" style="fill: none; stroke: #262626; stroke-width: 1.25; stroke-linejoin: miter; stroke-linecap: square"/>
   </g>
   <g id="patch_27">
    <path d="M 1067.04 594 
L 1067.04 27.6 
" style="fill: none; stroke: #262626; stroke-width: 1.25; stroke-linejoin: miter; stroke-linecap: square"/>
   </g>
   <g id="patch_28">
    <path d="M 49.5 594 
L 1067.04 594 
" style="fill: none; stroke: #262626; stroke-width: 1.25; stroke-linejoin: miter; stroke-linecap: square"/>
   </g>
   <g id="patch_29">
    <path d="M 49.5 27.6 
L 1067.04 27.6 
" style="fill: none; stroke: #262626; stroke-width: 1.25; stroke-linejoin: miter; stroke-linecap: square"/>
   </g>
   <g id="text_22">
    <!-- Top 20 Phylum abundances rank by groups. -->
    <g style="fill: #262626" transform="translate(441.208125 21.6) scale(0.12 -0.12)">
     <defs>
      <path id="ArialMT-6b" d="M 425 0 
L 425 4581 
L 988 4581 
L 988 1969 
L 2319 3319 
L 3047 3319 
L 1778 2088 
L 3175 0 
L 2481 0 
L 1384 1697 
L 988 1316 
L 988 0 
L 425 0 
z
" transform="scale(0.015625)"/>
      <path id="ArialMT-2e" d="M 581 0 
L 581 641 
L 1222 641 
L 1222 0 
L 581 0 
z
" transform="scale(0.015625)"/>
     </defs>
     <use xlink:href="#ArialMT-54"/>
     <use xlink:href="#ArialMT-6f" x="49.958984"/>
     <use xlink:href="#ArialMT-70" x="105.574219"/>
     <use xlink:href="#ArialMT-20" x="161.189453"/>
     <use xlink:href="#ArialMT-32" x="188.972656"/>
     <use xlink:href="#ArialMT-30" x="244.587891"/>
     <use xlink:href="#ArialMT-20" x="300.203125"/>
     <use xlink:href="#ArialMT-50" x="327.986328"/>
     <use xlink:href="#ArialMT-68" x="394.685547"/>
     <use xlink:href="#ArialMT-79" x="450.300781"/>
     <use xlink:href="#ArialMT-6c" x="500.300781"/>
     <use xlink:href="#ArialMT-75" x="522.517578"/>
     <use xlink:href="#ArialMT-6d" x="578.132812"/>
     <use xlink:href="#ArialMT-20" x="661.433594"/>
     <use xlink:href="#ArialMT-61" x="689.216797"/>
     <use xlink:href="#ArialMT-62" x="744.832031"/>
     <use xlink:href="#ArialMT-75" x="800.447266"/>
     <use xlink:href="#ArialMT-6e" x="856.0625"/>
     <use xlink:href="#ArialMT-64" x="911.677734"/>
     <use xlink:href="#ArialMT-61" x="967.292969"/>
     <use xlink:href="#ArialMT-6e" x="1022.908203"/>
     <use xlink:href="#ArialMT-63" x="1078.523438"/>
     <use xlink:href="#ArialMT-65" x="1128.523438"/>
     <use xlink:href="#ArialMT-73" x="1184.138672"/>
     <use xlink:href="#ArialMT-20" x="1234.138672"/>
     <use xlink:href="#ArialMT-72" x="1261.921875"/>
     <use xlink:href="#ArialMT-61" x="1295.222656"/>
     <use xlink:href="#ArialMT-6e" x="1350.837891"/>
     <use xlink:href="#ArialMT-6b" x="1406.453125"/>
     <use xlink:href="#ArialMT-20" x="1456.453125"/>
     <use xlink:href="#ArialMT-62" x="1484.236328"/>
     <use xlink:href="#ArialMT-79" x="1539.851562"/>
     <use xlink:href="#ArialMT-20" x="1589.851562"/>
     <use xlink:href="#ArialMT-67" x="1617.634766"/>
     <use xlink:href="#ArialMT-72" x="1673.25"/>
     <use xlink:href="#ArialMT-6f" x="1706.550781"/>
     <use xlink:href="#ArialMT-75" x="1762.166016"/>
     <use xlink:href="#ArialMT-70" x="1817.78125"/>
     <use xlink:href="#ArialMT-73" x="1873.396484"/>
     <use xlink:href="#ArialMT-2e" x="1923.396484"/>
    </g>
   </g>
   <g id="legend_1">
    <g id="patch_30">
     <path d="M 981.36375 84.140312 
L 1059.34 84.140312 
Q 1061.54 84.140312 1061.54 81.940312 
L 1061.54 35.3 
Q 1061.54 33.1 1059.34 33.1 
L 981.36375 33.1 
Q 979.16375 33.1 979.16375 35.3 
L 979.16375 81.940312 
Q 979.16375 84.140312 981.36375 84.140312 
z
" style="fill: #ffffff; opacity: 0.8; stroke: #cccccc; stroke-linejoin: miter"/>
    </g>
    <g id="text_23">
     <!-- Group -->
     <g style="fill: #262626" transform="translate(1003.6775 46.235625) scale(0.12 -0.12)">
      <defs>
       <path id="ArialMT-47" d="M 2638 1797 
L 2638 2334 
L 4578 2338 
L 4578 638 
Q 4131 281 3656 101 
Q 3181 -78 2681 -78 
Q 2006 -78 1454 211 
Q 903 500 622 1047 
Q 341 1594 341 2269 
Q 341 2938 620 3517 
Q 900 4097 1425 4378 
Q 1950 4659 2634 4659 
Q 3131 4659 3532 4498 
Q 3934 4338 4162 4050 
Q 4391 3763 4509 3300 
L 3963 3150 
Q 3859 3500 3706 3700 
Q 3553 3900 3268 4020 
Q 2984 4141 2638 4141 
Q 2222 4141 1919 4014 
Q 1616 3888 1430 3681 
Q 1244 3475 1141 3228 
Q 966 2803 966 2306 
Q 966 1694 1177 1281 
Q 1388 869 1791 669 
Q 2194 469 2647 469 
Q 3041 469 3416 620 
Q 3791 772 3984 944 
L 3984 1797 
L 2638 1797 
z
" transform="scale(0.015625)"/>
      </defs>
      <use xlink:href="#ArialMT-47"/>
      <use xlink:href="#ArialMT-72" x="77.783203"/>
      <use xlink:href="#ArialMT-6f" x="111.083984"/>
      <use xlink:href="#ArialMT-75" x="166.699219"/>
      <use xlink:href="#ArialMT-70" x="222.314453"/>
     </g>
    </g>
    <g id="patch_31">
     <path d="M 983.56375 61.994219 
L 1005.56375 61.994219 
L 1005.56375 54.294219 
L 983.56375 54.294219 
z
" style="fill: #abc9ea; stroke: #737373; stroke-width: 0.75; stroke-linejoin: miter"/>
    </g>
    <g id="text_24">
     <!-- NR -->
     <g style="fill: #262626" transform="translate(1014.36375 61.994219) scale(0.11 -0.11)">
      <defs>
       <path id="ArialMT-4e" d="M 488 0 
L 488 4581 
L 1109 4581 
L 3516 984 
L 3516 4581 
L 4097 4581 
L 4097 0 
L 3475 0 
L 1069 3600 
L 1069 0 
L 488 0 
z
" transform="scale(0.015625)"/>
       <path id="ArialMT-52" d="M 503 0 
L 503 4581 
L 2534 4581 
Q 3147 4581 3465 4457 
Q 3784 4334 3975 4021 
Q 4166 3709 4166 3331 
Q 4166 2844 3850 2509 
Q 3534 2175 2875 2084 
Q 3116 1969 3241 1856 
Q 3506 1613 3744 1247 
L 4541 0 
L 3778 0 
L 3172 953 
Q 2906 1366 2734 1584 
Q 2563 1803 2427 1890 
Q 2291 1978 2150 2013 
Q 2047 2034 1813 2034 
L 1109 2034 
L 1109 0 
L 503 0 
z
M 1109 2559 
L 2413 2559 
Q 2828 2559 3062 2645 
Q 3297 2731 3419 2920 
Q 3541 3109 3541 3331 
Q 3541 3656 3305 3865 
Q 3069 4075 2559 4075 
L 1109 4075 
L 1109 2559 
z
" transform="scale(0.015625)"/>
      </defs>
      <use xlink:href="#ArialMT-4e"/>
      <use xlink:href="#ArialMT-52" x="72.216797"/>
     </g>
    </g>
    <g id="patch_32">
     <path d="M 983.56375 77.554062 
L 1005.56375 77.554062 
L 1005.56375 69.854062 
L 983.56375 69.854062 
z
" style="fill: #efb792; stroke: #737373; stroke-width: 0.75; stroke-linejoin: miter"/>
    </g>
    <g id="text_25">
     <!-- HSD-NR -->
     <g style="fill: #262626" transform="translate(1014.36375 77.554062) scale(0.11 -0.11)">
      <defs>
       <path id="ArialMT-48" d="M 513 0 
L 513 4581 
L 1119 4581 
L 1119 2700 
L 3500 2700 
L 3500 4581 
L 4106 4581 
L 4106 0 
L 3500 0 
L 3500 2159 
L 1119 2159 
L 1119 0 
L 513 0 
z
" transform="scale(0.015625)"/>
       <path id="ArialMT-53" d="M 288 1472 
L 859 1522 
Q 900 1178 1048 958 
Q 1197 738 1509 602 
Q 1822 466 2213 466 
Q 2559 466 2825 569 
Q 3091 672 3220 851 
Q 3350 1031 3350 1244 
Q 3350 1459 3225 1620 
Q 3100 1781 2813 1891 
Q 2628 1963 1997 2114 
Q 1366 2266 1113 2400 
Q 784 2572 623 2826 
Q 463 3081 463 3397 
Q 463 3744 659 4045 
Q 856 4347 1234 4503 
Q 1613 4659 2075 4659 
Q 2584 4659 2973 4495 
Q 3363 4331 3572 4012 
Q 3781 3694 3797 3291 
L 3216 3247 
Q 3169 3681 2898 3903 
Q 2628 4125 2100 4125 
Q 1550 4125 1298 3923 
Q 1047 3722 1047 3438 
Q 1047 3191 1225 3031 
Q 1400 2872 2139 2705 
Q 2878 2538 3153 2413 
Q 3553 2228 3743 1945 
Q 3934 1663 3934 1294 
Q 3934 928 3725 604 
Q 3516 281 3123 101 
Q 2731 -78 2241 -78 
Q 1619 -78 1198 103 
Q 778 284 539 648 
Q 300 1013 288 1472 
z
" transform="scale(0.015625)"/>
       <path id="ArialMT-2d" d="M 203 1375 
L 203 1941 
L 1931 1941 
L 1931 1375 
L 203 1375 
z
" transform="scale(0.015625)"/>
      </defs>
      <use xlink:href="#ArialMT-48"/>
      <use xlink:href="#ArialMT-53" x="72.216797"/>
      <use xlink:href="#ArialMT-44" x="138.916016"/>
      <use xlink:href="#ArialMT-2d" x="211.132812"/>
      <use xlink:href="#ArialMT-4e" x="244.433594"/>
      <use xlink:href="#ArialMT-52" x="316.650391"/>
     </g>
    </g>
   </g>
  </g>
 </g>
 <defs>
  <clipPath id="p706e6b6ba7">
   <rect x="49.5" y="27.6" width="1017.54" height="566.4"/>
  </clipPath>
 </defs>
</svg>
