<?xml version="1.0" encoding="utf-8" standalone="no"?>
<!DOCTYPE svg PUBLIC "-//W3C//DTD SVG 1.1//EN"
  "http://www.w3.org/Graphics/SVG/1.1/DTD/svg11.dtd">
<svg xmlns:xlink="http://www.w3.org/1999/xlink" width="1512pt" height="648pt" viewBox="0 0 1512 648" xmlns="http://www.w3.org/2000/svg" version="1.1">
 <metadata>
  <rdf:RDF xmlns:dc="http://purl.org/dc/elements/1.1/" xmlns:cc="http://creativecommons.org/ns#" xmlns:rdf="http://www.w3.org/1999/02/22-rdf-syntax-ns#">
   <cc:Work>
    <dc:type rdf:resource="http://purl.org/dc/dcmitype/StillImage"/>
    <dc:date>2024-03-06T12:57:54.103622</dc:date>
    <dc:format>image/svg+xml</dc:format>
    <dc:creator>
     <cc:Agent>
      <dc:title>Matplotlib v3.6.0, https://matplotlib.org/</dc:title>
     </cc:Agent>
    </dc:creator>
   </cc:Work>
  </rdf:RDF>
 </metadata>
 <defs>
  <style type="text/css">*{stroke-linejoin: round; stroke-linecap: butt}</style>
 </defs>
 <g id="figure_1">
  <g id="patch_1">
   <path d="M 0 648 
L 1512 648 
L 1512 0 
L 0 0 
z
" style="fill: #ffffff"/>
  </g>
  <g id="axes_1">
   <g id="patch_2">
    <path d="M 52.61625 561.24 
L 1499.04 561.24 
L 1499.04 27.65625 
L 52.61625 27.65625 
z
" style="fill: #ffffff"/>
   </g>
   <g id="matplotlib.axis_1">
    <g id="xtick_1">
     <g id="line2d_1">
      <defs>
       <path id="m574098a0b0" d="M 0 0 
L 0 6 
" style="stroke: #262626; stroke-width: 1.25"/>
      </defs>
      <g>
       <use xlink:href="#m574098a0b0" x="381.34892" y="561.24" style="fill: #262626; stroke: #262626; stroke-width: 1.25"/>
      </g>
     </g>
     <g id="text_1">
      <!-- Bacteria -->
      <g style="fill: #262626" transform="translate(384.192592 611.091094) rotate(-90) scale(0.11 -0.11)">
       <defs>
        <path id="ArialMT-42" d="M 469 0 
L 469 4581 
L 2188 4581 
Q 2713 4581 3030 4442 
Q 3347 4303 3526 4014 
Q 3706 3725 3706 3409 
Q 3706 3116 3547 2856 
Q 3388 2597 3066 2438 
Q 3481 2316 3704 2022 
Q 3928 1728 3928 1328 
Q 3928 1006 3792 729 
Q 3656 453 3456 303 
Q 3256 153 2954 76 
Q 2653 0 2216 0 
L 469 0 
z
M 1075 2656 
L 2066 2656 
Q 2469 2656 2644 2709 
Q 2875 2778 2992 2937 
Q 3109 3097 3109 3338 
Q 3109 3566 3000 3739 
Q 2891 3913 2687 3977 
Q 2484 4041 1991 4041 
L 1075 4041 
L 1075 2656 
z
M 1075 541 
L 2216 541 
Q 2509 541 2628 563 
Q 2838 600 2978 687 
Q 3119 775 3209 942 
Q 3300 1109 3300 1328 
Q 3300 1584 3169 1773 
Q 3038 1963 2805 2039 
Q 2572 2116 2134 2116 
L 1075 2116 
L 1075 541 
z
" transform="scale(0.015625)"/>
        <path id="ArialMT-61" d="M 2588 409 
Q 2275 144 1986 34 
Q 1697 -75 1366 -75 
Q 819 -75 525 192 
Q 231 459 231 875 
Q 231 1119 342 1320 
Q 453 1522 633 1644 
Q 813 1766 1038 1828 
Q 1203 1872 1538 1913 
Q 2219 1994 2541 2106 
Q 2544 2222 2544 2253 
Q 2544 2597 2384 2738 
Q 2169 2928 1744 2928 
Q 1347 2928 1158 2789 
Q 969 2650 878 2297 
L 328 2372 
Q 403 2725 575 2942 
Q 747 3159 1072 3276 
Q 1397 3394 1825 3394 
Q 2250 3394 2515 3294 
Q 2781 3194 2906 3042 
Q 3031 2891 3081 2659 
Q 3109 2516 3109 2141 
L 3109 1391 
Q 3109 606 3145 398 
Q 3181 191 3288 0 
L 2700 0 
Q 2613 175 2588 409 
z
M 2541 1666 
Q 2234 1541 1622 1453 
Q 1275 1403 1131 1340 
Q 988 1278 909 1158 
Q 831 1038 831 891 
Q 831 666 1001 516 
Q 1172 366 1500 366 
Q 1825 366 2078 508 
Q 2331 650 2450 897 
Q 2541 1088 2541 1459 
L 2541 1666 
z
" transform="scale(0.015625)"/>
        <path id="ArialMT-63" d="M 2588 1216 
L 3141 1144 
Q 3050 572 2676 248 
Q 2303 -75 1759 -75 
Q 1078 -75 664 370 
Q 250 816 250 1647 
Q 250 2184 428 2587 
Q 606 2991 970 3192 
Q 1334 3394 1763 3394 
Q 2303 3394 2647 3120 
Q 2991 2847 3088 2344 
L 2541 2259 
Q 2463 2594 2264 2762 
Q 2066 2931 1784 2931 
Q 1359 2931 1093 2626 
Q 828 2322 828 1663 
Q 828 994 1084 691 
Q 1341 388 1753 388 
Q 2084 388 2306 591 
Q 2528 794 2588 1216 
z
" transform="scale(0.015625)"/>
        <path id="ArialMT-74" d="M 1650 503 
L 1731 6 
Q 1494 -44 1306 -44 
Q 1000 -44 831 53 
Q 663 150 594 308 
Q 525 466 525 972 
L 525 2881 
L 113 2881 
L 113 3319 
L 525 3319 
L 525 4141 
L 1084 4478 
L 1084 3319 
L 1650 3319 
L 1650 2881 
L 1084 2881 
L 1084 941 
Q 1084 700 1114 631 
Q 1144 563 1211 522 
Q 1278 481 1403 481 
Q 1497 481 1650 503 
z
" transform="scale(0.015625)"/>
        <path id="ArialMT-65" d="M 2694 1069 
L 3275 997 
Q 3138 488 2766 206 
Q 2394 -75 1816 -75 
Q 1088 -75 661 373 
Q 234 822 234 1631 
Q 234 2469 665 2931 
Q 1097 3394 1784 3394 
Q 2450 3394 2872 2941 
Q 3294 2488 3294 1666 
Q 3294 1616 3291 1516 
L 816 1516 
Q 847 969 1125 678 
Q 1403 388 1819 388 
Q 2128 388 2347 550 
Q 2566 713 2694 1069 
z
M 847 1978 
L 2700 1978 
Q 2663 2397 2488 2606 
Q 2219 2931 1791 2931 
Q 1403 2931 1139 2672 
Q 875 2413 847 1978 
z
" transform="scale(0.015625)"/>
        <path id="ArialMT-72" d="M 416 0 
L 416 3319 
L 922 3319 
L 922 2816 
Q 1116 3169 1280 3281 
Q 1444 3394 1641 3394 
Q 1925 3394 2219 3213 
L 2025 2691 
Q 1819 2813 1613 2813 
Q 1428 2813 1281 2702 
Q 1134 2591 1072 2394 
Q 978 2094 978 1738 
L 978 0 
L 416 0 
z
" transform="scale(0.015625)"/>
        <path id="ArialMT-69" d="M 425 3934 
L 425 4581 
L 988 4581 
L 988 3934 
L 425 3934 
z
M 425 0 
L 425 3319 
L 988 3319 
L 988 0 
L 425 0 
z
" transform="scale(0.015625)"/>
       </defs>
       <use xlink:href="#ArialMT-42"/>
       <use xlink:href="#ArialMT-61" x="66.699219"/>
       <use xlink:href="#ArialMT-63" x="122.314453"/>
       <use xlink:href="#ArialMT-74" x="172.314453"/>
       <use xlink:href="#ArialMT-65" x="200.097656"/>
       <use xlink:href="#ArialMT-72" x="255.712891"/>
       <use xlink:href="#ArialMT-69" x="289.013672"/>
       <use xlink:href="#ArialMT-61" x="311.230469"/>
      </g>
     </g>
    </g>
    <g id="xtick_2">
     <g id="line2d_2">
      <g>
       <use xlink:href="#m574098a0b0" x="775.828125" y="561.24" style="fill: #262626; stroke: #262626; stroke-width: 1.25"/>
      </g>
     </g>
     <g id="text_2">
      <!-- Eukaryota -->
      <g style="fill: #262626" transform="translate(778.607344 620.264063) rotate(-90) scale(0.11 -0.11)">
       <defs>
        <path id="ArialMT-45" d="M 506 0 
L 506 4581 
L 3819 4581 
L 3819 4041 
L 1113 4041 
L 1113 2638 
L 3647 2638 
L 3647 2100 
L 1113 2100 
L 1113 541 
L 3925 541 
L 3925 0 
L 506 0 
z
" transform="scale(0.015625)"/>
        <path id="ArialMT-75" d="M 2597 0 
L 2597 488 
Q 2209 -75 1544 -75 
Q 1250 -75 995 37 
Q 741 150 617 320 
Q 494 491 444 738 
Q 409 903 409 1263 
L 409 3319 
L 972 3319 
L 972 1478 
Q 972 1038 1006 884 
Q 1059 663 1231 536 
Q 1403 409 1656 409 
Q 1909 409 2131 539 
Q 2353 669 2445 892 
Q 2538 1116 2538 1541 
L 2538 3319 
L 3100 3319 
L 3100 0 
L 2597 0 
z
" transform="scale(0.015625)"/>
        <path id="ArialMT-6b" d="M 425 0 
L 425 4581 
L 988 4581 
L 988 1969 
L 2319 3319 
L 3047 3319 
L 1778 2088 
L 3175 0 
L 2481 0 
L 1384 1697 
L 988 1316 
L 988 0 
L 425 0 
z
" transform="scale(0.015625)"/>
        <path id="ArialMT-79" d="M 397 -1278 
L 334 -750 
Q 519 -800 656 -800 
Q 844 -800 956 -737 
Q 1069 -675 1141 -563 
Q 1194 -478 1313 -144 
Q 1328 -97 1363 -6 
L 103 3319 
L 709 3319 
L 1400 1397 
Q 1534 1031 1641 628 
Q 1738 1016 1872 1384 
L 2581 3319 
L 3144 3319 
L 1881 -56 
Q 1678 -603 1566 -809 
Q 1416 -1088 1222 -1217 
Q 1028 -1347 759 -1347 
Q 597 -1347 397 -1278 
z
" transform="scale(0.015625)"/>
        <path id="ArialMT-6f" d="M 213 1659 
Q 213 2581 725 3025 
Q 1153 3394 1769 3394 
Q 2453 3394 2887 2945 
Q 3322 2497 3322 1706 
Q 3322 1066 3130 698 
Q 2938 331 2570 128 
Q 2203 -75 1769 -75 
Q 1072 -75 642 372 
Q 213 819 213 1659 
z
M 791 1659 
Q 791 1022 1069 705 
Q 1347 388 1769 388 
Q 2188 388 2466 706 
Q 2744 1025 2744 1678 
Q 2744 2294 2464 2611 
Q 2184 2928 1769 2928 
Q 1347 2928 1069 2612 
Q 791 2297 791 1659 
z
" transform="scale(0.015625)"/>
       </defs>
       <use xlink:href="#ArialMT-45"/>
       <use xlink:href="#ArialMT-75" x="66.699219"/>
       <use xlink:href="#ArialMT-6b" x="122.314453"/>
       <use xlink:href="#ArialMT-61" x="172.314453"/>
       <use xlink:href="#ArialMT-72" x="227.929688"/>
       <use xlink:href="#ArialMT-79" x="261.230469"/>
       <use xlink:href="#ArialMT-6f" x="311.230469"/>
       <use xlink:href="#ArialMT-74" x="366.845703"/>
       <use xlink:href="#ArialMT-61" x="394.628906"/>
      </g>
     </g>
    </g>
    <g id="xtick_3">
     <g id="line2d_3">
      <g>
       <use xlink:href="#m574098a0b0" x="1170.30733" y="561.24" style="fill: #262626; stroke: #262626; stroke-width: 1.25"/>
      </g>
     </g>
     <g id="text_3">
      <!-- Archaea -->
      <g style="fill: #262626" transform="translate(1173.151001 611.708125) rotate(-90) scale(0.11 -0.11)">
       <defs>
        <path id="ArialMT-41" d="M -9 0 
L 1750 4581 
L 2403 4581 
L 4278 0 
L 3588 0 
L 3053 1388 
L 1138 1388 
L 634 0 
L -9 0 
z
M 1313 1881 
L 2866 1881 
L 2388 3150 
Q 2169 3728 2063 4100 
Q 1975 3659 1816 3225 
L 1313 1881 
z
" transform="scale(0.015625)"/>
        <path id="ArialMT-68" d="M 422 0 
L 422 4581 
L 984 4581 
L 984 2938 
Q 1378 3394 1978 3394 
Q 2347 3394 2619 3248 
Q 2891 3103 3008 2847 
Q 3125 2591 3125 2103 
L 3125 0 
L 2563 0 
L 2563 2103 
Q 2563 2525 2380 2717 
Q 2197 2909 1863 2909 
Q 1613 2909 1392 2779 
Q 1172 2650 1078 2428 
Q 984 2206 984 1816 
L 984 0 
L 422 0 
z
" transform="scale(0.015625)"/>
       </defs>
       <use xlink:href="#ArialMT-41"/>
       <use xlink:href="#ArialMT-72" x="66.699219"/>
       <use xlink:href="#ArialMT-63" x="100"/>
       <use xlink:href="#ArialMT-68" x="150"/>
       <use xlink:href="#ArialMT-61" x="205.615234"/>
       <use xlink:href="#ArialMT-65" x="261.230469"/>
       <use xlink:href="#ArialMT-61" x="316.845703"/>
      </g>
     </g>
    </g>
    <g id="text_4">
     <!-- Taxonomy -->
     <g style="fill: #262626" transform="translate(748.486875 632.853438) scale(0.12 -0.12)">
      <defs>
       <path id="ArialMT-54" d="M 1659 0 
L 1659 4041 
L 150 4041 
L 150 4581 
L 3781 4581 
L 3781 4041 
L 2266 4041 
L 2266 0 
L 1659 0 
z
" transform="scale(0.015625)"/>
       <path id="ArialMT-78" d="M 47 0 
L 1259 1725 
L 138 3319 
L 841 3319 
L 1350 2541 
Q 1494 2319 1581 2169 
Q 1719 2375 1834 2534 
L 2394 3319 
L 3066 3319 
L 1919 1756 
L 3153 0 
L 2463 0 
L 1781 1031 
L 1600 1309 
L 728 0 
L 47 0 
z
" transform="scale(0.015625)"/>
       <path id="ArialMT-6e" d="M 422 0 
L 422 3319 
L 928 3319 
L 928 2847 
Q 1294 3394 1984 3394 
Q 2284 3394 2536 3286 
Q 2788 3178 2913 3003 
Q 3038 2828 3088 2588 
Q 3119 2431 3119 2041 
L 3119 0 
L 2556 0 
L 2556 2019 
Q 2556 2363 2490 2533 
Q 2425 2703 2258 2804 
Q 2091 2906 1866 2906 
Q 1506 2906 1245 2678 
Q 984 2450 984 1813 
L 984 0 
L 422 0 
z
" transform="scale(0.015625)"/>
       <path id="ArialMT-6d" d="M 422 0 
L 422 3319 
L 925 3319 
L 925 2853 
Q 1081 3097 1340 3245 
Q 1600 3394 1931 3394 
Q 2300 3394 2536 3241 
Q 2772 3088 2869 2813 
Q 3263 3394 3894 3394 
Q 4388 3394 4653 3120 
Q 4919 2847 4919 2278 
L 4919 0 
L 4359 0 
L 4359 2091 
Q 4359 2428 4304 2576 
Q 4250 2725 4106 2815 
Q 3963 2906 3769 2906 
Q 3419 2906 3187 2673 
Q 2956 2441 2956 1928 
L 2956 0 
L 2394 0 
L 2394 2156 
Q 2394 2531 2256 2718 
Q 2119 2906 1806 2906 
Q 1569 2906 1367 2781 
Q 1166 2656 1075 2415 
Q 984 2175 984 1722 
L 984 0 
L 422 0 
z
" transform="scale(0.015625)"/>
      </defs>
      <use xlink:href="#ArialMT-54"/>
      <use xlink:href="#ArialMT-61" x="49.958984"/>
      <use xlink:href="#ArialMT-78" x="105.574219"/>
      <use xlink:href="#ArialMT-6f" x="155.574219"/>
      <use xlink:href="#ArialMT-6e" x="211.189453"/>
      <use xlink:href="#ArialMT-6f" x="266.804688"/>
      <use xlink:href="#ArialMT-6d" x="322.419922"/>
      <use xlink:href="#ArialMT-79" x="405.720703"/>
     </g>
    </g>
   </g>
   <g id="matplotlib.axis_2">
    <g id="ytick_1">
     <g id="line2d_4">
      <defs>
       <path id="m2881ae6e1f" d="M 0 0 
L -6 0 
" style="stroke: #262626; stroke-width: 1.25"/>
      </defs>
      <g>
       <use xlink:href="#m2881ae6e1f" x="52.61625" y="551.516722" style="fill: #262626; stroke: #262626; stroke-width: 1.25"/>
      </g>
     </g>
     <g id="text_5">
      <!-- 0.0 -->
      <g style="fill: #262626" transform="translate(27.82625 555.453519) scale(0.11 -0.11)">
       <defs>
        <path id="ArialMT-30" d="M 266 2259 
Q 266 3072 433 3567 
Q 600 4063 929 4331 
Q 1259 4600 1759 4600 
Q 2128 4600 2406 4451 
Q 2684 4303 2865 4023 
Q 3047 3744 3150 3342 
Q 3253 2941 3253 2259 
Q 3253 1453 3087 958 
Q 2922 463 2592 192 
Q 2263 -78 1759 -78 
Q 1097 -78 719 397 
Q 266 969 266 2259 
z
M 844 2259 
Q 844 1131 1108 757 
Q 1372 384 1759 384 
Q 2147 384 2411 759 
Q 2675 1134 2675 2259 
Q 2675 3391 2411 3762 
Q 2147 4134 1753 4134 
Q 1366 4134 1134 3806 
Q 844 3388 844 2259 
z
" transform="scale(0.015625)"/>
        <path id="ArialMT-2e" d="M 581 0 
L 581 641 
L 1222 641 
L 1222 0 
L 581 0 
z
" transform="scale(0.015625)"/>
       </defs>
       <use xlink:href="#ArialMT-30"/>
       <use xlink:href="#ArialMT-2e" x="55.615234"/>
       <use xlink:href="#ArialMT-30" x="83.398438"/>
      </g>
     </g>
    </g>
    <g id="ytick_2">
     <g id="line2d_5">
      <g>
       <use xlink:href="#m2881ae6e1f" x="52.61625" y="454.283941" style="fill: #262626; stroke: #262626; stroke-width: 1.25"/>
      </g>
     </g>
     <g id="text_6">
      <!-- 0.5 -->
      <g style="fill: #262626" transform="translate(27.82625 458.220738) scale(0.11 -0.11)">
       <defs>
        <path id="ArialMT-35" d="M 266 1200 
L 856 1250 
Q 922 819 1161 601 
Q 1400 384 1738 384 
Q 2144 384 2425 690 
Q 2706 997 2706 1503 
Q 2706 1984 2436 2262 
Q 2166 2541 1728 2541 
Q 1456 2541 1237 2417 
Q 1019 2294 894 2097 
L 366 2166 
L 809 4519 
L 3088 4519 
L 3088 3981 
L 1259 3981 
L 1013 2750 
Q 1425 3038 1878 3038 
Q 2478 3038 2890 2622 
Q 3303 2206 3303 1553 
Q 3303 931 2941 478 
Q 2500 -78 1738 -78 
Q 1113 -78 717 272 
Q 322 622 266 1200 
z
" transform="scale(0.015625)"/>
       </defs>
       <use xlink:href="#ArialMT-30"/>
       <use xlink:href="#ArialMT-2e" x="55.615234"/>
       <use xlink:href="#ArialMT-35" x="83.398438"/>
      </g>
     </g>
    </g>
    <g id="ytick_3">
     <g id="line2d_6">
      <g>
       <use xlink:href="#m2881ae6e1f" x="52.61625" y="357.05116" style="fill: #262626; stroke: #262626; stroke-width: 1.25"/>
      </g>
     </g>
     <g id="text_7">
      <!-- 1.0 -->
      <g style="fill: #262626" transform="translate(27.82625 360.987957) scale(0.11 -0.11)">
       <defs>
        <path id="ArialMT-31" d="M 2384 0 
L 1822 0 
L 1822 3584 
Q 1619 3391 1289 3197 
Q 959 3003 697 2906 
L 697 3450 
Q 1169 3672 1522 3987 
Q 1875 4303 2022 4600 
L 2384 4600 
L 2384 0 
z
" transform="scale(0.015625)"/>
       </defs>
       <use xlink:href="#ArialMT-31"/>
       <use xlink:href="#ArialMT-2e" x="55.615234"/>
       <use xlink:href="#ArialMT-30" x="83.398438"/>
      </g>
     </g>
    </g>
    <g id="ytick_4">
     <g id="line2d_7">
      <g>
       <use xlink:href="#m2881ae6e1f" x="52.61625" y="259.818379" style="fill: #262626; stroke: #262626; stroke-width: 1.25"/>
      </g>
     </g>
     <g id="text_8">
      <!-- 1.5 -->
      <g style="fill: #262626" transform="translate(27.82625 263.755176) scale(0.11 -0.11)">
       <use xlink:href="#ArialMT-31"/>
       <use xlink:href="#ArialMT-2e" x="55.615234"/>
       <use xlink:href="#ArialMT-35" x="83.398438"/>
      </g>
     </g>
    </g>
    <g id="ytick_5">
     <g id="line2d_8">
      <g>
       <use xlink:href="#m2881ae6e1f" x="52.61625" y="162.585598" style="fill: #262626; stroke: #262626; stroke-width: 1.25"/>
      </g>
     </g>
     <g id="text_9">
      <!-- 2.0 -->
      <g style="fill: #262626" transform="translate(27.82625 166.522395) scale(0.11 -0.11)">
       <defs>
        <path id="ArialMT-32" d="M 3222 541 
L 3222 0 
L 194 0 
Q 188 203 259 391 
Q 375 700 629 1000 
Q 884 1300 1366 1694 
Q 2113 2306 2375 2664 
Q 2638 3022 2638 3341 
Q 2638 3675 2398 3904 
Q 2159 4134 1775 4134 
Q 1369 4134 1125 3890 
Q 881 3647 878 3216 
L 300 3275 
Q 359 3922 746 4261 
Q 1134 4600 1788 4600 
Q 2447 4600 2831 4234 
Q 3216 3869 3216 3328 
Q 3216 3053 3103 2787 
Q 2991 2522 2730 2228 
Q 2469 1934 1863 1422 
Q 1356 997 1212 845 
Q 1069 694 975 541 
L 3222 541 
z
" transform="scale(0.015625)"/>
       </defs>
       <use xlink:href="#ArialMT-32"/>
       <use xlink:href="#ArialMT-2e" x="55.615234"/>
       <use xlink:href="#ArialMT-30" x="83.398438"/>
      </g>
     </g>
    </g>
    <g id="ytick_6">
     <g id="line2d_9">
      <g>
       <use xlink:href="#m2881ae6e1f" x="52.61625" y="65.352817" style="fill: #262626; stroke: #262626; stroke-width: 1.25"/>
      </g>
     </g>
     <g id="text_10">
      <!-- 2.5 -->
      <g style="fill: #262626" transform="translate(27.82625 69.289613) scale(0.11 -0.11)">
       <use xlink:href="#ArialMT-32"/>
       <use xlink:href="#ArialMT-2e" x="55.615234"/>
       <use xlink:href="#ArialMT-35" x="83.398438"/>
      </g>
     </g>
    </g>
    <g id="text_11">
     <!-- relative frequency -->
     <g style="fill: #262626" transform="translate(21.300625 341.803125) rotate(-90) scale(0.12 -0.12)">
      <defs>
       <path id="ArialMT-6c" d="M 409 0 
L 409 4581 
L 972 4581 
L 972 0 
L 409 0 
z
" transform="scale(0.015625)"/>
       <path id="ArialMT-76" d="M 1344 0 
L 81 3319 
L 675 3319 
L 1388 1331 
Q 1503 1009 1600 663 
Q 1675 925 1809 1294 
L 2547 3319 
L 3125 3319 
L 1869 0 
L 1344 0 
z
" transform="scale(0.015625)"/>
       <path id="ArialMT-20" transform="scale(0.015625)"/>
       <path id="ArialMT-66" d="M 556 0 
L 556 2881 
L 59 2881 
L 59 3319 
L 556 3319 
L 556 3672 
Q 556 4006 616 4169 
Q 697 4388 901 4523 
Q 1106 4659 1475 4659 
Q 1713 4659 2000 4603 
L 1916 4113 
Q 1741 4144 1584 4144 
Q 1328 4144 1222 4034 
Q 1116 3925 1116 3625 
L 1116 3319 
L 1763 3319 
L 1763 2881 
L 1116 2881 
L 1116 0 
L 556 0 
z
" transform="scale(0.015625)"/>
       <path id="ArialMT-71" d="M 2538 -1272 
L 2538 353 
Q 2406 169 2170 47 
Q 1934 -75 1669 -75 
Q 1078 -75 651 397 
Q 225 869 225 1691 
Q 225 2191 398 2587 
Q 572 2984 901 3189 
Q 1231 3394 1625 3394 
Q 2241 3394 2594 2875 
L 2594 3319 
L 3100 3319 
L 3100 -1272 
L 2538 -1272 
z
M 803 1669 
Q 803 1028 1072 708 
Q 1341 388 1716 388 
Q 2075 388 2334 692 
Q 2594 997 2594 1619 
Q 2594 2281 2320 2615 
Q 2047 2950 1678 2950 
Q 1313 2950 1058 2639 
Q 803 2328 803 1669 
z
" transform="scale(0.015625)"/>
      </defs>
      <use xlink:href="#ArialMT-72"/>
      <use xlink:href="#ArialMT-65" x="33.300781"/>
      <use xlink:href="#ArialMT-6c" x="88.916016"/>
      <use xlink:href="#ArialMT-61" x="111.132812"/>
      <use xlink:href="#ArialMT-74" x="166.748047"/>
      <use xlink:href="#ArialMT-69" x="194.53125"/>
      <use xlink:href="#ArialMT-76" x="216.748047"/>
      <use xlink:href="#ArialMT-65" x="266.748047"/>
      <use xlink:href="#ArialMT-20" x="322.363281"/>
      <use xlink:href="#ArialMT-66" x="350.146484"/>
      <use xlink:href="#ArialMT-72" x="377.929688"/>
      <use xlink:href="#ArialMT-65" x="411.230469"/>
      <use xlink:href="#ArialMT-71" x="466.845703"/>
      <use xlink:href="#ArialMT-75" x="522.460938"/>
      <use xlink:href="#ArialMT-65" x="578.076172"/>
      <use xlink:href="#ArialMT-6e" x="633.691406"/>
      <use xlink:href="#ArialMT-63" x="689.306641"/>
      <use xlink:href="#ArialMT-79" x="739.306641"/>
     </g>
    </g>
   </g>
   <g id="patch_3">
    <path d="M 224.083211 357.05116 
L 275.628494 357.05116 
L 275.628494 357.05116 
L 224.083211 357.05116 
L 224.083211 357.05116 
z
" clip-path="url(#paac1a312db)" style="fill: #abc9ea; stroke: #6f6f6f; stroke-width: 1.5; stroke-linejoin: miter"/>
   </g>
   <g id="patch_4">
    <path d="M 276.680438 357.05116 
L 328.225721 357.05116 
L 328.225721 357.05116 
L 276.680438 357.05116 
L 276.680438 357.05116 
z
" clip-path="url(#paac1a312db)" style="fill: #efb792; stroke: #6f6f6f; stroke-width: 1.5; stroke-linejoin: miter"/>
   </g>
   <g id="patch_5">
    <path d="M 329.277665 357.05116 
L 380.822948 357.05116 
L 380.822948 357.05116 
L 329.277665 357.05116 
L 329.277665 357.05116 
z
" clip-path="url(#paac1a312db)" style="fill: #98daa7; stroke: #6f6f6f; stroke-width: 1.5; stroke-linejoin: miter"/>
   </g>
   <g id="patch_6">
    <path d="M 381.874893 357.058938 
L 433.420175 357.058938 
L 433.420175 357.05116 
L 381.874893 357.05116 
L 381.874893 357.058938 
z
" clip-path="url(#paac1a312db)" style="fill: #f2aba8; stroke: #6f6f6f; stroke-width: 1.5; stroke-linejoin: miter"/>
   </g>
   <g id="patch_7">
    <path d="M 434.47212 357.05116 
L 486.017403 357.05116 
L 486.017403 357.05116 
L 434.47212 357.05116 
L 434.47212 357.05116 
z
" clip-path="url(#paac1a312db)" style="fill: #d3c4f6; stroke: #6f6f6f; stroke-width: 1.5; stroke-linejoin: miter"/>
   </g>
   <g id="patch_8">
    <path d="M 487.069347 357.05116 
L 538.61463 357.05116 
L 538.61463 357.05116 
L 487.069347 357.05116 
L 487.069347 357.05116 
z
" clip-path="url(#paac1a312db)" style="fill: #d6bba3; stroke: #6f6f6f; stroke-width: 1.5; stroke-linejoin: miter"/>
   </g>
   <g id="patch_9">
    <path d="M 618.562415 551.516722 
L 670.107698 551.516722 
L 670.107698 551.516722 
L 618.562415 551.516722 
L 618.562415 551.516722 
z
" clip-path="url(#paac1a312db)" style="fill: #abc9ea; stroke: #6f6f6f; stroke-width: 1.5; stroke-linejoin: miter"/>
   </g>
   <g id="patch_10">
    <path d="M 671.159643 551.516722 
L 722.704925 551.516722 
L 722.704925 551.516722 
L 671.159643 551.516722 
L 671.159643 551.516722 
z
" clip-path="url(#paac1a312db)" style="fill: #efb792; stroke: #6f6f6f; stroke-width: 1.5; stroke-linejoin: miter"/>
   </g>
   <g id="patch_11">
    <path d="M 723.75687 551.516722 
L 775.302153 551.516722 
L 775.302153 551.516722 
L 723.75687 551.516722 
L 723.75687 551.516722 
z
" clip-path="url(#paac1a312db)" style="fill: #98daa7; stroke: #6f6f6f; stroke-width: 1.5; stroke-linejoin: miter"/>
   </g>
   <g id="patch_12">
    <path d="M 776.354097 551.516722 
L 827.89938 551.516722 
L 827.89938 551.516722 
L 776.354097 551.516722 
L 776.354097 551.516722 
z
" clip-path="url(#paac1a312db)" style="fill: #f2aba8; stroke: #6f6f6f; stroke-width: 1.5; stroke-linejoin: miter"/>
   </g>
   <g id="patch_13">
    <path d="M 828.951325 551.516722 
L 880.496607 551.516722 
L 880.496607 551.516722 
L 828.951325 551.516722 
L 828.951325 551.516722 
z
" clip-path="url(#paac1a312db)" style="fill: #d3c4f6; stroke: #6f6f6f; stroke-width: 1.5; stroke-linejoin: miter"/>
   </g>
   <g id="patch_14">
    <path d="M 881.548552 551.516722 
L 933.093835 551.516722 
L 933.093835 551.516722 
L 881.548552 551.516722 
L 881.548552 551.516722 
z
" clip-path="url(#paac1a312db)" style="fill: #d6bba3; stroke: #6f6f6f; stroke-width: 1.5; stroke-linejoin: miter"/>
   </g>
   <g id="patch_15">
    <path d="M 1013.04162 551.516722 
L 1064.586903 551.516722 
L 1064.586903 551.516722 
L 1013.04162 551.516722 
L 1013.04162 551.516722 
z
" clip-path="url(#paac1a312db)" style="fill: #abc9ea; stroke: #6f6f6f; stroke-width: 1.5; stroke-linejoin: miter"/>
   </g>
   <g id="patch_16">
    <path d="M 1065.638847 551.516722 
L 1117.18413 551.516722 
L 1117.18413 551.516722 
L 1065.638847 551.516722 
L 1065.638847 551.516722 
z
" clip-path="url(#paac1a312db)" style="fill: #efb792; stroke: #6f6f6f; stroke-width: 1.5; stroke-linejoin: miter"/>
   </g>
   <g id="patch_17">
    <path d="M 1118.236075 551.516722 
L 1169.781357 551.516722 
L 1169.781357 551.516722 
L 1118.236075 551.516722 
L 1118.236075 551.516722 
z
" clip-path="url(#paac1a312db)" style="fill: #98daa7; stroke: #6f6f6f; stroke-width: 1.5; stroke-linejoin: miter"/>
   </g>
   <g id="patch_18">
    <path d="M 1170.833302 551.516722 
L 1222.378585 551.516722 
L 1222.378585 551.508943 
L 1170.833302 551.508943 
L 1170.833302 551.516722 
z
" clip-path="url(#paac1a312db)" style="fill: #f2aba8; stroke: #6f6f6f; stroke-width: 1.5; stroke-linejoin: miter"/>
   </g>
   <g id="patch_19">
    <path d="M 1223.430529 551.516722 
L 1274.975812 551.516722 
L 1274.975812 551.516722 
L 1223.430529 551.516722 
L 1223.430529 551.516722 
z
" clip-path="url(#paac1a312db)" style="fill: #d3c4f6; stroke: #6f6f6f; stroke-width: 1.5; stroke-linejoin: miter"/>
   </g>
   <g id="patch_20">
    <path d="M 1276.027756 551.516722 
L 1327.573039 551.516722 
L 1327.573039 551.516722 
L 1276.027756 551.516722 
L 1276.027756 551.516722 
z
" clip-path="url(#paac1a312db)" style="fill: #d6bba3; stroke: #6f6f6f; stroke-width: 1.5; stroke-linejoin: miter"/>
   </g>
   <g id="patch_21">
    <path d="M 381.34892 551.516722 
L 381.34892 551.516722 
L 381.34892 551.516722 
L 381.34892 551.516722 
z
" clip-path="url(#paac1a312db)" style="fill: #abc9ea; stroke: #6f6f6f; stroke-width: 0.75; stroke-linejoin: miter"/>
   </g>
   <g id="patch_22">
    <path d="M 381.34892 551.516722 
L 381.34892 551.516722 
L 381.34892 551.516722 
L 381.34892 551.516722 
z
" clip-path="url(#paac1a312db)" style="fill: #efb792; stroke: #6f6f6f; stroke-width: 0.75; stroke-linejoin: miter"/>
   </g>
   <g id="patch_23">
    <path d="M 381.34892 551.516722 
L 381.34892 551.516722 
L 381.34892 551.516722 
L 381.34892 551.516722 
z
" clip-path="url(#paac1a312db)" style="fill: #98daa7; stroke: #6f6f6f; stroke-width: 0.75; stroke-linejoin: miter"/>
   </g>
   <g id="patch_24">
    <path d="M 381.34892 551.516722 
L 381.34892 551.516722 
L 381.34892 551.516722 
L 381.34892 551.516722 
z
" clip-path="url(#paac1a312db)" style="fill: #f2aba8; stroke: #6f6f6f; stroke-width: 0.75; stroke-linejoin: miter"/>
   </g>
   <g id="patch_25">
    <path d="M 381.34892 551.516722 
L 381.34892 551.516722 
L 381.34892 551.516722 
L 381.34892 551.516722 
z
" clip-path="url(#paac1a312db)" style="fill: #d3c4f6; stroke: #6f6f6f; stroke-width: 0.75; stroke-linejoin: miter"/>
   </g>
   <g id="patch_26">
    <path d="M 381.34892 551.516722 
L 381.34892 551.516722 
L 381.34892 551.516722 
L 381.34892 551.516722 
z
" clip-path="url(#paac1a312db)" style="fill: #d6bba3; stroke: #6f6f6f; stroke-width: 0.75; stroke-linejoin: miter"/>
   </g>
   <g id="line2d_10">
    <path d="M 249.855852 357.05116 
L 249.855852 357.05116 
" clip-path="url(#paac1a312db)" style="fill: none; stroke: #6f6f6f; stroke-width: 1.5; stroke-linecap: round"/>
   </g>
   <g id="line2d_11">
    <path d="M 249.855852 357.05116 
L 249.855852 357.05116 
" clip-path="url(#paac1a312db)" style="fill: none; stroke: #6f6f6f; stroke-width: 1.5; stroke-linecap: round"/>
   </g>
   <g id="line2d_12">
    <path d="M 236.969532 357.05116 
L 262.742173 357.05116 
" clip-path="url(#paac1a312db)" style="fill: none; stroke: #6f6f6f; stroke-width: 1.5; stroke-linecap: round"/>
   </g>
   <g id="line2d_13">
    <path d="M 236.969532 357.05116 
L 262.742173 357.05116 
" clip-path="url(#paac1a312db)" style="fill: none; stroke: #6f6f6f; stroke-width: 1.5; stroke-linecap: round"/>
   </g>
   <g id="line2d_14"/>
   <g id="line2d_15">
    <path d="M 302.45308 357.05116 
L 302.45308 357.05116 
" clip-path="url(#paac1a312db)" style="fill: none; stroke: #6f6f6f; stroke-width: 1.5; stroke-linecap: round"/>
   </g>
   <g id="line2d_16">
    <path d="M 302.45308 357.05116 
L 302.45308 357.05116 
" clip-path="url(#paac1a312db)" style="fill: none; stroke: #6f6f6f; stroke-width: 1.5; stroke-linecap: round"/>
   </g>
   <g id="line2d_17">
    <path d="M 289.566759 357.05116 
L 315.3394 357.05116 
" clip-path="url(#paac1a312db)" style="fill: none; stroke: #6f6f6f; stroke-width: 1.5; stroke-linecap: round"/>
   </g>
   <g id="line2d_18">
    <path d="M 289.566759 357.05116 
L 315.3394 357.05116 
" clip-path="url(#paac1a312db)" style="fill: none; stroke: #6f6f6f; stroke-width: 1.5; stroke-linecap: round"/>
   </g>
   <g id="line2d_19"/>
   <g id="line2d_20">
    <path d="M 355.050307 357.05116 
L 355.050307 357.05116 
" clip-path="url(#paac1a312db)" style="fill: none; stroke: #6f6f6f; stroke-width: 1.5; stroke-linecap: round"/>
   </g>
   <g id="line2d_21">
    <path d="M 355.050307 357.05116 
L 355.050307 357.05116 
" clip-path="url(#paac1a312db)" style="fill: none; stroke: #6f6f6f; stroke-width: 1.5; stroke-linecap: round"/>
   </g>
   <g id="line2d_22">
    <path d="M 342.163986 357.05116 
L 367.936627 357.05116 
" clip-path="url(#paac1a312db)" style="fill: none; stroke: #6f6f6f; stroke-width: 1.5; stroke-linecap: round"/>
   </g>
   <g id="line2d_23">
    <path d="M 342.163986 357.05116 
L 367.936627 357.05116 
" clip-path="url(#paac1a312db)" style="fill: none; stroke: #6f6f6f; stroke-width: 1.5; stroke-linecap: round"/>
   </g>
   <g id="line2d_24">
    <defs>
     <path id="m8f76ce07db" d="M -0 3.535534 
L 2.12132 0 
L -0 -3.535534 
L -2.12132 -0 
z
" style="stroke: #6f6f6f; stroke-linejoin: miter"/>
    </defs>
    <g clip-path="url(#paac1a312db)">
     <use xlink:href="#m8f76ce07db" x="355.050307" y="357.323412" style="fill: #6f6f6f; stroke: #6f6f6f; stroke-linejoin: miter"/>
    </g>
   </g>
   <g id="line2d_25">
    <path d="M 407.647534 357.058938 
L 407.647534 357.066717 
" clip-path="url(#paac1a312db)" style="fill: none; stroke: #6f6f6f; stroke-width: 1.5; stroke-linecap: round"/>
   </g>
   <g id="line2d_26">
    <path d="M 407.647534 357.05116 
L 407.647534 357.05116 
" clip-path="url(#paac1a312db)" style="fill: none; stroke: #6f6f6f; stroke-width: 1.5; stroke-linecap: round"/>
   </g>
   <g id="line2d_27">
    <path d="M 394.761213 357.066717 
L 420.533855 357.066717 
" clip-path="url(#paac1a312db)" style="fill: none; stroke: #6f6f6f; stroke-width: 1.5; stroke-linecap: round"/>
   </g>
   <g id="line2d_28">
    <path d="M 394.761213 357.05116 
L 420.533855 357.05116 
" clip-path="url(#paac1a312db)" style="fill: none; stroke: #6f6f6f; stroke-width: 1.5; stroke-linecap: round"/>
   </g>
   <g id="line2d_29">
    <g clip-path="url(#paac1a312db)">
     <use xlink:href="#m8f76ce07db" x="407.647534" y="357.140614" style="fill: #6f6f6f; stroke: #6f6f6f; stroke-linejoin: miter"/>
    </g>
   </g>
   <g id="line2d_30">
    <path d="M 460.244761 357.05116 
L 460.244761 357.05116 
" clip-path="url(#paac1a312db)" style="fill: none; stroke: #6f6f6f; stroke-width: 1.5; stroke-linecap: round"/>
   </g>
   <g id="line2d_31">
    <path d="M 460.244761 357.05116 
L 460.244761 357.05116 
" clip-path="url(#paac1a312db)" style="fill: none; stroke: #6f6f6f; stroke-width: 1.5; stroke-linecap: round"/>
   </g>
   <g id="line2d_32">
    <path d="M 447.358441 357.05116 
L 473.131082 357.05116 
" clip-path="url(#paac1a312db)" style="fill: none; stroke: #6f6f6f; stroke-width: 1.5; stroke-linecap: round"/>
   </g>
   <g id="line2d_33">
    <path d="M 447.358441 357.05116 
L 473.131082 357.05116 
" clip-path="url(#paac1a312db)" style="fill: none; stroke: #6f6f6f; stroke-width: 1.5; stroke-linecap: round"/>
   </g>
   <g id="line2d_34"/>
   <g id="line2d_35">
    <path d="M 512.841989 357.05116 
L 512.841989 357.05116 
" clip-path="url(#paac1a312db)" style="fill: none; stroke: #6f6f6f; stroke-width: 1.5; stroke-linecap: round"/>
   </g>
   <g id="line2d_36">
    <path d="M 512.841989 357.05116 
L 512.841989 357.05116 
" clip-path="url(#paac1a312db)" style="fill: none; stroke: #6f6f6f; stroke-width: 1.5; stroke-linecap: round"/>
   </g>
   <g id="line2d_37">
    <path d="M 499.955668 357.05116 
L 525.728309 357.05116 
" clip-path="url(#paac1a312db)" style="fill: none; stroke: #6f6f6f; stroke-width: 1.5; stroke-linecap: round"/>
   </g>
   <g id="line2d_38">
    <path d="M 499.955668 357.05116 
L 525.728309 357.05116 
" clip-path="url(#paac1a312db)" style="fill: none; stroke: #6f6f6f; stroke-width: 1.5; stroke-linecap: round"/>
   </g>
   <g id="line2d_39"/>
   <g id="line2d_40">
    <path d="M 644.335057 551.516722 
L 644.335057 551.516722 
" clip-path="url(#paac1a312db)" style="fill: none; stroke: #6f6f6f; stroke-width: 1.5; stroke-linecap: round"/>
   </g>
   <g id="line2d_41">
    <path d="M 644.335057 551.516722 
L 644.335057 551.516722 
" clip-path="url(#paac1a312db)" style="fill: none; stroke: #6f6f6f; stroke-width: 1.5; stroke-linecap: round"/>
   </g>
   <g id="line2d_42">
    <path d="M 631.448736 551.516722 
L 657.221377 551.516722 
" clip-path="url(#paac1a312db)" style="fill: none; stroke: #6f6f6f; stroke-width: 1.5; stroke-linecap: round"/>
   </g>
   <g id="line2d_43">
    <path d="M 631.448736 551.516722 
L 657.221377 551.516722 
" clip-path="url(#paac1a312db)" style="fill: none; stroke: #6f6f6f; stroke-width: 1.5; stroke-linecap: round"/>
   </g>
   <g id="line2d_44"/>
   <g id="line2d_45">
    <path d="M 696.932284 551.516722 
L 696.932284 551.516722 
" clip-path="url(#paac1a312db)" style="fill: none; stroke: #6f6f6f; stroke-width: 1.5; stroke-linecap: round"/>
   </g>
   <g id="line2d_46">
    <path d="M 696.932284 551.516722 
L 696.932284 551.516722 
" clip-path="url(#paac1a312db)" style="fill: none; stroke: #6f6f6f; stroke-width: 1.5; stroke-linecap: round"/>
   </g>
   <g id="line2d_47">
    <path d="M 684.045963 551.516722 
L 709.818605 551.516722 
" clip-path="url(#paac1a312db)" style="fill: none; stroke: #6f6f6f; stroke-width: 1.5; stroke-linecap: round"/>
   </g>
   <g id="line2d_48">
    <path d="M 684.045963 551.516722 
L 709.818605 551.516722 
" clip-path="url(#paac1a312db)" style="fill: none; stroke: #6f6f6f; stroke-width: 1.5; stroke-linecap: round"/>
   </g>
   <g id="line2d_49"/>
   <g id="line2d_50">
    <path d="M 749.529511 551.516722 
L 749.529511 551.516722 
" clip-path="url(#paac1a312db)" style="fill: none; stroke: #6f6f6f; stroke-width: 1.5; stroke-linecap: round"/>
   </g>
   <g id="line2d_51">
    <path d="M 749.529511 551.516722 
L 749.529511 551.516722 
" clip-path="url(#paac1a312db)" style="fill: none; stroke: #6f6f6f; stroke-width: 1.5; stroke-linecap: round"/>
   </g>
   <g id="line2d_52">
    <path d="M 736.643191 551.516722 
L 762.415832 551.516722 
" clip-path="url(#paac1a312db)" style="fill: none; stroke: #6f6f6f; stroke-width: 1.5; stroke-linecap: round"/>
   </g>
   <g id="line2d_53">
    <path d="M 736.643191 551.516722 
L 762.415832 551.516722 
" clip-path="url(#paac1a312db)" style="fill: none; stroke: #6f6f6f; stroke-width: 1.5; stroke-linecap: round"/>
   </g>
   <g id="line2d_54">
    <g clip-path="url(#paac1a312db)">
     <use xlink:href="#m8f76ce07db" x="749.529511" y="551.24447" style="fill: #6f6f6f; stroke: #6f6f6f; stroke-linejoin: miter"/>
    </g>
   </g>
   <g id="line2d_55">
    <path d="M 802.126739 551.516722 
L 802.126739 551.516722 
" clip-path="url(#paac1a312db)" style="fill: none; stroke: #6f6f6f; stroke-width: 1.5; stroke-linecap: round"/>
   </g>
   <g id="line2d_56">
    <path d="M 802.126739 551.516722 
L 802.126739 551.516722 
" clip-path="url(#paac1a312db)" style="fill: none; stroke: #6f6f6f; stroke-width: 1.5; stroke-linecap: round"/>
   </g>
   <g id="line2d_57">
    <path d="M 789.240418 551.516722 
L 815.013059 551.516722 
" clip-path="url(#paac1a312db)" style="fill: none; stroke: #6f6f6f; stroke-width: 1.5; stroke-linecap: round"/>
   </g>
   <g id="line2d_58">
    <path d="M 789.240418 551.516722 
L 815.013059 551.516722 
" clip-path="url(#paac1a312db)" style="fill: none; stroke: #6f6f6f; stroke-width: 1.5; stroke-linecap: round"/>
   </g>
   <g id="line2d_59"/>
   <g id="line2d_60">
    <path d="M 854.723966 551.516722 
L 854.723966 551.516722 
" clip-path="url(#paac1a312db)" style="fill: none; stroke: #6f6f6f; stroke-width: 1.5; stroke-linecap: round"/>
   </g>
   <g id="line2d_61">
    <path d="M 854.723966 551.516722 
L 854.723966 551.516722 
" clip-path="url(#paac1a312db)" style="fill: none; stroke: #6f6f6f; stroke-width: 1.5; stroke-linecap: round"/>
   </g>
   <g id="line2d_62">
    <path d="M 841.837645 551.516722 
L 867.610287 551.516722 
" clip-path="url(#paac1a312db)" style="fill: none; stroke: #6f6f6f; stroke-width: 1.5; stroke-linecap: round"/>
   </g>
   <g id="line2d_63">
    <path d="M 841.837645 551.516722 
L 867.610287 551.516722 
" clip-path="url(#paac1a312db)" style="fill: none; stroke: #6f6f6f; stroke-width: 1.5; stroke-linecap: round"/>
   </g>
   <g id="line2d_64"/>
   <g id="line2d_65">
    <path d="M 907.321193 551.516722 
L 907.321193 551.516722 
" clip-path="url(#paac1a312db)" style="fill: none; stroke: #6f6f6f; stroke-width: 1.5; stroke-linecap: round"/>
   </g>
   <g id="line2d_66">
    <path d="M 907.321193 551.516722 
L 907.321193 551.516722 
" clip-path="url(#paac1a312db)" style="fill: none; stroke: #6f6f6f; stroke-width: 1.5; stroke-linecap: round"/>
   </g>
   <g id="line2d_67">
    <path d="M 894.434872 551.516722 
L 920.207514 551.516722 
" clip-path="url(#paac1a312db)" style="fill: none; stroke: #6f6f6f; stroke-width: 1.5; stroke-linecap: round"/>
   </g>
   <g id="line2d_68">
    <path d="M 894.434872 551.516722 
L 920.207514 551.516722 
" clip-path="url(#paac1a312db)" style="fill: none; stroke: #6f6f6f; stroke-width: 1.5; stroke-linecap: round"/>
   </g>
   <g id="line2d_69"/>
   <g id="line2d_70">
    <path d="M 1038.814261 551.516722 
L 1038.814261 551.516722 
" clip-path="url(#paac1a312db)" style="fill: none; stroke: #6f6f6f; stroke-width: 1.5; stroke-linecap: round"/>
   </g>
   <g id="line2d_71">
    <path d="M 1038.814261 551.516722 
L 1038.814261 551.516722 
" clip-path="url(#paac1a312db)" style="fill: none; stroke: #6f6f6f; stroke-width: 1.5; stroke-linecap: round"/>
   </g>
   <g id="line2d_72">
    <path d="M 1025.927941 551.516722 
L 1051.700582 551.516722 
" clip-path="url(#paac1a312db)" style="fill: none; stroke: #6f6f6f; stroke-width: 1.5; stroke-linecap: round"/>
   </g>
   <g id="line2d_73">
    <path d="M 1025.927941 551.516722 
L 1051.700582 551.516722 
" clip-path="url(#paac1a312db)" style="fill: none; stroke: #6f6f6f; stroke-width: 1.5; stroke-linecap: round"/>
   </g>
   <g id="line2d_74"/>
   <g id="line2d_75">
    <path d="M 1091.411489 551.516722 
L 1091.411489 551.516722 
" clip-path="url(#paac1a312db)" style="fill: none; stroke: #6f6f6f; stroke-width: 1.5; stroke-linecap: round"/>
   </g>
   <g id="line2d_76">
    <path d="M 1091.411489 551.516722 
L 1091.411489 551.516722 
" clip-path="url(#paac1a312db)" style="fill: none; stroke: #6f6f6f; stroke-width: 1.5; stroke-linecap: round"/>
   </g>
   <g id="line2d_77">
    <path d="M 1078.525168 551.516722 
L 1104.297809 551.516722 
" clip-path="url(#paac1a312db)" style="fill: none; stroke: #6f6f6f; stroke-width: 1.5; stroke-linecap: round"/>
   </g>
   <g id="line2d_78">
    <path d="M 1078.525168 551.516722 
L 1104.297809 551.516722 
" clip-path="url(#paac1a312db)" style="fill: none; stroke: #6f6f6f; stroke-width: 1.5; stroke-linecap: round"/>
   </g>
   <g id="line2d_79"/>
   <g id="line2d_80">
    <path d="M 1144.008716 551.516722 
L 1144.008716 551.516722 
" clip-path="url(#paac1a312db)" style="fill: none; stroke: #6f6f6f; stroke-width: 1.5; stroke-linecap: round"/>
   </g>
   <g id="line2d_81">
    <path d="M 1144.008716 551.516722 
L 1144.008716 551.516722 
" clip-path="url(#paac1a312db)" style="fill: none; stroke: #6f6f6f; stroke-width: 1.5; stroke-linecap: round"/>
   </g>
   <g id="line2d_82">
    <path d="M 1131.122395 551.516722 
L 1156.895037 551.516722 
" clip-path="url(#paac1a312db)" style="fill: none; stroke: #6f6f6f; stroke-width: 1.5; stroke-linecap: round"/>
   </g>
   <g id="line2d_83">
    <path d="M 1131.122395 551.516722 
L 1156.895037 551.516722 
" clip-path="url(#paac1a312db)" style="fill: none; stroke: #6f6f6f; stroke-width: 1.5; stroke-linecap: round"/>
   </g>
   <g id="line2d_84"/>
   <g id="line2d_85">
    <path d="M 1196.605943 551.516722 
L 1196.605943 551.516722 
" clip-path="url(#paac1a312db)" style="fill: none; stroke: #6f6f6f; stroke-width: 1.5; stroke-linecap: round"/>
   </g>
   <g id="line2d_86">
    <path d="M 1196.605943 551.508943 
L 1196.605943 551.501165 
" clip-path="url(#paac1a312db)" style="fill: none; stroke: #6f6f6f; stroke-width: 1.5; stroke-linecap: round"/>
   </g>
   <g id="line2d_87">
    <path d="M 1183.719622 551.516722 
L 1209.492264 551.516722 
" clip-path="url(#paac1a312db)" style="fill: none; stroke: #6f6f6f; stroke-width: 1.5; stroke-linecap: round"/>
   </g>
   <g id="line2d_88">
    <path d="M 1183.719622 551.501165 
L 1209.492264 551.501165 
" clip-path="url(#paac1a312db)" style="fill: none; stroke: #6f6f6f; stroke-width: 1.5; stroke-linecap: round"/>
   </g>
   <g id="line2d_89">
    <g clip-path="url(#paac1a312db)">
     <use xlink:href="#m8f76ce07db" x="1196.605943" y="551.427268" style="fill: #6f6f6f; stroke: #6f6f6f; stroke-linejoin: miter"/>
    </g>
   </g>
   <g id="line2d_90">
    <path d="M 1249.20317 551.516722 
L 1249.20317 551.516722 
" clip-path="url(#paac1a312db)" style="fill: none; stroke: #6f6f6f; stroke-width: 1.5; stroke-linecap: round"/>
   </g>
   <g id="line2d_91">
    <path d="M 1249.20317 551.516722 
L 1249.20317 551.516722 
" clip-path="url(#paac1a312db)" style="fill: none; stroke: #6f6f6f; stroke-width: 1.5; stroke-linecap: round"/>
   </g>
   <g id="line2d_92">
    <path d="M 1236.31685 551.516722 
L 1262.089491 551.516722 
" clip-path="url(#paac1a312db)" style="fill: none; stroke: #6f6f6f; stroke-width: 1.5; stroke-linecap: round"/>
   </g>
   <g id="line2d_93">
    <path d="M 1236.31685 551.516722 
L 1262.089491 551.516722 
" clip-path="url(#paac1a312db)" style="fill: none; stroke: #6f6f6f; stroke-width: 1.5; stroke-linecap: round"/>
   </g>
   <g id="line2d_94"/>
   <g id="line2d_95">
    <path d="M 1301.800398 551.516722 
L 1301.800398 551.516722 
" clip-path="url(#paac1a312db)" style="fill: none; stroke: #6f6f6f; stroke-width: 1.5; stroke-linecap: round"/>
   </g>
   <g id="line2d_96">
    <path d="M 1301.800398 551.516722 
L 1301.800398 551.516722 
" clip-path="url(#paac1a312db)" style="fill: none; stroke: #6f6f6f; stroke-width: 1.5; stroke-linecap: round"/>
   </g>
   <g id="line2d_97">
    <path d="M 1288.914077 551.516722 
L 1314.686718 551.516722 
" clip-path="url(#paac1a312db)" style="fill: none; stroke: #6f6f6f; stroke-width: 1.5; stroke-linecap: round"/>
   </g>
   <g id="line2d_98">
    <path d="M 1288.914077 551.516722 
L 1314.686718 551.516722 
" clip-path="url(#paac1a312db)" style="fill: none; stroke: #6f6f6f; stroke-width: 1.5; stroke-linecap: round"/>
   </g>
   <g id="line2d_99"/>
   <g id="line2d_100">
    <path d="M 460.244761 344.216433 
L 460.244761 339.93819 
L 512.841989 339.93819 
L 512.841989 344.216433 
" clip-path="url(#paac1a312db)" style="fill: none; stroke: #333333; stroke-width: 1.5; stroke-linecap: round"/>
   </g>
   <g id="line2d_101">
    <path d="M 644.335057 538.681995 
L 644.335057 534.403752 
L 696.932284 534.403752 
L 696.932284 538.681995 
" clip-path="url(#paac1a312db)" style="fill: none; stroke: #333333; stroke-width: 1.5; stroke-linecap: round"/>
   </g>
   <g id="line2d_102">
    <path d="M 696.932284 518.204119 
L 696.932284 513.925877 
L 749.529511 513.925877 
L 749.529511 518.204119 
" clip-path="url(#paac1a312db)" style="fill: none; stroke: #333333; stroke-width: 1.5; stroke-linecap: round"/>
   </g>
   <g id="line2d_103">
    <path d="M 802.126739 538.681995 
L 802.126739 534.403752 
L 854.723966 534.403752 
L 854.723966 538.681995 
" clip-path="url(#paac1a312db)" style="fill: none; stroke: #333333; stroke-width: 1.5; stroke-linecap: round"/>
   </g>
   <g id="line2d_104">
    <path d="M 854.723966 518.204119 
L 854.723966 513.925877 
L 907.321193 513.925877 
L 907.321193 518.204119 
" clip-path="url(#paac1a312db)" style="fill: none; stroke: #333333; stroke-width: 1.5; stroke-linecap: round"/>
   </g>
   <g id="line2d_105">
    <path d="M 1038.814261 538.681995 
L 1038.814261 534.403752 
L 1091.411489 534.403752 
L 1091.411489 538.681995 
" clip-path="url(#paac1a312db)" style="fill: none; stroke: #333333; stroke-width: 1.5; stroke-linecap: round"/>
   </g>
   <g id="line2d_106">
    <path d="M 1091.411489 518.204119 
L 1091.411489 513.925877 
L 1144.008716 513.925877 
L 1144.008716 518.204119 
" clip-path="url(#paac1a312db)" style="fill: none; stroke: #333333; stroke-width: 1.5; stroke-linecap: round"/>
   </g>
   <g id="line2d_107">
    <path d="M 1196.605943 538.592541 
L 1196.605943 534.314298 
L 1249.20317 534.314298 
L 1249.20317 538.592541 
" clip-path="url(#paac1a312db)" style="fill: none; stroke: #333333; stroke-width: 1.5; stroke-linecap: round"/>
   </g>
   <g id="line2d_108">
    <path d="M 1249.20317 518.114665 
L 1249.20317 513.836423 
L 1301.800398 513.836423 
L 1301.800398 518.114665 
" clip-path="url(#paac1a312db)" style="fill: none; stroke: #333333; stroke-width: 1.5; stroke-linecap: round"/>
   </g>
   <g id="line2d_109">
    <path d="M 249.855852 344.216433 
L 249.855852 339.93819 
L 302.45308 339.93819 
L 302.45308 344.216433 
" clip-path="url(#paac1a312db)" style="fill: none; stroke: #333333; stroke-width: 1.5; stroke-linecap: round"/>
   </g>
   <g id="line2d_110">
    <path d="M 302.45308 323.738557 
L 302.45308 319.460315 
L 355.050307 319.460315 
L 355.050307 323.738557 
" clip-path="url(#paac1a312db)" style="fill: none; stroke: #333333; stroke-width: 1.5; stroke-linecap: round"/>
   </g>
   <g id="line2d_111">
    <path d="M 355.050307 302.727968 
L 355.050307 298.449726 
L 407.647534 298.449726 
L 407.647534 302.727968 
" clip-path="url(#paac1a312db)" style="fill: none; stroke: #333333; stroke-width: 1.5; stroke-linecap: round"/>
   </g>
   <g id="line2d_112">
    <path d="M 407.647534 281.170808 
L 407.647534 276.892565 
L 460.244761 276.892565 
L 460.244761 281.170808 
" clip-path="url(#paac1a312db)" style="fill: none; stroke: #333333; stroke-width: 1.5; stroke-linecap: round"/>
   </g>
   <g id="line2d_113">
    <path d="M 749.529511 497.726244 
L 749.529511 493.448002 
L 802.126739 493.448002 
L 802.126739 497.726244 
" clip-path="url(#paac1a312db)" style="fill: none; stroke: #333333; stroke-width: 1.5; stroke-linecap: round"/>
   </g>
   <g id="line2d_114">
    <path d="M 1144.008716 497.726244 
L 1144.008716 493.448002 
L 1196.605943 493.448002 
L 1196.605943 497.726244 
" clip-path="url(#paac1a312db)" style="fill: none; stroke: #333333; stroke-width: 1.5; stroke-linecap: round"/>
   </g>
   <g id="line2d_115">
    <path d="M 644.335057 475.608293 
L 644.335057 471.330051 
L 749.529511 471.330051 
L 749.529511 475.608293 
" clip-path="url(#paac1a312db)" style="fill: none; stroke: #333333; stroke-width: 1.5; stroke-linecap: round"/>
   </g>
   <g id="line2d_116">
    <path d="M 802.126739 475.608293 
L 802.126739 471.330051 
L 907.321193 471.330051 
L 907.321193 475.608293 
" clip-path="url(#paac1a312db)" style="fill: none; stroke: #333333; stroke-width: 1.5; stroke-linecap: round"/>
   </g>
   <g id="line2d_117">
    <path d="M 1038.814261 475.608293 
L 1038.814261 471.330051 
L 1144.008716 471.330051 
L 1144.008716 475.608293 
" clip-path="url(#paac1a312db)" style="fill: none; stroke: #333333; stroke-width: 1.5; stroke-linecap: round"/>
   </g>
   <g id="line2d_118">
    <path d="M 1196.605943 475.608293 
L 1196.605943 471.330051 
L 1301.800398 471.330051 
L 1301.800398 475.608293 
" clip-path="url(#paac1a312db)" style="fill: none; stroke: #333333; stroke-width: 1.5; stroke-linecap: round"/>
   </g>
   <g id="line2d_119">
    <path d="M 407.647534 259.052856 
L 407.647534 254.774614 
L 512.841989 254.774614 
L 512.841989 259.052856 
" clip-path="url(#paac1a312db)" style="fill: none; stroke: #333333; stroke-width: 1.5; stroke-linecap: round"/>
   </g>
   <g id="line2d_120">
    <path d="M 249.855852 281.170808 
L 249.855852 276.892565 
L 355.050307 276.892565 
L 355.050307 281.170808 
" clip-path="url(#paac1a312db)" style="fill: none; stroke: #333333; stroke-width: 1.5; stroke-linecap: round"/>
   </g>
   <g id="line2d_121">
    <path d="M 302.45308 236.359526 
L 302.45308 232.081284 
L 407.647534 232.081284 
L 407.647534 236.359526 
" clip-path="url(#paac1a312db)" style="fill: none; stroke: #333333; stroke-width: 1.5; stroke-linecap: round"/>
   </g>
   <g id="line2d_122">
    <path d="M 355.050307 213.07585 
L 355.050307 208.797607 
L 460.244761 208.797607 
L 460.244761 213.07585 
" clip-path="url(#paac1a312db)" style="fill: none; stroke: #333333; stroke-width: 1.5; stroke-linecap: round"/>
   </g>
   <g id="line2d_123">
    <path d="M 696.932284 453.490342 
L 696.932284 449.2121 
L 802.126739 449.2121 
L 802.126739 453.490342 
" clip-path="url(#paac1a312db)" style="fill: none; stroke: #333333; stroke-width: 1.5; stroke-linecap: round"/>
   </g>
   <g id="line2d_124">
    <path d="M 749.529511 429.600961 
L 749.529511 425.322719 
L 854.723966 425.322719 
L 854.723966 429.600961 
" clip-path="url(#paac1a312db)" style="fill: none; stroke: #333333; stroke-width: 1.5; stroke-linecap: round"/>
   </g>
   <g id="line2d_125">
    <path d="M 1091.411489 453.490342 
L 1091.411489 449.2121 
L 1196.605943 449.2121 
L 1196.605943 453.490342 
" clip-path="url(#paac1a312db)" style="fill: none; stroke: #333333; stroke-width: 1.5; stroke-linecap: round"/>
   </g>
   <g id="line2d_126">
    <path d="M 1144.008716 429.600961 
L 1144.008716 425.322719 
L 1249.20317 425.322719 
L 1249.20317 429.600961 
" clip-path="url(#paac1a312db)" style="fill: none; stroke: #333333; stroke-width: 1.5; stroke-linecap: round"/>
   </g>
   <g id="line2d_127">
    <path d="M 355.050307 189.186469 
L 355.050307 184.908227 
L 512.841989 184.908227 
L 512.841989 189.186469 
" clip-path="url(#paac1a312db)" style="fill: none; stroke: #333333; stroke-width: 1.5; stroke-linecap: round"/>
   </g>
   <g id="line2d_128">
    <path d="M 249.855852 164.675627 
L 249.855852 160.397385 
L 407.647534 160.397385 
L 407.647534 164.675627 
" clip-path="url(#paac1a312db)" style="fill: none; stroke: #333333; stroke-width: 1.5; stroke-linecap: round"/>
   </g>
   <g id="line2d_129">
    <path d="M 302.45308 139.527158 
L 302.45308 135.248915 
L 460.244761 135.248915 
L 460.244761 139.527158 
" clip-path="url(#paac1a312db)" style="fill: none; stroke: #333333; stroke-width: 1.5; stroke-linecap: round"/>
   </g>
   <g id="line2d_130">
    <path d="M 644.335057 405.71158 
L 644.335057 401.433338 
L 802.126739 401.433338 
L 802.126739 405.71158 
" clip-path="url(#paac1a312db)" style="fill: none; stroke: #333333; stroke-width: 1.5; stroke-linecap: round"/>
   </g>
   <g id="line2d_131">
    <path d="M 696.932284 379.908896 
L 696.932284 375.630653 
L 854.723966 375.630653 
L 854.723966 379.908896 
" clip-path="url(#paac1a312db)" style="fill: none; stroke: #333333; stroke-width: 1.5; stroke-linecap: round"/>
   </g>
   <g id="line2d_132">
    <path d="M 749.529511 354.106211 
L 749.529511 349.827969 
L 907.321193 349.827969 
L 907.321193 354.106211 
" clip-path="url(#paac1a312db)" style="fill: none; stroke: #333333; stroke-width: 1.5; stroke-linecap: round"/>
   </g>
   <g id="line2d_133">
    <path d="M 1038.814261 405.71158 
L 1038.814261 401.433338 
L 1196.605943 401.433338 
L 1196.605943 405.71158 
" clip-path="url(#paac1a312db)" style="fill: none; stroke: #333333; stroke-width: 1.5; stroke-linecap: round"/>
   </g>
   <g id="line2d_134">
    <path d="M 1091.411489 379.908896 
L 1091.411489 375.630653 
L 1249.20317 375.630653 
L 1249.20317 379.908896 
" clip-path="url(#paac1a312db)" style="fill: none; stroke: #333333; stroke-width: 1.5; stroke-linecap: round"/>
   </g>
   <g id="line2d_135">
    <path d="M 1144.008716 354.106211 
L 1144.008716 349.827969 
L 1301.800398 349.827969 
L 1301.800398 354.106211 
" clip-path="url(#paac1a312db)" style="fill: none; stroke: #333333; stroke-width: 1.5; stroke-linecap: round"/>
   </g>
   <g id="line2d_136">
    <path d="M 249.855852 113.724473 
L 249.855852 109.446231 
L 460.244761 109.446231 
L 460.244761 113.724473 
" clip-path="url(#paac1a312db)" style="fill: none; stroke: #333333; stroke-width: 1.5; stroke-linecap: round"/>
   </g>
   <g id="line2d_137">
    <path d="M 302.45308 87.250555 
L 302.45308 82.972312 
L 512.841989 82.972312 
L 512.841989 87.250555 
" clip-path="url(#paac1a312db)" style="fill: none; stroke: #333333; stroke-width: 1.5; stroke-linecap: round"/>
   </g>
   <g id="line2d_138">
    <path d="M 644.335057 328.303527 
L 644.335057 324.025284 
L 854.723966 324.025284 
L 854.723966 328.303527 
" clip-path="url(#paac1a312db)" style="fill: none; stroke: #333333; stroke-width: 1.5; stroke-linecap: round"/>
   </g>
   <g id="line2d_139">
    <path d="M 696.932284 301.140913 
L 696.932284 296.862671 
L 907.321193 296.862671 
L 907.321193 301.140913 
" clip-path="url(#paac1a312db)" style="fill: none; stroke: #333333; stroke-width: 1.5; stroke-linecap: round"/>
   </g>
   <g id="line2d_140">
    <path d="M 1038.814261 328.303527 
L 1038.814261 324.025284 
L 1249.20317 324.025284 
L 1249.20317 328.303527 
" clip-path="url(#paac1a312db)" style="fill: none; stroke: #333333; stroke-width: 1.5; stroke-linecap: round"/>
   </g>
   <g id="line2d_141">
    <path d="M 1091.411489 301.140913 
L 1091.411489 296.862671 
L 1301.800398 296.862671 
L 1301.800398 301.140913 
" clip-path="url(#paac1a312db)" style="fill: none; stroke: #333333; stroke-width: 1.5; stroke-linecap: round"/>
   </g>
   <g id="line2d_142">
    <path d="M 249.855852 60.087941 
L 249.855852 55.809699 
L 512.841989 55.809699 
L 512.841989 60.087941 
" clip-path="url(#paac1a312db)" style="fill: none; stroke: #333333; stroke-width: 1.5; stroke-linecap: round"/>
   </g>
   <g id="line2d_143">
    <path d="M 644.335057 273.978299 
L 644.335057 269.700057 
L 907.321193 269.700057 
L 907.321193 273.978299 
" clip-path="url(#paac1a312db)" style="fill: none; stroke: #333333; stroke-width: 1.5; stroke-linecap: round"/>
   </g>
   <g id="line2d_144">
    <path d="M 1038.814261 273.978299 
L 1038.814261 269.700057 
L 1301.800398 269.700057 
L 1301.800398 273.978299 
" clip-path="url(#paac1a312db)" style="fill: none; stroke: #333333; stroke-width: 1.5; stroke-linecap: round"/>
   </g>
   <g id="line2d_145">
    <path d="M 224.083211 357.05116 
L 275.628494 357.05116 
" clip-path="url(#paac1a312db)" style="fill: none; stroke: #6f6f6f; stroke-width: 1.5; stroke-linecap: round"/>
   </g>
   <g id="line2d_146">
    <path d="M 276.680438 357.05116 
L 328.225721 357.05116 
" clip-path="url(#paac1a312db)" style="fill: none; stroke: #6f6f6f; stroke-width: 1.5; stroke-linecap: round"/>
   </g>
   <g id="line2d_147">
    <path d="M 329.277665 357.05116 
L 380.822948 357.05116 
" clip-path="url(#paac1a312db)" style="fill: none; stroke: #6f6f6f; stroke-width: 1.5; stroke-linecap: round"/>
   </g>
   <g id="line2d_148">
    <path d="M 381.874893 357.05116 
L 433.420175 357.05116 
" clip-path="url(#paac1a312db)" style="fill: none; stroke: #6f6f6f; stroke-width: 1.5; stroke-linecap: round"/>
   </g>
   <g id="line2d_149">
    <path d="M 434.47212 357.05116 
L 486.017403 357.05116 
" clip-path="url(#paac1a312db)" style="fill: none; stroke: #6f6f6f; stroke-width: 1.5; stroke-linecap: round"/>
   </g>
   <g id="line2d_150">
    <path d="M 487.069347 357.05116 
L 538.61463 357.05116 
" clip-path="url(#paac1a312db)" style="fill: none; stroke: #6f6f6f; stroke-width: 1.5; stroke-linecap: round"/>
   </g>
   <g id="line2d_151">
    <path d="M 618.562415 551.516722 
L 670.107698 551.516722 
" clip-path="url(#paac1a312db)" style="fill: none; stroke: #6f6f6f; stroke-width: 1.5; stroke-linecap: round"/>
   </g>
   <g id="line2d_152">
    <path d="M 671.159643 551.516722 
L 722.704925 551.516722 
" clip-path="url(#paac1a312db)" style="fill: none; stroke: #6f6f6f; stroke-width: 1.5; stroke-linecap: round"/>
   </g>
   <g id="line2d_153">
    <path d="M 723.75687 551.516722 
L 775.302153 551.516722 
" clip-path="url(#paac1a312db)" style="fill: none; stroke: #6f6f6f; stroke-width: 1.5; stroke-linecap: round"/>
   </g>
   <g id="line2d_154">
    <path d="M 776.354097 551.516722 
L 827.89938 551.516722 
" clip-path="url(#paac1a312db)" style="fill: none; stroke: #6f6f6f; stroke-width: 1.5; stroke-linecap: round"/>
   </g>
   <g id="line2d_155">
    <path d="M 828.951325 551.516722 
L 880.496607 551.516722 
" clip-path="url(#paac1a312db)" style="fill: none; stroke: #6f6f6f; stroke-width: 1.5; stroke-linecap: round"/>
   </g>
   <g id="line2d_156">
    <path d="M 881.548552 551.516722 
L 933.093835 551.516722 
" clip-path="url(#paac1a312db)" style="fill: none; stroke: #6f6f6f; stroke-width: 1.5; stroke-linecap: round"/>
   </g>
   <g id="line2d_157">
    <path d="M 1013.04162 551.516722 
L 1064.586903 551.516722 
" clip-path="url(#paac1a312db)" style="fill: none; stroke: #6f6f6f; stroke-width: 1.5; stroke-linecap: round"/>
   </g>
   <g id="line2d_158">
    <path d="M 1065.638847 551.516722 
L 1117.18413 551.516722 
" clip-path="url(#paac1a312db)" style="fill: none; stroke: #6f6f6f; stroke-width: 1.5; stroke-linecap: round"/>
   </g>
   <g id="line2d_159">
    <path d="M 1118.236075 551.516722 
L 1169.781357 551.516722 
" clip-path="url(#paac1a312db)" style="fill: none; stroke: #6f6f6f; stroke-width: 1.5; stroke-linecap: round"/>
   </g>
   <g id="line2d_160">
    <path d="M 1170.833302 551.516722 
L 1222.378585 551.516722 
" clip-path="url(#paac1a312db)" style="fill: none; stroke: #6f6f6f; stroke-width: 1.5; stroke-linecap: round"/>
   </g>
   <g id="line2d_161">
    <path d="M 1223.430529 551.516722 
L 1274.975812 551.516722 
" clip-path="url(#paac1a312db)" style="fill: none; stroke: #6f6f6f; stroke-width: 1.5; stroke-linecap: round"/>
   </g>
   <g id="line2d_162">
    <path d="M 1276.027756 551.516722 
L 1327.573039 551.516722 
" clip-path="url(#paac1a312db)" style="fill: none; stroke: #6f6f6f; stroke-width: 1.5; stroke-linecap: round"/>
   </g>
   <g id="patch_27">
    <path d="M 52.61625 561.24 
L 52.61625 27.65625 
" style="fill: none; stroke: #262626; stroke-width: 1.25; stroke-linejoin: miter; stroke-linecap: square"/>
   </g>
   <g id="patch_28">
    <path d="M 52.61625 561.24 
L 1499.04 561.24 
" style="fill: none; stroke: #262626; stroke-width: 1.25; stroke-linejoin: miter; stroke-linecap: square"/>
   </g>
   <g id="text_12">
    <!-- ns -->
    <g style="fill: #262626" transform="translate(480.206812 336.55319) scale(0.12 -0.12)">
     <defs>
      <path id="ArialMT-73" d="M 197 991 
L 753 1078 
Q 800 744 1014 566 
Q 1228 388 1613 388 
Q 2000 388 2187 545 
Q 2375 703 2375 916 
Q 2375 1106 2209 1216 
Q 2094 1291 1634 1406 
Q 1016 1563 777 1677 
Q 538 1791 414 1992 
Q 291 2194 291 2438 
Q 291 2659 392 2848 
Q 494 3038 669 3163 
Q 800 3259 1026 3326 
Q 1253 3394 1513 3394 
Q 1903 3394 2198 3281 
Q 2494 3169 2634 2976 
Q 2775 2784 2828 2463 
L 2278 2388 
Q 2241 2644 2061 2787 
Q 1881 2931 1553 2931 
Q 1166 2931 1000 2803 
Q 834 2675 834 2503 
Q 834 2394 903 2306 
Q 972 2216 1119 2156 
Q 1203 2125 1616 2013 
Q 2213 1853 2448 1751 
Q 2684 1650 2818 1456 
Q 2953 1263 2953 975 
Q 2953 694 2789 445 
Q 2625 197 2315 61 
Q 2006 -75 1616 -75 
Q 969 -75 630 194 
Q 291 463 197 991 
z
" transform="scale(0.015625)"/>
     </defs>
     <use xlink:href="#ArialMT-6e"/>
     <use xlink:href="#ArialMT-73" x="55.615234"/>
    </g>
   </g>
   <g id="text_13">
    <!-- ns -->
    <g style="fill: #262626" transform="translate(664.297108 531.018752) scale(0.12 -0.12)">
     <use xlink:href="#ArialMT-6e"/>
     <use xlink:href="#ArialMT-73" x="55.615234"/>
    </g>
   </g>
   <g id="text_14">
    <!-- ns -->
    <g style="fill: #262626" transform="translate(716.894335 510.540877) scale(0.12 -0.12)">
     <use xlink:href="#ArialMT-6e"/>
     <use xlink:href="#ArialMT-73" x="55.615234"/>
    </g>
   </g>
   <g id="text_15">
    <!-- ns -->
    <g style="fill: #262626" transform="translate(822.08879 531.018752) scale(0.12 -0.12)">
     <use xlink:href="#ArialMT-6e"/>
     <use xlink:href="#ArialMT-73" x="55.615234"/>
    </g>
   </g>
   <g id="text_16">
    <!-- ns -->
    <g style="fill: #262626" transform="translate(874.686017 510.540877) scale(0.12 -0.12)">
     <use xlink:href="#ArialMT-6e"/>
     <use xlink:href="#ArialMT-73" x="55.615234"/>
    </g>
   </g>
   <g id="text_17">
    <!-- ns -->
    <g style="fill: #262626" transform="translate(1058.776312 531.018752) scale(0.12 -0.12)">
     <use xlink:href="#ArialMT-6e"/>
     <use xlink:href="#ArialMT-73" x="55.615234"/>
    </g>
   </g>
   <g id="text_18">
    <!-- ns -->
    <g style="fill: #262626" transform="translate(1111.37354 510.540877) scale(0.12 -0.12)">
     <use xlink:href="#ArialMT-6e"/>
     <use xlink:href="#ArialMT-73" x="55.615234"/>
    </g>
   </g>
   <g id="text_19">
    <!-- ns -->
    <g style="fill: #262626" transform="translate(1216.567994 530.929298) scale(0.12 -0.12)">
     <use xlink:href="#ArialMT-6e"/>
     <use xlink:href="#ArialMT-73" x="55.615234"/>
    </g>
   </g>
   <g id="text_20">
    <!-- ns -->
    <g style="fill: #262626" transform="translate(1269.165222 510.451423) scale(0.12 -0.12)">
     <use xlink:href="#ArialMT-6e"/>
     <use xlink:href="#ArialMT-73" x="55.615234"/>
    </g>
   </g>
   <g id="text_21">
    <!-- ns -->
    <g style="fill: #262626" transform="translate(269.817903 336.55319) scale(0.12 -0.12)">
     <use xlink:href="#ArialMT-6e"/>
     <use xlink:href="#ArialMT-73" x="55.615234"/>
    </g>
   </g>
   <g id="text_22">
    <!-- ns -->
    <g style="fill: #262626" transform="translate(322.415131 316.075315) scale(0.12 -0.12)">
     <use xlink:href="#ArialMT-6e"/>
     <use xlink:href="#ArialMT-73" x="55.615234"/>
    </g>
   </g>
   <g id="text_23">
    <!-- ns -->
    <g style="fill: #262626" transform="translate(375.012358 295.064726) scale(0.12 -0.12)">
     <use xlink:href="#ArialMT-6e"/>
     <use xlink:href="#ArialMT-73" x="55.615234"/>
    </g>
   </g>
   <g id="text_24">
    <!-- ns -->
    <g style="fill: #262626" transform="translate(427.609585 273.507565) scale(0.12 -0.12)">
     <use xlink:href="#ArialMT-6e"/>
     <use xlink:href="#ArialMT-73" x="55.615234"/>
    </g>
   </g>
   <g id="text_25">
    <!-- ns -->
    <g style="fill: #262626" transform="translate(769.491562 490.063002) scale(0.12 -0.12)">
     <use xlink:href="#ArialMT-6e"/>
     <use xlink:href="#ArialMT-73" x="55.615234"/>
    </g>
   </g>
   <g id="text_26">
    <!-- ns -->
    <g style="fill: #262626" transform="translate(1163.970767 490.063002) scale(0.12 -0.12)">
     <use xlink:href="#ArialMT-6e"/>
     <use xlink:href="#ArialMT-73" x="55.615234"/>
    </g>
   </g>
   <g id="text_27">
    <!-- ns -->
    <g style="fill: #262626" transform="translate(690.595722 467.945051) scale(0.12 -0.12)">
     <use xlink:href="#ArialMT-6e"/>
     <use xlink:href="#ArialMT-73" x="55.615234"/>
    </g>
   </g>
   <g id="text_28">
    <!-- ns -->
    <g style="fill: #262626" transform="translate(848.387403 467.945051) scale(0.12 -0.12)">
     <use xlink:href="#ArialMT-6e"/>
     <use xlink:href="#ArialMT-73" x="55.615234"/>
    </g>
   </g>
   <g id="text_29">
    <!-- ns -->
    <g style="fill: #262626" transform="translate(1085.074926 467.945051) scale(0.12 -0.12)">
     <use xlink:href="#ArialMT-6e"/>
     <use xlink:href="#ArialMT-73" x="55.615234"/>
    </g>
   </g>
   <g id="text_30">
    <!-- ns -->
    <g style="fill: #262626" transform="translate(1242.866608 467.945051) scale(0.12 -0.12)">
     <use xlink:href="#ArialMT-6e"/>
     <use xlink:href="#ArialMT-73" x="55.615234"/>
    </g>
   </g>
   <g id="text_31">
    <!-- ns -->
    <g style="fill: #262626" transform="translate(453.908199 251.389614) scale(0.12 -0.12)">
     <use xlink:href="#ArialMT-6e"/>
     <use xlink:href="#ArialMT-73" x="55.615234"/>
    </g>
   </g>
   <g id="text_32">
    <!-- ns -->
    <g style="fill: #262626" transform="translate(296.116517 273.507565) scale(0.12 -0.12)">
     <use xlink:href="#ArialMT-6e"/>
     <use xlink:href="#ArialMT-73" x="55.615234"/>
    </g>
   </g>
   <g id="text_33">
    <!-- ns -->
    <g style="fill: #262626" transform="translate(348.713744 228.696284) scale(0.12 -0.12)">
     <use xlink:href="#ArialMT-6e"/>
     <use xlink:href="#ArialMT-73" x="55.615234"/>
    </g>
   </g>
   <g id="text_34">
    <!-- ns -->
    <g style="fill: #262626" transform="translate(401.310972 205.412607) scale(0.12 -0.12)">
     <use xlink:href="#ArialMT-6e"/>
     <use xlink:href="#ArialMT-73" x="55.615234"/>
    </g>
   </g>
   <g id="text_35">
    <!-- ns -->
    <g style="fill: #262626" transform="translate(743.192949 445.8271) scale(0.12 -0.12)">
     <use xlink:href="#ArialMT-6e"/>
     <use xlink:href="#ArialMT-73" x="55.615234"/>
    </g>
   </g>
   <g id="text_36">
    <!-- ns -->
    <g style="fill: #262626" transform="translate(795.790176 421.937719) scale(0.12 -0.12)">
     <use xlink:href="#ArialMT-6e"/>
     <use xlink:href="#ArialMT-73" x="55.615234"/>
    </g>
   </g>
   <g id="text_37">
    <!-- ns -->
    <g style="fill: #262626" transform="translate(1137.672153 445.8271) scale(0.12 -0.12)">
     <use xlink:href="#ArialMT-6e"/>
     <use xlink:href="#ArialMT-73" x="55.615234"/>
    </g>
   </g>
   <g id="text_38">
    <!-- ns -->
    <g style="fill: #262626" transform="translate(1190.269381 421.937719) scale(0.12 -0.12)">
     <use xlink:href="#ArialMT-6e"/>
     <use xlink:href="#ArialMT-73" x="55.615234"/>
    </g>
   </g>
   <g id="text_39">
    <!-- ns -->
    <g style="fill: #262626" transform="translate(427.609585 181.523227) scale(0.12 -0.12)">
     <use xlink:href="#ArialMT-6e"/>
     <use xlink:href="#ArialMT-73" x="55.615234"/>
    </g>
   </g>
   <g id="text_40">
    <!-- ns -->
    <g style="fill: #262626" transform="translate(322.415131 157.012385) scale(0.12 -0.12)">
     <use xlink:href="#ArialMT-6e"/>
     <use xlink:href="#ArialMT-73" x="55.615234"/>
    </g>
   </g>
   <g id="text_41">
    <!-- ns -->
    <g style="fill: #262626" transform="translate(375.012358 131.863915) scale(0.12 -0.12)">
     <use xlink:href="#ArialMT-6e"/>
     <use xlink:href="#ArialMT-73" x="55.615234"/>
    </g>
   </g>
   <g id="text_42">
    <!-- ns -->
    <g style="fill: #262626" transform="translate(716.894335 398.048338) scale(0.12 -0.12)">
     <use xlink:href="#ArialMT-6e"/>
     <use xlink:href="#ArialMT-73" x="55.615234"/>
    </g>
   </g>
   <g id="text_43">
    <!-- ns -->
    <g style="fill: #262626" transform="translate(769.491562 372.245653) scale(0.12 -0.12)">
     <use xlink:href="#ArialMT-6e"/>
     <use xlink:href="#ArialMT-73" x="55.615234"/>
    </g>
   </g>
   <g id="text_44">
    <!-- ns -->
    <g style="fill: #262626" transform="translate(822.08879 346.442969) scale(0.12 -0.12)">
     <use xlink:href="#ArialMT-6e"/>
     <use xlink:href="#ArialMT-73" x="55.615234"/>
    </g>
   </g>
   <g id="text_45">
    <!-- ns -->
    <g style="fill: #262626" transform="translate(1111.37354 398.048338) scale(0.12 -0.12)">
     <use xlink:href="#ArialMT-6e"/>
     <use xlink:href="#ArialMT-73" x="55.615234"/>
    </g>
   </g>
   <g id="text_46">
    <!-- ns -->
    <g style="fill: #262626" transform="translate(1163.970767 372.245653) scale(0.12 -0.12)">
     <use xlink:href="#ArialMT-6e"/>
     <use xlink:href="#ArialMT-73" x="55.615234"/>
    </g>
   </g>
   <g id="text_47">
    <!-- ns -->
    <g style="fill: #262626" transform="translate(1216.567994 346.442969) scale(0.12 -0.12)">
     <use xlink:href="#ArialMT-6e"/>
     <use xlink:href="#ArialMT-73" x="55.615234"/>
    </g>
   </g>
   <g id="text_48">
    <!-- ns -->
    <g style="fill: #262626" transform="translate(348.713744 106.061231) scale(0.12 -0.12)">
     <use xlink:href="#ArialMT-6e"/>
     <use xlink:href="#ArialMT-73" x="55.615234"/>
    </g>
   </g>
   <g id="text_49">
    <!-- ns -->
    <g style="fill: #262626" transform="translate(401.310972 79.587312) scale(0.12 -0.12)">
     <use xlink:href="#ArialMT-6e"/>
     <use xlink:href="#ArialMT-73" x="55.615234"/>
    </g>
   </g>
   <g id="text_50">
    <!-- ns -->
    <g style="fill: #262626" transform="translate(743.192949 320.640284) scale(0.12 -0.12)">
     <use xlink:href="#ArialMT-6e"/>
     <use xlink:href="#ArialMT-73" x="55.615234"/>
    </g>
   </g>
   <g id="text_51">
    <!-- ns -->
    <g style="fill: #262626" transform="translate(795.790176 293.477671) scale(0.12 -0.12)">
     <use xlink:href="#ArialMT-6e"/>
     <use xlink:href="#ArialMT-73" x="55.615234"/>
    </g>
   </g>
   <g id="text_52">
    <!-- ns -->
    <g style="fill: #262626" transform="translate(1137.672153 320.640284) scale(0.12 -0.12)">
     <use xlink:href="#ArialMT-6e"/>
     <use xlink:href="#ArialMT-73" x="55.615234"/>
    </g>
   </g>
   <g id="text_53">
    <!-- ns -->
    <g style="fill: #262626" transform="translate(1190.269381 293.477671) scale(0.12 -0.12)">
     <use xlink:href="#ArialMT-6e"/>
     <use xlink:href="#ArialMT-73" x="55.615234"/>
    </g>
   </g>
   <g id="text_54">
    <!-- ns -->
    <g style="fill: #262626" transform="translate(375.012358 52.424699) scale(0.12 -0.12)">
     <use xlink:href="#ArialMT-6e"/>
     <use xlink:href="#ArialMT-73" x="55.615234"/>
    </g>
   </g>
   <g id="text_55">
    <!-- ns -->
    <g style="fill: #262626" transform="translate(769.491562 266.315057) scale(0.12 -0.12)">
     <use xlink:href="#ArialMT-6e"/>
     <use xlink:href="#ArialMT-73" x="55.615234"/>
    </g>
   </g>
   <g id="text_56">
    <!-- ns -->
    <g style="fill: #262626" transform="translate(1163.970767 266.315057) scale(0.12 -0.12)">
     <use xlink:href="#ArialMT-6e"/>
     <use xlink:href="#ArialMT-73" x="55.615234"/>
    </g>
   </g>
   <g id="text_57">
    <!-- Top 20 Kingdom relative-filtered abundances rank by groups. -->
    <g style="fill: #262626" transform="translate(614.080312 21.65625) scale(0.12 -0.12)">
     <defs>
      <path id="ArialMT-70" d="M 422 -1272 
L 422 3319 
L 934 3319 
L 934 2888 
Q 1116 3141 1344 3267 
Q 1572 3394 1897 3394 
Q 2322 3394 2647 3175 
Q 2972 2956 3137 2557 
Q 3303 2159 3303 1684 
Q 3303 1175 3120 767 
Q 2938 359 2589 142 
Q 2241 -75 1856 -75 
Q 1575 -75 1351 44 
Q 1128 163 984 344 
L 984 -1272 
L 422 -1272 
z
M 931 1641 
Q 931 1000 1190 694 
Q 1450 388 1819 388 
Q 2194 388 2461 705 
Q 2728 1022 2728 1688 
Q 2728 2322 2467 2637 
Q 2206 2953 1844 2953 
Q 1484 2953 1207 2617 
Q 931 2281 931 1641 
z
" transform="scale(0.015625)"/>
      <path id="ArialMT-4b" d="M 469 0 
L 469 4581 
L 1075 4581 
L 1075 2309 
L 3350 4581 
L 4172 4581 
L 2250 2725 
L 4256 0 
L 3456 0 
L 1825 2319 
L 1075 1588 
L 1075 0 
L 469 0 
z
" transform="scale(0.015625)"/>
      <path id="ArialMT-67" d="M 319 -275 
L 866 -356 
Q 900 -609 1056 -725 
Q 1266 -881 1628 -881 
Q 2019 -881 2231 -725 
Q 2444 -569 2519 -288 
Q 2563 -116 2559 434 
Q 2191 0 1641 0 
Q 956 0 581 494 
Q 206 988 206 1678 
Q 206 2153 378 2554 
Q 550 2956 876 3175 
Q 1203 3394 1644 3394 
Q 2231 3394 2613 2919 
L 2613 3319 
L 3131 3319 
L 3131 450 
Q 3131 -325 2973 -648 
Q 2816 -972 2473 -1159 
Q 2131 -1347 1631 -1347 
Q 1038 -1347 672 -1080 
Q 306 -813 319 -275 
z
M 784 1719 
Q 784 1066 1043 766 
Q 1303 466 1694 466 
Q 2081 466 2343 764 
Q 2606 1063 2606 1700 
Q 2606 2309 2336 2618 
Q 2066 2928 1684 2928 
Q 1309 2928 1046 2623 
Q 784 2319 784 1719 
z
" transform="scale(0.015625)"/>
      <path id="ArialMT-64" d="M 2575 0 
L 2575 419 
Q 2259 -75 1647 -75 
Q 1250 -75 917 144 
Q 584 363 401 755 
Q 219 1147 219 1656 
Q 219 2153 384 2558 
Q 550 2963 881 3178 
Q 1213 3394 1622 3394 
Q 1922 3394 2156 3267 
Q 2391 3141 2538 2938 
L 2538 4581 
L 3097 4581 
L 3097 0 
L 2575 0 
z
M 797 1656 
Q 797 1019 1065 703 
Q 1334 388 1700 388 
Q 2069 388 2326 689 
Q 2584 991 2584 1609 
Q 2584 2291 2321 2609 
Q 2059 2928 1675 2928 
Q 1300 2928 1048 2622 
Q 797 2316 797 1656 
z
" transform="scale(0.015625)"/>
      <path id="ArialMT-2d" d="M 203 1375 
L 203 1941 
L 1931 1941 
L 1931 1375 
L 203 1375 
z
" transform="scale(0.015625)"/>
      <path id="ArialMT-62" d="M 941 0 
L 419 0 
L 419 4581 
L 981 4581 
L 981 2947 
Q 1338 3394 1891 3394 
Q 2197 3394 2470 3270 
Q 2744 3147 2920 2923 
Q 3097 2700 3197 2384 
Q 3297 2069 3297 1709 
Q 3297 856 2875 390 
Q 2453 -75 1863 -75 
Q 1275 -75 941 416 
L 941 0 
z
M 934 1684 
Q 934 1088 1097 822 
Q 1363 388 1816 388 
Q 2184 388 2453 708 
Q 2722 1028 2722 1663 
Q 2722 2313 2464 2622 
Q 2206 2931 1841 2931 
Q 1472 2931 1203 2611 
Q 934 2291 934 1684 
z
" transform="scale(0.015625)"/>
     </defs>
     <use xlink:href="#ArialMT-54"/>
     <use xlink:href="#ArialMT-6f" x="49.958984"/>
     <use xlink:href="#ArialMT-70" x="105.574219"/>
     <use xlink:href="#ArialMT-20" x="161.189453"/>
     <use xlink:href="#ArialMT-32" x="188.972656"/>
     <use xlink:href="#ArialMT-30" x="244.587891"/>
     <use xlink:href="#ArialMT-20" x="300.203125"/>
     <use xlink:href="#ArialMT-4b" x="327.986328"/>
     <use xlink:href="#ArialMT-69" x="394.685547"/>
     <use xlink:href="#ArialMT-6e" x="416.902344"/>
     <use xlink:href="#ArialMT-67" x="472.517578"/>
     <use xlink:href="#ArialMT-64" x="528.132812"/>
     <use xlink:href="#ArialMT-6f" x="583.748047"/>
     <use xlink:href="#ArialMT-6d" x="639.363281"/>
     <use xlink:href="#ArialMT-20" x="722.664062"/>
     <use xlink:href="#ArialMT-72" x="750.447266"/>
     <use xlink:href="#ArialMT-65" x="783.748047"/>
     <use xlink:href="#ArialMT-6c" x="839.363281"/>
     <use xlink:href="#ArialMT-61" x="861.580078"/>
     <use xlink:href="#ArialMT-74" x="917.195312"/>
     <use xlink:href="#ArialMT-69" x="944.978516"/>
     <use xlink:href="#ArialMT-76" x="967.195312"/>
     <use xlink:href="#ArialMT-65" x="1017.195312"/>
     <use xlink:href="#ArialMT-2d" x="1072.810547"/>
     <use xlink:href="#ArialMT-66" x="1106.111328"/>
     <use xlink:href="#ArialMT-69" x="1133.894531"/>
     <use xlink:href="#ArialMT-6c" x="1156.111328"/>
     <use xlink:href="#ArialMT-74" x="1178.328125"/>
     <use xlink:href="#ArialMT-65" x="1206.111328"/>
     <use xlink:href="#ArialMT-72" x="1261.726562"/>
     <use xlink:href="#ArialMT-65" x="1295.027344"/>
     <use xlink:href="#ArialMT-64" x="1350.642578"/>
     <use xlink:href="#ArialMT-20" x="1406.257812"/>
     <use xlink:href="#ArialMT-61" x="1434.041016"/>
     <use xlink:href="#ArialMT-62" x="1489.65625"/>
     <use xlink:href="#ArialMT-75" x="1545.271484"/>
     <use xlink:href="#ArialMT-6e" x="1600.886719"/>
     <use xlink:href="#ArialMT-64" x="1656.501953"/>
     <use xlink:href="#ArialMT-61" x="1712.117188"/>
     <use xlink:href="#ArialMT-6e" x="1767.732422"/>
     <use xlink:href="#ArialMT-63" x="1823.347656"/>
     <use xlink:href="#ArialMT-65" x="1873.347656"/>
     <use xlink:href="#ArialMT-73" x="1928.962891"/>
     <use xlink:href="#ArialMT-20" x="1978.962891"/>
     <use xlink:href="#ArialMT-72" x="2006.746094"/>
     <use xlink:href="#ArialMT-61" x="2040.046875"/>
     <use xlink:href="#ArialMT-6e" x="2095.662109"/>
     <use xlink:href="#ArialMT-6b" x="2151.277344"/>
     <use xlink:href="#ArialMT-20" x="2201.277344"/>
     <use xlink:href="#ArialMT-62" x="2229.060547"/>
     <use xlink:href="#ArialMT-79" x="2284.675781"/>
     <use xlink:href="#ArialMT-20" x="2334.675781"/>
     <use xlink:href="#ArialMT-67" x="2362.458984"/>
     <use xlink:href="#ArialMT-72" x="2418.074219"/>
     <use xlink:href="#ArialMT-6f" x="2451.375"/>
     <use xlink:href="#ArialMT-75" x="2506.990234"/>
     <use xlink:href="#ArialMT-70" x="2562.605469"/>
     <use xlink:href="#ArialMT-73" x="2618.220703"/>
     <use xlink:href="#ArialMT-2e" x="2668.220703"/>
    </g>
   </g>
   <g id="legend_1">
    <g id="patch_29">
     <path d="M 1413.36375 146.435937 
L 1491.34 146.435937 
Q 1493.54 146.435937 1493.54 144.235937 
L 1493.54 35.35625 
Q 1493.54 33.15625 1491.34 33.15625 
L 1413.36375 33.15625 
Q 1411.16375 33.15625 1411.16375 35.35625 
L 1411.16375 144.235937 
Q 1411.16375 146.435937 1413.36375 146.435937 
z
" style="fill: #ffffff; opacity: 0.8; stroke: #cccccc; stroke-linejoin: miter"/>
    </g>
    <g id="text_58">
     <!-- Grupo -->
     <g style="fill: #262626" transform="translate(1435.6775 46.291875) scale(0.12 -0.12)">
      <defs>
       <path id="ArialMT-47" d="M 2638 1797 
L 2638 2334 
L 4578 2338 
L 4578 638 
Q 4131 281 3656 101 
Q 3181 -78 2681 -78 
Q 2006 -78 1454 211 
Q 903 500 622 1047 
Q 341 1594 341 2269 
Q 341 2938 620 3517 
Q 900 4097 1425 4378 
Q 1950 4659 2634 4659 
Q 3131 4659 3532 4498 
Q 3934 4338 4162 4050 
Q 4391 3763 4509 3300 
L 3963 3150 
Q 3859 3500 3706 3700 
Q 3553 3900 3268 4020 
Q 2984 4141 2638 4141 
Q 2222 4141 1919 4014 
Q 1616 3888 1430 3681 
Q 1244 3475 1141 3228 
Q 966 2803 966 2306 
Q 966 1694 1177 1281 
Q 1388 869 1791 669 
Q 2194 469 2647 469 
Q 3041 469 3416 620 
Q 3791 772 3984 944 
L 3984 1797 
L 2638 1797 
z
" transform="scale(0.015625)"/>
      </defs>
      <use xlink:href="#ArialMT-47"/>
      <use xlink:href="#ArialMT-72" x="77.783203"/>
      <use xlink:href="#ArialMT-75" x="111.083984"/>
      <use xlink:href="#ArialMT-70" x="166.699219"/>
      <use xlink:href="#ArialMT-6f" x="222.314453"/>
     </g>
    </g>
    <g id="patch_30">
     <path d="M 1415.56375 62.050469 
L 1437.56375 62.050469 
L 1437.56375 54.350469 
L 1415.56375 54.350469 
z
" style="fill: #abc9ea; stroke: #6f6f6f; stroke-width: 0.75; stroke-linejoin: miter"/>
    </g>
    <g id="text_59">
     <!-- NC -->
     <g style="fill: #262626" transform="translate(1446.36375 62.050469) scale(0.11 -0.11)">
      <defs>
       <path id="ArialMT-4e" d="M 488 0 
L 488 4581 
L 1109 4581 
L 3516 984 
L 3516 4581 
L 4097 4581 
L 4097 0 
L 3475 0 
L 1069 3600 
L 1069 0 
L 488 0 
z
" transform="scale(0.015625)"/>
       <path id="ArialMT-43" d="M 3763 1606 
L 4369 1453 
Q 4178 706 3683 314 
Q 3188 -78 2472 -78 
Q 1731 -78 1267 223 
Q 803 525 561 1097 
Q 319 1669 319 2325 
Q 319 3041 592 3573 
Q 866 4106 1370 4382 
Q 1875 4659 2481 4659 
Q 3169 4659 3637 4309 
Q 4106 3959 4291 3325 
L 3694 3184 
Q 3534 3684 3231 3912 
Q 2928 4141 2469 4141 
Q 1941 4141 1586 3887 
Q 1231 3634 1087 3207 
Q 944 2781 944 2328 
Q 944 1744 1114 1308 
Q 1284 872 1643 656 
Q 2003 441 2422 441 
Q 2931 441 3284 734 
Q 3638 1028 3763 1606 
z
" transform="scale(0.015625)"/>
      </defs>
      <use xlink:href="#ArialMT-4e"/>
      <use xlink:href="#ArialMT-43" x="72.216797"/>
     </g>
    </g>
    <g id="patch_31">
     <path d="M 1415.56375 77.610312 
L 1437.56375 77.610312 
L 1437.56375 69.910312 
L 1415.56375 69.910312 
z
" style="fill: #efb792; stroke: #6f6f6f; stroke-width: 0.75; stroke-linejoin: miter"/>
    </g>
    <g id="text_60">
     <!-- NR -->
     <g style="fill: #262626" transform="translate(1446.36375 77.610312) scale(0.11 -0.11)">
      <defs>
       <path id="ArialMT-52" d="M 503 0 
L 503 4581 
L 2534 4581 
Q 3147 4581 3465 4457 
Q 3784 4334 3975 4021 
Q 4166 3709 4166 3331 
Q 4166 2844 3850 2509 
Q 3534 2175 2875 2084 
Q 3116 1969 3241 1856 
Q 3506 1613 3744 1247 
L 4541 0 
L 3778 0 
L 3172 953 
Q 2906 1366 2734 1584 
Q 2563 1803 2427 1890 
Q 2291 1978 2150 2013 
Q 2047 2034 1813 2034 
L 1109 2034 
L 1109 0 
L 503 0 
z
M 1109 2559 
L 2413 2559 
Q 2828 2559 3062 2645 
Q 3297 2731 3419 2920 
Q 3541 3109 3541 3331 
Q 3541 3656 3305 3865 
Q 3069 4075 2559 4075 
L 1109 4075 
L 1109 2559 
z
" transform="scale(0.015625)"/>
      </defs>
      <use xlink:href="#ArialMT-4e"/>
      <use xlink:href="#ArialMT-52" x="72.216797"/>
     </g>
    </g>
    <g id="patch_32">
     <path d="M 1415.56375 93.170156 
L 1437.56375 93.170156 
L 1437.56375 85.470156 
L 1415.56375 85.470156 
z
" style="fill: #98daa7; stroke: #6f6f6f; stroke-width: 0.75; stroke-linejoin: miter"/>
    </g>
    <g id="text_61">
     <!-- STD-NC -->
     <g style="fill: #262626" transform="translate(1446.36375 93.170156) scale(0.11 -0.11)">
      <defs>
       <path id="ArialMT-53" d="M 288 1472 
L 859 1522 
Q 900 1178 1048 958 
Q 1197 738 1509 602 
Q 1822 466 2213 466 
Q 2559 466 2825 569 
Q 3091 672 3220 851 
Q 3350 1031 3350 1244 
Q 3350 1459 3225 1620 
Q 3100 1781 2813 1891 
Q 2628 1963 1997 2114 
Q 1366 2266 1113 2400 
Q 784 2572 623 2826 
Q 463 3081 463 3397 
Q 463 3744 659 4045 
Q 856 4347 1234 4503 
Q 1613 4659 2075 4659 
Q 2584 4659 2973 4495 
Q 3363 4331 3572 4012 
Q 3781 3694 3797 3291 
L 3216 3247 
Q 3169 3681 2898 3903 
Q 2628 4125 2100 4125 
Q 1550 4125 1298 3923 
Q 1047 3722 1047 3438 
Q 1047 3191 1225 3031 
Q 1400 2872 2139 2705 
Q 2878 2538 3153 2413 
Q 3553 2228 3743 1945 
Q 3934 1663 3934 1294 
Q 3934 928 3725 604 
Q 3516 281 3123 101 
Q 2731 -78 2241 -78 
Q 1619 -78 1198 103 
Q 778 284 539 648 
Q 300 1013 288 1472 
z
" transform="scale(0.015625)"/>
       <path id="ArialMT-44" d="M 494 0 
L 494 4581 
L 2072 4581 
Q 2606 4581 2888 4516 
Q 3281 4425 3559 4188 
Q 3922 3881 4101 3404 
Q 4281 2928 4281 2316 
Q 4281 1794 4159 1391 
Q 4038 988 3847 723 
Q 3656 459 3429 307 
Q 3203 156 2883 78 
Q 2563 0 2147 0 
L 494 0 
z
M 1100 541 
L 2078 541 
Q 2531 541 2789 625 
Q 3047 709 3200 863 
Q 3416 1078 3536 1442 
Q 3656 1806 3656 2325 
Q 3656 3044 3420 3430 
Q 3184 3816 2847 3947 
Q 2603 4041 2063 4041 
L 1100 4041 
L 1100 541 
z
" transform="scale(0.015625)"/>
      </defs>
      <use xlink:href="#ArialMT-53"/>
      <use xlink:href="#ArialMT-54" x="66.699219"/>
      <use xlink:href="#ArialMT-44" x="127.783203"/>
      <use xlink:href="#ArialMT-2d" x="200"/>
      <use xlink:href="#ArialMT-4e" x="233.300781"/>
      <use xlink:href="#ArialMT-43" x="305.517578"/>
     </g>
    </g>
    <g id="patch_33">
     <path d="M 1415.56375 108.73 
L 1437.56375 108.73 
L 1437.56375 101.03 
L 1415.56375 101.03 
z
" style="fill: #f2aba8; stroke: #6f6f6f; stroke-width: 0.75; stroke-linejoin: miter"/>
    </g>
    <g id="text_62">
     <!-- STD-NR -->
     <g style="fill: #262626" transform="translate(1446.36375 108.73) scale(0.11 -0.11)">
      <use xlink:href="#ArialMT-53"/>
      <use xlink:href="#ArialMT-54" x="66.699219"/>
      <use xlink:href="#ArialMT-44" x="127.783203"/>
      <use xlink:href="#ArialMT-2d" x="200"/>
      <use xlink:href="#ArialMT-4e" x="233.300781"/>
      <use xlink:href="#ArialMT-52" x="305.517578"/>
     </g>
    </g>
    <g id="patch_34">
     <path d="M 1415.56375 124.289844 
L 1437.56375 124.289844 
L 1437.56375 116.589844 
L 1415.56375 116.589844 
z
" style="fill: #d3c4f6; stroke: #6f6f6f; stroke-width: 0.75; stroke-linejoin: miter"/>
    </g>
    <g id="text_63">
     <!-- HSD-NC -->
     <g style="fill: #262626" transform="translate(1446.36375 124.289844) scale(0.11 -0.11)">
      <defs>
       <path id="ArialMT-48" d="M 513 0 
L 513 4581 
L 1119 4581 
L 1119 2700 
L 3500 2700 
L 3500 4581 
L 4106 4581 
L 4106 0 
L 3500 0 
L 3500 2159 
L 1119 2159 
L 1119 0 
L 513 0 
z
" transform="scale(0.015625)"/>
      </defs>
      <use xlink:href="#ArialMT-48"/>
      <use xlink:href="#ArialMT-53" x="72.216797"/>
      <use xlink:href="#ArialMT-44" x="138.916016"/>
      <use xlink:href="#ArialMT-2d" x="211.132812"/>
      <use xlink:href="#ArialMT-4e" x="244.433594"/>
      <use xlink:href="#ArialMT-43" x="316.650391"/>
     </g>
    </g>
    <g id="patch_35">
     <path d="M 1415.56375 139.849687 
L 1437.56375 139.849687 
L 1437.56375 132.149687 
L 1415.56375 132.149687 
z
" style="fill: #d6bba3; stroke: #6f6f6f; stroke-width: 0.75; stroke-linejoin: miter"/>
    </g>
    <g id="text_64">
     <!-- HSD-NR -->
     <g style="fill: #262626" transform="translate(1446.36375 139.849687) scale(0.11 -0.11)">
      <use xlink:href="#ArialMT-48"/>
      <use xlink:href="#ArialMT-53" x="72.216797"/>
      <use xlink:href="#ArialMT-44" x="138.916016"/>
      <use xlink:href="#ArialMT-2d" x="211.132812"/>
      <use xlink:href="#ArialMT-4e" x="244.433594"/>
      <use xlink:href="#ArialMT-52" x="316.650391"/>
     </g>
    </g>
   </g>
  </g>
 </g>
 <defs>
  <clipPath id="paac1a312db">
   <rect x="52.61625" y="27.65625" width="1446.42375" height="533.58375"/>
  </clipPath>
 </defs>
</svg>
